<svg xmlns="http://www.w3.org/2000/svg">
  <symbol id="hamburger" viewBox="0 0 32 32"><path d="M5 8h22M5 16h22M27 24H5" stroke-width="3" stroke-linecap="round"/></symbol>
  <symbol id="cross" viewBox="0 0 32 32"><path d="M7 24L25 8M25 24L7 8" stroke-width="3" stroke-linecap="round"/></symbol>
  <symbol id="play" viewBox="0 0 21 23"><path d="M19 8.036c2.667 1.54 2.667 5.389 0 6.928L6.25 22.325c-2.667 1.54-6-.385-6-3.464V4.14c0-3.08 3.333-5.004 6-3.464L19 8.035z"/></symbol>
  <symbol id="check" viewBox="0 0 20 20"><path d="M10 0C4.486 0 0 4.486 0 10s4.486 10 10 10 10-4.486 10-10S15.514 0 10 0zM8.001 14.413l-3.006-3A1 1 0 116.408 10l1.591 1.588L12.586 7A1 1 0 1114 8.414l-5.999 5.999z"/></symbol>
  <symbol id="worldwide" viewBox="0 0 55 55"><path d="M4.297 28.36h10.312v-8.594H4.297v8.593zm1.719-3.438h1.718v1.719H6.016v-1.72zm6.875-3.438v1.72h-1.72v1.718h1.72v1.719H9.453v-3.438H6.016v-1.719h6.875zM24.922 28.36c-.608 0-1.198.17-1.721.476a3.392 3.392 0 00-1.717-.477 3.44 3.44 0 00-3.437 3.438 3.44 3.44 0 003.437 3.437c.629 0 1.21-.181 1.716-.477a3.403 3.403 0 001.722.477 3.44 3.44 0 003.437-3.437 3.44 3.44 0 00-3.437-3.438zm-5.156 3.437c0-.948.77-1.719 1.718-1.719s1.72.771 1.72 1.719a1.72 1.72 0 01-1.72 1.719 1.72 1.72 0 01-1.718-1.72zm5.156 1.719c-.163 0-.308-.028-.443-.066a3.393 3.393 0 00.443-1.653c0-.602-.17-1.161-.443-1.654.135-.037.28-.065.443-.065.948 0 1.719.771 1.719 1.719a1.72 1.72 0 01-1.72 1.719zM4.297 30.078h10.312v1.719H4.297v-1.719zM4.297 33.516h10.312v1.718H4.297v-1.718zM19.766 19.766h8.593v1.718h-8.593v-1.718zM23.203 23.203h1.719v1.719h-1.719v-1.719zM26.64 23.203h1.72v1.719h-1.72v-1.719zM19.766 23.203h1.718v1.719h-1.718v-1.719z"/><path d="M35.234 16.328a18.96 18.96 0 00-4.456.539 2.553 2.553 0 00-1.56-.539h-7.313a9.37 9.37 0 002.157-6.015c0-5.213-4.24-9.454-9.453-9.454-5.212 0-9.453 4.241-9.453 9.454 0 2.239.77 4.342 2.157 6.015H3.438a2.581 2.581 0 00-2.579 2.578v17.188a2.581 2.581 0 002.579 2.578H16.66c1.635 8.866 9.479 15.469 18.573 15.469 10.425 0 18.907-8.481 18.907-18.907 0-10.425-8.481-18.906-18.907-18.906zm0 36.094c-1.504 0-3.224-2.844-4.25-7.734h8.478c-1.005 4.728-2.673 7.734-4.228 7.734zm-4.566-9.453a46.197 46.197 0 01-.485-4.488 2.58 2.58 0 001.614-2.387h8.579a47.46 47.46 0 01-.593 6.875h-9.115zM31.797 27.5h7.986c.339 2.063.552 4.38.593 6.875h-8.58V27.5zm10.305 8.594H52.38a17.058 17.058 0 01-1.816 6.875h-9.032c.34-2.196.534-4.544.572-6.875zm0-1.719a50.652 50.652 0 00-.572-6.875h9.032a17.03 17.03 0 011.816 6.875H42.102zm7.472-8.594h-8.348c-.612-3.065-1.536-5.712-2.755-7.419a17.22 17.22 0 0111.103 7.42zm-10.111 0h-7.666v-6.875c0-.172-.018-.34-.05-.502a17.274 17.274 0 013.487-.357c1.555 0 3.223 3.006 4.228 7.734zM6.874 10.313c0-4.265 3.47-7.735 7.734-7.735 4.265 0 7.735 3.47 7.735 7.735a7.664 7.664 0 01-2.89 6.015H15.47v-1.877a2.575 2.575 0 001.719-2.42 2.581 2.581 0 00-2.579-2.578.86.86 0 01-.859-.86.86.86 0 01.86-.859.86.86 0 01.859.86h1.719a2.575 2.575 0 00-1.72-2.42V4.297H13.75v1.877a2.575 2.575 0 00-1.719 2.42 2.581 2.581 0 002.578 2.578.86.86 0 01.86.86.86.86 0 01-.86.859.86.86 0 01-.859-.86h-1.719c0 1.12.721 2.064 1.719 2.42v1.877H9.764a7.665 7.665 0 01-2.889-6.015zm-4.297 25.78V18.907a.86.86 0 01.86-.86h25.78a.86.86 0 01.86.86v17.188a.86.86 0 01-.86.86H3.439a.86.86 0 01-.86-.86zm25.89 2.579a47.51 47.51 0 00.47 4.297h-9.03a16.892 16.892 0 01-1.5-4.297h10.06zM20.9 44.688h8.345c.609 3.018 1.532 5.694 2.766 7.422-4.583-.885-8.581-3.615-11.111-7.422zm17.57 7.418c1.22-1.706 2.143-4.352 2.755-7.419h8.348a17.22 17.22 0 01-11.103 7.42z"/></symbol>
  <symbol id="anonymous" viewBox="0 0 48 48"><g clip-path="url(#clip0)"><path d="M21.6 6.4h4.8a.8.8 0 000-1.6h-4.8a.8.8 0 000 1.6zM35.2 6.4H44a.8.8 0 000-1.6h-8.8a.8.8 0 000 1.6z"/><path d="M44 1.6H4a4.005 4.005 0 00-4 4v36.8a4.005 4.005 0 004 4h40a4.005 4.005 0 004-4V5.6a4.005 4.005 0 00-4-4zM4 3.2h40a2.4 2.4 0 012.4 2.4V8H1.6V5.6A2.4 2.4 0 014 3.2zm40 41.6H4a2.4 2.4 0 01-2.4-2.4V9.6h44.8v32.8a2.4 2.4 0 01-2.4 2.4z"/><path d="M4 6.4a.8.8 0 100-1.6.8.8 0 000 1.6zM7.2 6.4a.8.8 0 100-1.6.8.8 0 000 1.6zM10.4 6.4a.8.8 0 100-1.6.8.8 0 000 1.6zM30.4 28.8a5.6 5.6 0 00-4.85 2.814 3.105 3.105 0 00-3.1 0 5.657 5.657 0 10.597 1.509 1.693 1.693 0 011.906 0A5.6 5.6 0 1030.4 28.8zm-12.8 9.6a4 4 0 110-8 4 4 0 010 8zm12.8 0a4 4 0 110-8 4 4 0 010 8zM33.35 22.273l-2.2-7.153a3.207 3.207 0 00-4.32-2.005l-2.207.947a1.545 1.545 0 01-1.25 0l-2.203-.95a3.207 3.207 0 00-4.32 2.005l-2.2 7.156a13.841 13.841 0 00-5.92 3.6.8.8 0 00.606 1.327h29.328a.8.8 0 00.603-1.326 13.84 13.84 0 00-5.917-3.601zm-14.97-6.687a1.607 1.607 0 012.16-1.003l2.194.941c.805.353 1.72.353 2.525 0l2.198-.944a1.607 1.607 0 012.16 1.004l1.885 6.133a31.069 31.069 0 00-15.01 0l1.889-6.13zM11.44 25.6c2.813-1.982 7.474-3.2 12.56-3.2a27.91 27.91 0 018.526 1.267A15.336 15.336 0 0136.56 25.6H11.44z"/></g><defs><clipPath id="clip0"><path d="M0 0h48v48H0z"/></clipPath></defs></symbol>
  <symbol id="simple" viewBox="0 0 55 55"><path d="M47.125 35.403a2.812 2.812 0 00-2.29-.618l-17.043 2.964-4.84-4.841a.856.856 0 00-.608-.252H13.75a.86.86 0 00-.86-.86H3.439v1.72h5.156v12.03H3.438v1.72h9.453a.86.86 0 00.859-.86h2.375l9.188 4.595a2.8 2.8 0 002.672-.087l18.748-10.936a2.82 2.82 0 001.392-2.426c0-.83-.365-1.615-1-2.15zM12.03 45.547h-1.719V33.516h1.72v12.03zm33.835-7.053L27.118 49.429a1.087 1.087 0 01-1.036.034l-9.369-4.684a.856.856 0 00-.385-.092H13.75V34.376h8.238l6.771 6.77a1.573 1.573 0 01-2.222 2.222l-4.445-4.443-1.215 1.215 4.445 4.444a3.264 3.264 0 002.326.964 3.294 3.294 0 003.29-3.29 3.27 3.27 0 00-.964-2.327l-.695-.695 15.85-2.757a1.09 1.09 0 01.736 2.016zM32.88 12.315l-8.594 9.452 1.272 1.157 8.594-9.453-1.272-1.156zM25.781 17.617a2.581 2.581 0 002.578-2.578 2.581 2.581 0 00-2.578-2.578 2.581 2.581 0 00-2.578 2.578 2.581 2.581 0 002.578 2.578zm0-3.437a.86.86 0 11-.001 1.72.86.86 0 01.001-1.72zM30.078 20.195a2.581 2.581 0 002.578 2.578 2.581 2.581 0 002.578-2.578 2.581 2.581 0 00-2.578-2.578 2.581 2.581 0 00-2.578 2.578zm3.438 0a.86.86 0 01-1.72 0 .86.86 0 011.72 0z"/><path d="M28.595 35.826a.863.863 0 001.248 0L43.47 21.467c3.903-4.113 3.903-10.805 0-14.917-1.906-2.007-4.442-3.112-7.142-3.112-2.686 0-5.21 1.093-7.11 3.08-1.901-1.987-4.424-3.08-7.11-3.08-2.7 0-5.237 1.105-7.142 3.112-3.903 4.113-3.903 10.805 0 14.917l13.628 14.359zM16.214 7.734c1.577-1.663 3.67-2.578 5.894-2.578 2.225 0 4.318.915 5.895 2.578l.592.624a.888.888 0 001.247 0l.592-.624c1.578-1.663 3.671-2.578 5.895-2.578 2.224 0 4.317.915 5.894 2.578 3.284 3.46 3.284 9.09 0 12.55L29.219 33.986 16.214 20.284c-3.285-3.46-3.285-9.09 0-12.55z"/><path d="M26.64 24.063h-1.718v1.718h1.719v-1.718zM30.078 24.063H28.36v1.718h1.72v-1.718zM33.516 24.063h-1.72v1.718h1.72v-1.718z"/></symbol>
  <symbol id="commission" viewBox="0 0 55 52"><path d="M37.813 44.688H25.277l1.11-1.051a.78.78 0 000-1.149l-10.312-9.75a.882.882 0 00-.607-.238H2.579v-1.625H.858V45.5h1.72v-1.625h7.427l9.216 7.129a.89.89 0 00.544.184h18.047c.474 0 .859-.364.859-.813V45.5c0-.45-.385-.813-.86-.813zm-.86 4.874h-16.88l-9.216-7.128a.89.89 0 00-.544-.184H2.577v-8.125h12.535l9.453 8.938-2.222 2.1-4.549-4.3-1.215 1.149 5.156 4.875a.883.883 0 00.608.238c.22 0 .44-.08.607-.238l.608-.575h13.394v3.25z"/><path d="M52.422 37.525V29.25c0-6.273-5.397-11.375-12.031-11.375-6.635 0-12.032 5.102-12.032 11.375v8.275c-.997.336-1.718 1.23-1.718 2.288 0 1.343 1.156 2.437 2.578 2.437h22.343c1.422 0 2.579-1.094 2.579-2.438 0-1.057-.721-1.951-1.72-2.287zm-.86 3.1H29.22c-.474 0-.86-.364-.86-.813 0-.448.386-.812.86-.812h2.578v-1.625h-1.719V29.25c0-5.376 4.626-9.75 10.313-9.75 5.686 0 10.312 4.374 10.312 9.75v8.125h-1.719V39h2.578c.474 0 .86.364.86.813 0 .448-.386.812-.86.812z"/><path d="M40.39 26c.949 0 1.72.729 1.72 1.625h1.718c0-1.51-1.1-2.771-2.578-3.135v-1.74h-1.719v1.74c-1.478.364-2.578 1.625-2.578 3.135 0 1.792 1.542 3.25 3.438 3.25.948 0 1.718.729 1.718 1.625s-.77 1.625-1.718 1.625-1.72-.729-1.72-1.625h-1.718c0 1.51 1.1 2.771 2.578 3.135v1.74h1.719v-1.74c1.478-.364 2.578-1.625 2.578-3.135 0-1.792-1.542-3.25-3.437-3.25-.948 0-1.72-.729-1.72-1.625S39.444 26 40.392 26zM45.547 16.25H43.35l2.142-5.401a.782.782 0 00-.204-.867.9.9 0 00-.92-.173l-3.977 1.504-3.978-1.505a.898.898 0 00-.92.174.782.782 0 00-.204.866l2.143 5.402h-2.198v1.625H45.547V16.25zm-6.28 0L37.581 12l2.49.942a.9.9 0 00.639 0l2.49-.941-1.686 4.25h-2.247zM14.61 26.813c2.656 0 5.22-.717 7.445-2.078l5.114 2.014a.886.886 0 00.939-.175.78.78 0 00.185-.887l-2.13-4.835c1.438-2.104 2.196-4.528 2.196-7.04 0-7.167-6.168-13-13.75-13-7.581 0-13.75 5.833-13.75 13 0 7.168 6.169 13 13.75 13zm0-24.375c6.634 0 12.03 5.102 12.03 11.374 0 2.328-.745 4.57-2.154 6.485a.778.778 0 00-.088.777l1.505 3.416-3.613-1.423a.896.896 0 00-.822.084 12.434 12.434 0 01-6.859 2.037c-6.634 0-12.03-5.103-12.03-11.375 0-6.273 5.396-11.376 12.03-11.376z"/><path d="M10.313 13c1.895 0 3.437-1.458 3.437-3.25S12.208 6.5 10.312 6.5c-1.895 0-3.437 1.458-3.437 3.25S8.417 13 10.313 13zm0-4.875c.947 0 1.718.729 1.718 1.625s-.77 1.625-1.719 1.625c-.947 0-1.718-.729-1.718-1.625s.77-1.625 1.719-1.625zM18.906 14.625c-1.895 0-3.437 1.458-3.437 3.25s1.542 3.25 3.437 3.25c1.896 0 3.438-1.458 3.438-3.25s-1.542-3.25-3.438-3.25zm0 4.875c-.948 0-1.718-.729-1.718-1.625s.77-1.625 1.718-1.625 1.719.729 1.719 1.625-.77 1.625-1.719 1.625zM7.124 19.737L20.872 6.74l1.215 1.15L8.339 20.885l-1.215-1.149z"/></symbol>
  <symbol id="tax" viewBox="0 0 52 52"><path d="M4.194 28.517H19.29a.838.838 0 00.839-.84V15.937a.838.838 0 00-.839-.839H4.194a.838.838 0 00-.84.839v11.742c0 .463.376.838.84.838zm.838-11.742h13.42v10.064H5.032V16.775zM6.71 5.032h10.064V6.71H6.71V5.032zM6.71 8.388h10.064v1.677H6.71V8.388zM7.548 30.194H4.194a.839.839 0 00-.84.839v3.354c0 .463.376.84.84.84h3.354a.838.838 0 00.84-.84v-3.354a.839.839 0 00-.84-.84zm-.838 3.355H5.032V31.87H6.71v1.678zM13.42 30.194h-3.355a.839.839 0 00-.84.839v3.354c0 .463.376.84.84.84h3.354a.838.838 0 00.84-.84v-3.354a.839.839 0 00-.84-.84zm-.84 3.355h-1.677V31.87h1.678v1.678zM7.548 36.903H4.194a.839.839 0 00-.84.839v3.355c0 .463.376.839.84.839h3.354a.839.839 0 00.84-.84v-3.354a.839.839 0 00-.84-.839zm-.838 3.355H5.032v-1.677H6.71v1.677zM13.42 36.903h-3.355a.839.839 0 00-.84.839v3.355c0 .463.376.839.84.839h3.354a.839.839 0 00.84-.84v-3.354a.839.839 0 00-.84-.839zm-.84 3.355h-1.677v-1.677h1.678v1.677zM7.548 43.613H4.194a.838.838 0 00-.84.839v3.355c0 .463.376.838.84.838h3.354a.838.838 0 00.84-.838v-3.355a.838.838 0 00-.84-.839zm-.838 3.355H5.032v-1.677H6.71v1.677zM13.42 43.613h-3.355a.838.838 0 00-.84.839v3.355c0 .463.376.838.84.838h3.354a.838.838 0 00.84-.838v-3.355a.838.838 0 00-.84-.839zm-.84 3.355h-1.677v-1.677h1.678v1.677z"/><path d="M43.613 31.871h-13.42V14.258a.838.838 0 00-.838-.838h-5.871V9.226a.838.838 0 00-.839-.839H20.13V.84a.839.839 0 00-1.303-.698l-2.052 1.367-2.05-1.367a.838.838 0 00-.93 0l-2.052 1.367L9.692.141a.838.838 0 00-.93 0L6.71 1.508 4.659.141A.837.837 0 003.355.84v7.548H.839a.838.838 0 00-.839.84V51.16c0 .463.375.84.839.84H43.612a2.52 2.52 0 002.517-2.517V34.387a2.52 2.52 0 00-2.516-2.516zm.839 2.516v.84h-26.84v-.84a.84.84 0 01.84-.838h25.16a.84.84 0 01.84.838zm-26.84 2.517h26.84v1.677h-26.84v-1.678zm10.904-21.807v16.774H26.84V16.774H25.16v15.097h-1.677V15.097h5.032zm-6.71-5.032v1.677H20.13v-1.677h1.677zM6.244 3.215a.838.838 0 00.93 0l2.052-1.368 2.05 1.367a.838.838 0 00.93 0l2.052-1.367 2.05 1.367a.838.838 0 00.93 0l1.214-.807v9.335H5.032V2.407l1.212.807zm-2.89 6.85v1.677H1.678v-1.677h1.678zM1.678 13.42h20.13V31.87h-3.355a2.52 2.52 0 00-2.517 2.516v15.097c0 .295.06.575.155.839H1.677V13.42zm41.936 36.903H18.452a.84.84 0 01-.84-.839v-9.226h26.84v9.226a.84.84 0 01-.84.839z"/><path d="M39.42 41.935c-.592 0-1.17.16-1.678.458a3.318 3.318 0 00-1.677-.458 3.358 3.358 0 00-3.355 3.355 3.358 3.358 0 003.355 3.355c.59 0 1.169-.16 1.677-.457a3.317 3.317 0 001.677.457 3.358 3.358 0 003.355-3.355 3.358 3.358 0 00-3.355-3.355zm0 5.033c-.407 0-.803-.155-1.117-.437a.837.837 0 00-1.122 0c-.314.282-.71.437-1.116.437a1.68 1.68 0 01-1.678-1.678 1.68 1.68 0 011.678-1.677c.406 0 .802.155 1.116.437a.837.837 0 001.122 0c.314-.282.71-.437 1.116-.437a1.68 1.68 0 011.678 1.677 1.68 1.68 0 01-1.678 1.678zM41.097 0c-6.012 0-10.904 4.891-10.904 10.903 0 6.012 4.892 10.903 10.904 10.903S52 16.916 52 10.903C52 4.891 47.109 0 41.097 0zM31.87 10.903c0-2.242.806-4.298 2.14-5.9l3.77 3.77a3.338 3.338 0 002.93 2.93l2.031 2.032a1.68 1.68 0 01-1.645 1.362 1.68 1.68 0 01-1.678-1.678h-1.677a3.351 3.351 0 002.516 3.236v1.797h1.677v-1.797a3.347 3.347 0 002.092-1.635l2.97 2.969a9.187 9.187 0 01-5.9 2.14c-5.087 0-9.226-4.139-9.226-9.226zm16.311 5.9l-3.769-3.77a3.338 3.338 0 00-2.93-2.93l-2.032-2.031a1.68 1.68 0 011.646-1.362 1.68 1.68 0 011.677 1.677h1.678a3.351 3.351 0 00-2.517-3.236V3.355h-1.677V5.15a3.347 3.347 0 00-2.092 1.636l-2.969-2.97a9.187 9.187 0 015.9-2.14c5.087 0 9.226 4.14 9.226 9.226a9.187 9.187 0 01-2.14 5.9z"/></symbol>
  <symbol id="transfer" viewBox="0 0 52 49"><path d="M25.9999 6.31323c-5.3053 0-10.1344 1.9561-13.7196 5.14227-.0504.0344-.0987.0728-.1432.1166-.0244.0241-.0472.049-.0685.0747-3.74805 3.4292-6.08111 8.2244-6.08111 13.5242 0 10.3983 8.97741 18.8578 20.01231 18.8578 11.0348 0 20.0124-8.4595 20.0124-18.8578 0-10.3982-8.9775-18.85777-20.0123-18.85777zm-.0001 1.952c1.4029 0 2.9278 1.72154 4.079 4.60507 1.2141 3.0409 1.9207 7.0315 2.0139 11.3244H21.7724c-.5721 0-1.0359.437-1.0359.9761 0 .5391.4639.9763 1.036.9763h10.3203c-.052 2.397-.2952 4.6995-.7114 6.7952-1.7348-.4552-3.5426-.6918-5.3815-.6918-1.8395 0-3.647.2365-5.3816.6914-.4723-2.3787-.7223-5.0238-.7223-7.771 0-2.7144.2443-5.3289.7057-7.6855 1.7382.457 3.551.6945 5.3981.6945.9246 0 1.8547-.0601 2.7644-.1786.5667-.0738.9626-.5665.8843-1.1006-.0784-.5341-.602-.9075-1.1679-.8332-.8161.1063-1.6507.1601-2.4808.1601-1.699 0-3.3656-.2239-4.9609-.6547.2544-.9632.549-1.8688.8819-2.7026 1.1513-2.88363 2.6762-4.60507 4.079-4.60507zm-4.1141.44939c-.7062.91334-1.3475 2.07518-1.9038 3.46848-.3395.8504-.6416 1.7684-.9046 2.7409-1.6675-.6571-3.2295-1.5543-4.6348-2.6721 2.1191-1.686 4.6565-2.91882 7.4432-3.53728zM8.08986 26.1471h2.59734c.5721 0 1.0358-.437 1.0358-.9761 0-.5391-.4637-.9761-1.0358-.9761H8.08986c.24809-4.0859 2.04294-7.7875 4.84024-10.5921 1.7083 1.3908 3.6306 2.4852 5.6905 3.2547-.5204 2.5492-.7962 5.3811-.7962 8.3134 0 2.9643.282 5.8258.8135 8.3965-2.0469.7627-3.9587 1.8463-5.659 3.221-2.8254-2.8103-4.6394-6.5314-4.88904-10.6413zm6.40834 11.9876c1.3966-1.1012 2.9474-1.9863 4.6013-2.6356.2579.9423.5523 1.8332.8824 2.6599.5563 1.3932 1.1976 2.5552 1.9038 3.4685-2.7622-.6131-5.2796-1.8295-7.3875-3.4928zm11.5017 3.942c-1.4027 0-2.9277-1.7215-4.079-4.605-.3233-.8098-.6105-1.687-.8598-2.6192 1.5897-.4277 3.2493-.6497 4.9388-.6497 1.689 0 3.3488.222 4.9389.6499-.2493.9321-.5366 1.8092-.8599 2.619-1.1512 2.8836-2.6761 4.605-4.079 4.605zm4.1142-.4492c.7063-.9133 1.3476-2.0752 1.9039-3.4684.3301-.8267.6245-1.7176.8823-2.6599 1.6539.6493 3.2049 1.5344 4.6015 2.6353-2.1079 1.6634-4.6254 2.8799-7.3877 3.493zm8.9065-4.8386c-1.6999-1.3744-3.6119-2.4578-5.6587-3.2205.473-2.2876.7483-4.8055.8032-7.4212H43.91c-.2497 4.1099-2.0638 7.8312-4.8894 10.6417zm-4.8555-12.594c-.095-4.5258-.8487-8.7602-2.1471-12.0119-.5562-1.3932-1.1976-2.55514-1.9039-3.46838 2.7563.61172 5.269 1.82418 7.3741 3.48208-.8625.6923-1.7922 1.3076-2.7758 1.8343-.4973.2664-.6713.8622-.3887 1.3309.1909.3165.5411.494.9015.494.1735 0 .3492-.0411.5109-.1276 1.1641-.6234 2.2599-1.359 3.2706-2.1893 2.8336 2.8121 4.6533 6.5391 4.9033 10.6559h-9.7449z"/><path d="M15.948 24.1949h-2.1607c-.5721 0-1.0359.437-1.0359.9761 0 .5391.4638.9761 1.0359.9761h2.1607c.5721 0 1.0358-.437 1.0358-.9761 0-.5391-.4637-.9761-1.0358-.9761z"/><path d="M50.0481 18.8393c.5437-.168.8397-.7195.6614-1.2317-1.6937-4.8647-4.9127-9.0483-9.3092-12.0986C36.9134 2.39614 31.588.750732 26 .750732c-6.9448 0-13.474 2.548388-18.3848 7.175868C2.70441 12.5541 0 18.7066 0 25.2507c0 3.363.710183 6.6215 2.11087 9.6853 1.24499 2.7232 2.98244 5.1798 5.1682 7.3144-.37208.5925-.5865 1.2828-.5865 2.0197 0 2.1942 1.89437 3.9792 4.22273 3.9792 2.3284 0 4.2228-1.7851 4.2228-3.9792 0-2.194-1.8944-3.9791-4.2228-3.9791-.7964 0-1.54194.2091-2.17837.5717-4.30367-4.218-6.66522-9.7317-6.66522-15.612C2.07171 12.8178 12.8059 2.70292 26 2.70292c10.3716 0 19.5106 6.23433 22.741 15.51318.1784.5124.7637.7913 1.3071.6232zM10.9153 42.2431c1.1862 0 2.1511.9093 2.1511 2.027 0 1.1177-.9649 2.0269-2.1511 2.0269-1.18612 0-2.15102-.9092-2.15102-2.0269 0-1.1178.9649-2.027 2.15102-2.027zM51.7249 21.6743c-.0829-.5334-.6094-.9028-1.1749-.8245-.5661.078-.9578.5737-.875 1.1071.168 1.0826.2533 2.1908.2533 3.2938 0 .539.4639.976 1.0359.976.572 0 1.0358-.437 1.0358-.976 0-1.1972-.0926-2.4005-.2751-3.5764z"/></symbol>
</svg>
