<?xml version="1.0" standalone="no"?>
<!DOCTYPE svg PUBLIC "-//W3C//DTD SVG 20010904//EN"
 "http://www.w3.org/TR/2001/REC-SVG-20010904/DTD/svg10.dtd">
<svg version="1.0" xmlns="http://www.w3.org/2000/svg"
 width="700.000000pt" height="700.000000pt" viewBox="0 0 700.000000 700.000000"
 preserveAspectRatio="xMidYMid meet">
<metadata>
Created by potrace 1.11, written by Peter Selinger 2001-2013
</metadata>
<g transform="translate(0.000000,700.000000) scale(0.100000,-0.100000)"
fill="#000000" stroke="none">
<path d="M2529 6993 c-1 -5 -2 -199 -2 -433 l-2 -425 -765 -1 c-421 -1 -773
-2 -782 -3 -16 -1 -17 -27 -17 -361 0 -273 3 -360 12 -361 7 -1 77 -2 157 -4
241 -5 296 -15 364 -68 50 -40 73 -94 82 -192 9 -103 9 -3185 0 -3290 -12
-147 -73 -221 -203 -245 -37 -8 -144 -14 -238 -14 l-170 -1 -2 -362 c-2 -334
-1 -361 15 -365 9 -2 355 -3 767 -2 413 1 757 0 766 -2 13 -4 15 -53 15 -434
l-1 -430 368 0 367 0 1 28 c0 15 1 209 2 432 l2 405 235 0 235 0 2 -420 c1
-231 2 -426 2 -433 1 -10 78 -12 368 -10 l367 3 0 452 c0 312 3 453 10 454 6
0 20 2 31 4 11 2 40 7 65 10 354 49 700 191 945 388 108 87 251 250 322 367
64 105 142 293 159 384 24 125 31 207 28 331 -3 147 -6 173 -30 270 -49 198
-130 358 -257 510 -131 156 -305 275 -527 361 -105 40 -259 89 -314 100 -47 8
-45 18 7 33 52 16 105 39 222 98 316 158 547 415 654 728 73 214 75 482 5 699
-101 316 -346 586 -669 736 -49 23 -99 46 -110 50 -11 4 -33 13 -48 19 -34 13
-246 68 -297 76 -19 3 -46 7 -60 10 -14 3 -47 7 -75 11 -27 3 -52 8 -55 9 -3
2 -6 204 -5 449 l0 446 -367 0 c-344 0 -368 -1 -369 -17 0 -10 -1 -205 -2
-433 l-2 -415 -235 0 -235 0 -2 415 c0 228 -1 423 -2 433 -1 16 -25 17 -366
17 -201 0 -365 -3 -366 -7z m1241 -1717 c69 -4 141 -9 160 -12 34 -4 130 -17
140 -19 275 -57 436 -207 487 -454 19 -91 13 -227 -12 -315 -35 -121 -124
-239 -236 -315 -58 -38 -195 -98 -249 -108 -14 -2 -43 -8 -65 -13 -128 -28
-284 -37 -715 -39 l-395 -2 1 634 c0 348 3 638 6 643 7 11 683 11 878 0z m90
-2059 c19 -4 58 -8 85 -11 229 -23 417 -99 534 -216 75 -75 79 -81 108 -135
59 -113 83 -214 83 -356 0 -287 -141 -533 -384 -669 -87 -48 -245 -91 -391
-106 -38 -4 -83 -8 -100 -10 -50 -6 -738 -5 -770 1 -91 16 -121 54 -131 166
-7 75 -13 1314 -6 1335 3 12 901 12 972 1z"/>
</g>
</svg>
