<svg xmlns="http://www.w3.org/2000/svg" fill="none" viewBox="0 0 126 41">
  <defs/>
  <path fill="#000" d="M99.572 9.46v11.908c0 1.298.205 2.415.615 3.352.419.937.997 1.707 1.734 2.312.746.594 1.631 1.036 2.657 1.325 1.026.279 2.155.42 3.384.42 1.286 0 2.466-.15 3.538-.447a8.665 8.665 0 001.715-.685c.174.226.381.347.646.325l.079-.006.046-.063c.144-.197.257-.552.397-1.036a6.5 6.5 0 001.746-2.306c.032-.072.063-.148.094-.223l.066.104c.296.443.537.876.905 1.535.275.495.619 1.11 1.099 1.932l.028.047.049.023a.64.64 0 00.257.06c.294 0 .473-.255.569-.392l.034-.048.007-.033c.277-1.31.007-2.578-.253-3.806a25.333 25.333 0 01-.246-1.266c-.183-1.105-.795-2.847-.954-3.292.08.005.123-.196.231-.28.808-.643-.465-1.704-1.225-2.329.033.083.064.16-.003-.003-.065-.169-.033-.09 0-.007v-7.12h-4.126v2.635a14.09 14.09 0 00-3.622-1.198l-.249-.046.051.241c.002.007.144.684.315 1.373.186.653.316 1.078.448 1.514.09.3.184.608.299 1 .203-.764.94-1.33 1.819-1.33 1.038 0 1.878.786 1.878 1.756 0 .65-.378 1.216-.941 1.52V19.7a4.534 4.534 0 00-.899.481c-.024.015-.043.032-.063.048a34.552 34.552 0 01-.515-2.18 12.67 12.67 0 00-.289-1.067 1.874 1.874 0 01-.443-.284c.149.479.287.948.359 1.242l-1.009 1.15c-.47.482-.619 1.027-.408 1.498.232.52.868.83 1.634.788.091.408.395.765.883 1.048l.02.084c.091.385.157.7.209.965a3.693 3.693 0 01-.766 1.048c-.4.386-.886.675-1.455.864-.56.18-1.175.27-1.847.27a5.986 5.986 0 01-1.804-.255 3.599 3.599 0 01-1.385-.825c-.383-.378-.675-.856-.881-1.433-.205-.584-.307-1.278-.307-2.082V9.46h-4.121zm17.979 9.1l-.265-.697c.197.229.583.473.265.698zm-.764-1.049c.058.148.113.295.168.433a6.68 6.68 0 00-.168-.119v-.314zm0 3.654v-.924c.267-.181.539-.459.737-.758.217.62.716 2.09.877 3.057.067.426.159.86.248 1.282.251 1.185.511 2.411.26 3.642-.137.195-.219.267-.349.229-.463-.795-.797-1.394-1.067-1.876-.371-.664-.615-1.104-.915-1.553a11.989 11.989 0 00-.208-.32c.277-.816.417-1.741.417-2.779zm-2.866 6.048a2.888 2.888 0 01-.167.423.437.437 0 01-.242-.16 7.19 7.19 0 00.409-.263zm-2.666-6.515l-.116.044c-.152.061-.296.12-.455.12a.668.668 0 01-.318-.084c-.131-.069-.229-.171-.258-.274-.051-.175.036-.38.099-.53.13-.304.359-.569.568-.787.07-.073.144-.172.209-.258l.03-.041c.122.524.265 1.087.414 1.65a.817.817 0 01-.173.16zm1.184 1.976c-.023.078-.041.159-.067.235a24.99 24.99 0 01-.065-.291l.132.056z"/>
  <path fill="#000" d="M116.79 16.59c-.001-.004-.001-.007-.003-.009v.006c.002 0 .002 0 .003.002zM53.066 27.545c1.259.486 2.76.73 4.504.73 1.053 0 2.047-.09 2.979-.27.942-.18 1.809-.42 2.6-.717a12.502 12.502 0 002.14-1.055 9.868 9.868 0 001.622-1.27v-7h-5.98c-.06-.483-.14-1.05-.228-1.593l1.648-2.27c.13.209.243.424.337.645l3.804-1.109a7.307 7.307 0 00-1.174-2.04 6.33 6.33 0 00-1.377-1.281l.02-.043.004-.008-.002-.009c-.145-.667-1.802-1.16-2.462-1.161h-.013l-.009.011c-.014.018-.022.035-.034.051a12.413 12.413 0 00-.477-.127c-.961-.234-2.06-.352-3.3-.352-.79 0-1.529.051-2.225.15v-.016l-.017-.007a1.094 1.094 0 00-.414-.064c-.793 0-2.057.443-2.387.76l-.008.008v.012c-.002.03 0 .056 0 .084-.999.432-1.852 1-2.557 1.71-.829.838-1.45 1.856-1.86 3.054-.41 1.198-.616 2.542-.616 4.027 0 1.433.192 2.754.573 3.96a8.414 8.414 0 001.804 3.136c.81.875 1.845 1.559 3.105 2.054zm7.835-6.636c.019.162.046.345.075.549.077.532.165 1.135.142 1.498-.032.516-.15.7-.24.7-.16 0-.533-.29-1.056-1.103a6.148 6.148 0 01-.446-.877 6.08 6.08 0 00-.381-.765H60.9v-.002zm-3.28-7.912c0-.778.674-1.41 1.503-1.41.614 0 1.143.346 1.375.841.164.081.322.167.467.263.294.184.55.392.776.623-.323.671-.658 1.142-1.282 1.805l-.005-.02c-.053-.217-.29-.66-.42-.985a1.555 1.555 0 01-.46.225l.011.003c.156.178.479.588.537.831.187.774.35 1.91.464 2.788h-2.263v2.226a.696.696 0 00-.37-.108c-.305 0-.6.195-.82.367l-.02.018c-.322.346-.67.746-1.007 1.13-.283.325-.551.63-.794.896-.651.733-1 .812-1.12.812h-.02c.124-.613.218-1.253.31-1.872.112-.754.218-1.466.372-2.13.089-.72.344-1.818.533-2.59.04.02.08.03.122.03.4 0 .489-.86.489-1.16 0-.14-.014-.255-.04-.342a.417.417 0 00-.068-.137c.157-.174.371-.34.62-.534.119-.093.244-.19.372-.294.203-.167.64-.33.887-.41.03-.005.058-.012.087-.015l.095.026a1.337 1.337 0 01-.33-.877zm-2.61-.71c.54-.229 1.154-.373 1.84-.437-.114.23-.23.456-.351.69-.337.65-.684 1.324-.98 2.187-.342-.739-.552-1.613-.679-2.366.057-.025.111-.052.17-.075zm-2.924 3.405c.232-.811.591-1.505 1.077-2.082.25-.297.535-.559.855-.783.05.456.11.915.186 1.313.178.841.5 1.55.934 2.051l.003.003.007.034.005.02c-.191.751-.527 2.128-.633 2.994-.153.66-.261 1.38-.374 2.14-.1.662-.2 1.348-.337 1.994l-.024.11.1.062c.391.24.972-.04 1.684-.841.244-.266.513-.573.797-.9.331-.38.675-.772.991-1.111.176-.136.402-.286.597-.286.085 0 .164.03.241.093.046.038.089.075.13.113v.293h.26c.2.27.332.567.477.896.132.299.268.608.47.922.537.834.99 1.257 1.344 1.257.518 0 .566-.758.581-1.008.024-.396-.064-1.016-.143-1.563-.026-.178-.051-.352-.07-.502h1.89v2.635c-.242.207-.553.41-.936.608-.373.189-.797.36-1.272.514a11.64 11.64 0 01-1.524.352c-.55.091-1.123.136-1.72.136-1.016 0-1.898-.167-2.643-.5a5.088 5.088 0 01-1.86-1.392c-.486-.595-.849-1.307-1.092-2.135-.232-.83-.349-1.739-.349-2.73-.001-1.003.115-1.905.348-2.707z"/>
  <path fill="#E40E20" d="M111.724 17.161c.342 0 .662-.087.939-.236.561-.304.941-.87.941-1.52 0-.97-.842-1.757-1.878-1.757-.879 0-1.616.567-1.819 1.33-.036.137-.058.28-.058.427 0 .51.234.97.607 1.29a1.935 1.935 0 001.268.466zM59.125 14.405a1.535 1.535 0 00.91-.29 1.38 1.38 0 00.593-1.118c0-.202-.047-.395-.129-.569-.232-.495-.76-.84-1.374-.84-.831 0-1.503.63-1.503 1.409 0 .332.123.638.33.879.275.322.697.529 1.173.529z"/>
  <path fill="#000" d="M19.935 27.843a6.17 6.17 0 001.307-.643c.099.018.212.002.307-.053.1-.056.166-.14.189-.238.006-.028.008-.056.013-.084.093-.078.183-.157.269-.24.57-.55.997-1.211 1.285-1.986.29-.783.435-1.657.435-2.622V8.96h-8.042v1.881c-.055.154-.11.314-.164.478-.14.413-.287.84-.445 1.216-.222.525-.478 1.05-.726 1.556-.228.466-.464.947-.672 1.428a56.79 56.79 0 00-.65 1.596l-.015.014.007.006-.252.643c-.229.106-.64.286-.889.354-.133.036-.285.078-.419.064a1.302 1.302 0 01-.638-.224c-.24-.176-.398-.46-.55-.734l-.033-.053c-.169-.302-.381-.92-.448-1.119.192-.158.322-.342.404-.573.15-.423.22-.74.256-1.17.009-.091.09-.222.164-.339.123-.198.252-.403.177-.605-.045-.119-.153-.208-.32-.264-.25-.084-.765.246-.934.596-.02.042-.053.13-.087.223a.553.553 0 01-.02.055c-.156-.202-.322-.572-.421-.796-.04-.09-.075-.17-.106-.232-.02-.043-.045-.1-.07-.163-.127-.311-.284-.698-.597-.637a.322.322 0 00-.222.157c-.098.172-.064.466.102.871.11.268.192.546.231.71-.752-.93-1.111-1.244-1.366-1.206a.259.259 0 00-.207.179c-.135.38.23.81.554 1.188.142.167.304.357.328.45.004.013.005.023.007.033a.664.664 0 01-.238-.144c-.482-.413-.899-.524-1.12-.296a.27.27 0 00-.082.216c.016.164.17.275.423.457.272.195.644.464 1.009.907.294.339.684.421 1.097.509.072.015.147.031.22.048l.006.018c.009.028.209.7.373 1.03.183.366.405.784.73 1.115.217.221.463.388.713.482.186.071.4.106.668.106h.074c.178-.003.366-.038.56-.102.085-.028.186-.071.288-.121-.215.605-.824 2.361-.995 3.39-.03.171-.053.346-.074.521l-1.133.16c.186.982.462 1.822.826 2.514.11.202.229.39.355.57.086.539.233 1.055.49 1.415a.417.417 0 00.35.182.543.543 0 00.303-.096c.082-.06.154-.12.217-.184.5.326 1.07.572 1.711.736.773.198 1.655.297 2.644.297 1.075.002 2.023-.142 2.843-.431zm-.307-6.691l-.018-.058c-.165-.616-.26-1.258-.345-1.882l.363.243v1.697zm-6.666-2.135v.05c-.003-.029-.005-.055 0-.05zm-.643 8.145a.193.193 0 01-.116.03c-.015-.003-.032-.009-.053-.037a2.226 2.226 0 01-.29-.64c.18.19.372.361.578.518l.02.015a1.638 1.638 0 01-.139.114zm2.372-3.55c-.167-.368-.297-.82-.391-1.351l-2.613.37c.017-.14.036-.281.058-.42.198-1.2.997-3.38 1.004-3.4.025.16.162.254.213.302h.002c.2-.002.354-.179.46-.53.074-.245.118-.558.118-.835 0-.246-.034-.425-.1-.539.29-.25.856-.724 1.22-.94.342-.203.978-.455 1.178-.532a1.67 1.67 0 01-.357-1.028c0-.97.841-1.757 1.877-1.757.146 0 .286.017.42.046-.003-.034-.032-.307-.2-.781l-.049-.134h2.097v6.324c-.28-.24-.525-.474-.563-.509a10.153 10.153 0 00-.13-.626c-.077-.324-.395-.749-.597-.997l-.012-.064a1.845 1.845 0 01-.352.154c.193.224.56.694.628.98.143.595.227 1.204.307 1.794.093.671.189 1.364.37 2.036.106.392.22.772.34 1.144-.034.869-.244 1.548-.636 2.034-.104.134-.222.25-.352.348-.532-.499-1.107-.931-1.796-1.115a2.446 2.446 0 00-1.667.152c-.11.055-.214.117-.313.184a3.538 3.538 0 01-.164-.31zm1.426 1.392a2.3 2.3 0 01-.824-.5 2.678 2.678 0 01-.253-.302c.09-.062.185-.12.284-.168a2.12 2.12 0 011.422-.127c.592.158 1.108.537 1.59.981-.338.175-.74.265-1.21.265a3.27 3.27 0 01-1.009-.15zM82.658 28.005v-7.232h4.839l4.574 7.232h4.642l-5.328-8.002a6.29 6.29 0 001.734-.675 5.27 5.27 0 001.371-1.162c.392-.46.694-.982.91-1.568a5.518 5.518 0 00.335-1.96c0-.874-.154-1.658-.462-2.352a4.48 4.48 0 00-1.371-1.784c-.616-.496-1.385-.875-2.307-1.136-.915-.27-1.987-.405-3.216-.405h-9.846v8.147c-.006.035-.015.068-.022.104a5.475 5.475 0 01-.131-.82c-.05-.607-.226-.928-.508-.928a.315.315 0 00-.087.012c-.317.08-.283.515-.254.862.006.071.012.137.012.189 0 .072.006.163.01.267.013.265.035.706-.022.967l-.058-.055c-.077-.072-.15-.142-.19-.173-.237-.187-.58-.253-.803-.253-.168 0-.287.035-.358.103-.13.125-.19.256-.174.386.024.222.243.357.455.49.132.082.27.166.321.25.242.392.46.662.806.997.126.122.285.213.44.302.126.073.245.143.338.222.025.218.058.676-.024.882-.043.11-.116.197-.19.228-.118.05-.31.015-.503-.033-.323-.082-.619-.266-.894-.446-.366-.24-.97-.8-1.15-.968a12.657 12.657 0 00-.138-.665c-.088-.366-.383-.986-.535-1.284a2.115 2.115 0 01-.28.144c.176.283.412.917.484 1.215.032.139.061.277.09.416l.117.704.09.565.031.217c.098.709.198 1.443.392 2.155.514 1.903 1.183 3.589 1.985 5.005.258.458.328.719.265.998-.002.005-.01.02-.034.033-.031.018-.067.022-.084.018-.78-.221-1.438-.895-2.136-1.61-.362-.37-.733-.746-1.13-1.07V23.88h-1.51a6.45 6.45 0 00-1.344-.28c-.102-.007-.224 0-.354.01a3.752 3.752 0 01-.275.014.798.798 0 01-.316-.05l-.023-.008c-.003-.001-.352-.097-.738-.312-.245-.137-.378-.203-.491-.26-.154-.077-.267-.133-.597-.342-.145-.092-.42-.444-.521-.593-.11-.347-.21-.69.37-1.231.24-.225.415-.246.478-.246l.05.005c.112 0 .323-.045.458-.339.072-.157.112-.364.112-.58 0-.398-.126-.676-.328-.752.318-.273.884-.742 1.254-.962.348-.206 1.07-.499 1.338-.606a1.639 1.639 0 01-.388-1.051c0-.97.869-1.757 1.94-1.757.151 0 .3.019.442.048a6.058 6.058 0 00-.246-.917c-.082-.23-.503-1.395-.746-1.83-.047-.085-.094-.188-.14-.287-.135-.296-.23-.509-.429-.512-.116.005-.197.063-.262.192-.198.39-.38.923-.574 1.489-.149.438-.305.889-.47 1.287-.235.557-.508 1.112-.772 1.649-.24.492-.49 1.001-.712 1.512a57.95 57.95 0 00-.69 1.694l-.017.015.009.008-.07.183c-.012.062-.035.076-.08.116-.151.172-.084.086-.228.25a1.33 1.33 0 01-.325.32 2.596 2.596 0 00-.593.54c-.217.28-.356.544-.424.809-.096.371-.103.722-.017 1.014.11.382.294.845.707 1.116-.05.325-.102.636-.145.899-.108.646-.321 1.303-.547 2l-.144.444a8.782 8.782 0 01-.362.869c-.436.962-.93 2.052-.197 2.366.072.032.14.045.205.045.245 0 .45-.189.664-.387.12-.109.24-.223.386-.325.371-.261.628-.536.876-.8.128-.137.261-.28.41-.42.402-.38.85-.783 1.332-1.14V28h4.042v-1.03c.305.268.595.566.883.858.73.747 1.419 1.453 2.286 1.699a.474.474 0 00.354-.05.38.38 0 00.193-.246c.096-.417-.045-.777-.298-1.226-.788-1.393-1.446-3.052-1.954-4.931-.18-.666-.279-1.36-.371-2.035l.985.66c.359.226.733.345 1.082.345.262 0 .505-.066.715-.19v6.144h4.12v.007zm0-15.948h5.287c1.166 0 2.06.224 2.684.675.635.452.95 1.14.95 2.068 0 .423-.07.811-.21 1.161-.14.352-.353.658-.642.92-.28.252-.643.45-1.091.594-.438.136-.965.203-1.58.203h-5.398v-5.621zM70.617 26.384c-.577.4-1.105.872-1.57 1.313a8.242 8.242 0 00-.424.435c-.246.263-.479.512-.823.754-.162.115-.299.24-.42.353-.258.238-.375.33-.496.28-.422-.18.036-1.194.371-1.932.15-.332.292-.646.374-.906l.142-.441c.231-.709.448-1.38.56-2.05l.124-.768c1.04.569 1.74.891 1.963.99.033.154.023.255.01.36a.937.937 0 00.084.584c.038.097.072.195.106.29v.738h-.001zM40.521 16.327c-.313-.974-1.096-2.06-1.501-2.499.302-.539.063-1.15-.057-1.39-.18-.34-.289-.628-.369-.838-.11-.29-.17-.45-.306-.45a.207.207 0 00-.06.01c-.181.057-.21.351-.078.764.047.15.05.283.005.34-.035.047-.098.036-.173-.024-.082-.064-.17-.238-.262-.421-.167-.333-.357-.71-.632-.734-.06-.007-.091.021-.106.044-.103.164.194.757.499 1.318l.058.107c-.008.043-.032.063-.072.063a.17.17 0 01-.061-.013 1.988 1.988 0 01-.303-.223c-.128-.344-.33-.87-.465-1.11-.038-.065-.072-.142-.106-.216-.104-.23-.188-.411-.364-.415-.07-.01-.166.027-.238.169-.154.3-.292.709-.44 1.14-.052.157-.107.316-.164.473-.015-.045-.05-.071-.106-.071-.246 0-.906.524-1.188.748a2.482 2.482 0 01-.097.076c-.03 0-.05-.008-.064-.023-.02-.025-.02-.064-.013-.094.015-.073.184-.39.374-.661.104-.149.274-.423.227-.582a.14.14 0 00-.136-.104c-.137 0-.282.207-.4.374-.033.046-.065.09-.091.122-.034.043-.077.1-.123.162-.183.245-.458.61-.653.67-.01-.039-.023-.138-.031-.207-.01-.076-.019-.148-.027-.184-.062-.272-.363-.548-.496-.548h-.01c-.11.011-.182.046-.221.104-.069.104-.016.256.04.416.042.122.085.246.071.344a3.334 3.334 0 00-.01.942.82.82 0 00.196.454c-.046.063-.64.868-1.012 1.6V8.96H27.43V20.87c0 1.297.205 2.415.616 3.352.419.937.997 1.707 1.734 2.311.745.595 1.63 1.037 2.657 1.326 1.026.279 2.153.42 3.384.42 1.285 0 2.465-.15 3.537-.447 1.081-.305 2.015-.77 2.798-1.391a6.473 6.473 0 001.833-2.38c.44-.956.656-2.085.656-3.392V8.96H40.52v7.366h.002zm-6.173-2.796c.048-.09.206-.209.373-.334.166-.124.342-.26.464-.398l-.053.133c-.088.209-.183.415-.28.62-.049.022-.098.045-.15.073a.645.645 0 01-.277.086c-.034 0-.078-.007-.099-.038-.019-.03-.01-.08.022-.142zm-2.23 2.82c.211-.611.738-1.47.93-1.773l.071.005c.142.01.277.02.4.02.28 0 .474-.054.646-.18.137-.107.27-.195.397-.27l-.02.042c-.185.377-.375.765-.544 1.155-.149.342-.345.833-.523 1.287a.417.417 0 01-.007.007l.003.003-.212.542a9.741 9.741 0 00-.304-.028c-.296-.023-.447-.035-.802-.195a.163.163 0 01-.09-.107c-.038-.118-.01-.3.056-.508zm-.088 6.247c.003.15.01.316.022.486a4.368 4.368 0 01-.186-.445c-.206-.585-.308-1.279-.308-2.08V17.34c.359.347.805.483 1.145.483h.026c.036 0 .084.005.133.011.05.005.1.01.144.012-.09.25-.7 1.947-.856 2.89-.1.59-.137 1.2-.12 1.86zm5.75 2.285a5.99 5.99 0 01-1.845.271 5.989 5.989 0 01-1.804-.256 3.839 3.839 0 01-.63-.277c.073-.111.136-.225.2-.343.071-.133.146-.274.246-.42.05-.072.099-.145.148-.22.358-.53.727-1.08 1.273-1.348.328-.16.76-.2 1.128-.1.711.19 1.29.781 1.848 1.353.228.233.45.46.68.661-.358.29-.77.52-1.244.68zm1.495-.909a11.57 11.57 0 01-.683-.66c-.59-.605-1.202-1.23-2.005-1.445a2.014 2.014 0 00-1.375.126c-.628.309-1.023.895-1.404 1.464l-.147.218c-.11.16-.192.314-.265.45-.063.117-.12.22-.186.318a3.414 3.414 0 01-.465-.37 3.316 3.316 0 01-.28-.314 8.762 8.762 0 01-.095-1.168 9.312 9.312 0 01.116-1.803c.146-.874.717-2.487.831-2.804.014.09.04.173.076.208.042.041.087.063.131.063.231 0 .36-.592.36-1 0-.144-.018-.37-.114-.433.194-.169.734-.63 1.064-.826.275-.164.788-.367.949-.43a1.375 1.375 0 01-.265-.81c0-.798.693-1.444 1.546-1.444a1.56 1.56 0 011.393.821c.084-.014.166-.03.24-.033.116.157 1.106 1.62 1.263 2.724.06.522-.256.44-.552.44-.164 0-.433 0-.66-.057-.084-.021-.24-.025-.337-.046-.036-.204-.05-.184-.097-.387-.045-.187-.228-.558-.378-.823a1.593 1.593 0 01-.35.164c.153.216.351.547.396.733.116.481.183.974.25 1.453.075.544.152 1.105.299 1.65.34 1.258.767 2.389 1.272 3.374-.156.24-.332.456-.528.647zm1.246-3.55c0 .819-.111 1.526-.335 2.121-.056.147-.116.29-.185.425a17.215 17.215 0 01-1.144-3.1c-.142-.526-.218-1.078-.29-1.612a29.614 29.614 0 00-.05-.355c.202.037.593.098.976.098.508 0 .84-.105.985-.31.016-.022.03-.046.043-.069v2.801z"/>
  <path fill="#E40E20" d="M37.063 16.201a1.63 1.63 0 00.869-.25 1.42 1.42 0 00.677-1.194c0-.223-.056-.435-.152-.623a1.555 1.555 0 00-1.394-.822c-.853 0-1.545.647-1.545 1.445 0 .3.097.578.265.81.278.383.747.634 1.28.634zM17.36 16.465a1.989 1.989 0 00.968-.252c.546-.308.912-.865.912-1.504 0-.835-.625-1.532-1.459-1.71a1.947 1.947 0 00-.42-.047c-1.038 0-1.878.787-1.878 1.757 0 .385.133.739.357 1.028.34.44.895.728 1.52.728zM71.834 16.3c0 .395.145.759.388 1.051.354.428.917.706 1.551.706a2.109 2.109 0 001.098-.31c.508-.317.841-.845.841-1.445 0-.831-.64-1.527-1.496-1.709a2.159 2.159 0 00-.443-.048c-1.07 0-1.939.785-1.939 1.755z"/>
  <path fill="#E40E20" d="M0 0v37.416h43.053v-2.231H2.307V2.229h121.386v32.956H82.28v2.23H126V0H0z"/>
  <path fill="#000" d="M53.391 35.155c-.359-.53-.776-.758-1.456-.758-1.288 0-2.14.952-2.14 2.386 0 1.418.814 2.323 2.083 2.323.643 0 1.125-.238 1.496-.732l-.01.53c-.009.76-.18 1.227-1.079 1.227-.586 0-.88-.184-.985-.605h-1.334c.132.988.881 1.472 2.29 1.472 1.59 0 2.404-.677 2.404-2.249v-4.225h-1.269v.631zm-1.135 2.983c-.7 0-1.135-.53-1.135-1.363 0-.86.417-1.372 1.126-1.372.71 0 1.136.502 1.136 1.345-.002.858-.436 1.39-1.127 1.39zM57.054 35.393v-.87h-1.278v4.72h1.344v-2.158c0-.86.36-1.5 1.288-1.5.152 0 .284.008.52.054v-1.198c-.132-.018-.19-.028-.294-.028-.729.002-1.278.367-1.58.98zM61.672 34.388c-1.533 0-2.545.997-2.545 2.497 0 1.509 1.003 2.505 2.527 2.505 1.523 0 2.517-.988 2.517-2.505 0-1.5-.994-2.497-2.499-2.497zm-.018 4.024c-.748 0-1.184-.558-1.184-1.527 0-.942.445-1.508 1.165-1.508.747 0 1.192.558 1.192 1.5 0 .967-.435 1.535-1.173 1.535zM68.298 36.956c0 .714-.217 1.336-1.06 1.336-.766 0-.824-.476-.824-1.07v-2.698H65.06v3.173c0 1.123.653 1.682 1.703 1.682.7 0 1.221-.283 1.59-.805v.668h1.278v-4.72h-1.334v2.434zM73.447 34.397c-.624 0-1.154.228-1.515.714v-.585h-1.269v6.391h1.334v-2.259c.359.485.889.704 1.504.704 1.278 0 2.12-.97 2.12-2.45.003-1.519-.86-2.515-2.174-2.515zm-.322 3.95c-.738 0-1.173-.538-1.173-1.453 0-.916.436-1.455 1.165-1.455.72 0 1.164.549 1.164 1.473-.002.895-.438 1.436-1.156 1.436z"/>
</svg>
