<?xml version="1.0" standalone="no"?>
<!DOCTYPE svg PUBLIC "-//W3C//DTD SVG 20010904//EN"
 "http://www.w3.org/TR/2001/REC-SVG-20010904/DTD/svg10.dtd">
<svg version="1.0" xmlns="http://www.w3.org/2000/svg"
 width="700.000000pt" height="700.000000pt" viewBox="0 0 700.000000 700.000000"
 preserveAspectRatio="xMidYMid meet">
<metadata>
Created by potrace 1.11, written by Peter Selinger 2001-2013
</metadata>
<g transform="translate(0.000000,700.000000) scale(0.100000,-0.100000)"
fill="#000000" stroke="none">
<path d="M3278 6995 c-2 -1 -39 -5 -83 -9 -113 -8 -280 -33 -418 -61 -178 -36
-488 -132 -601 -186 -22 -11 -43 -19 -48 -19 -13 0 -296 -142 -378 -190 -875
-510 -1493 -1374 -1684 -2355 -30 -156 -37 -203 -53 -375 -15 -161 -8 -605 11
-707 2 -10 7 -43 10 -73 7 -62 12 -94 26 -165 6 -27 12 -59 14 -70 31 -163
115 -435 191 -620 43 -105 149 -319 208 -420 39 -68 184 -288 212 -323 7 -9
44 -56 82 -103 122 -155 292 -333 429 -450 28 -24 67 -58 86 -75 78 -67 416
-304 434 -304 2 0 23 -12 45 -26 59 -37 278 -145 389 -192 257 -109 611 -206
861 -238 30 -3 65 -8 79 -10 182 -26 651 -25 840 2 357 52 666 136 947 257
159 69 502 254 533 287 3 3 13 10 22 15 241 140 675 550 873 825 22 30 42 57
45 60 12 12 121 182 173 270 194 334 330 691 406 1067 16 81 33 175 36 208 4
33 9 69 11 80 30 152 24 698 -11 900 -2 17 -7 48 -10 70 -8 53 -64 313 -74
345 -5 14 -17 52 -26 85 -57 202 -197 536 -293 700 -99 170 -305 475 -341 505
-3 3 -38 43 -78 90 -77 92 -278 292 -383 382 -248 211 -609 433 -900 552 -36
15 -74 31 -85 35 -63 26 -88 36 -170 62 -167 55 -406 113 -550 135 -27 4 -52
8 -55 9 -3 1 -41 5 -85 10 -44 4 -89 10 -100 12 -25 4 -532 12 -537 8z m1477
-2354 c46 -12 129 -62 157 -94 79 -93 114 -228 83 -328 -30 -97 -32 -99 -1121
-1189 l-1074 -1075 -546 545 c-300 300 -556 563 -569 585 -104 177 -33 406
153 493 49 23 70 27 152 27 147 -1 146 0 498 -349 167 -166 306 -303 308 -306
3 -2 377 368 832 822 455 454 838 832 852 839 85 43 186 55 275 30z"/>
</g>
</svg>
