<?xml version="1.0" standalone="no"?>
<!DOCTYPE svg PUBLIC "-//W3C//DTD SVG 20010904//EN"
 "http://www.w3.org/TR/2001/REC-SVG-20010904/DTD/svg10.dtd">
<svg version="1.0" xmlns="http://www.w3.org/2000/svg"
 width="250.000000pt" height="250.000000pt" viewBox="0 0 250.000000 250.000000"
 preserveAspectRatio="xMidYMid meet">
<metadata>
Created by potrace 1.11, written by Peter Selinger 2001-2013
</metadata>
<g transform="translate(0.000000,250.000000) scale(0.100000,-0.100000)"
fill="#000000" stroke="none">
<path d="M1175 2349 c-153 -81 -348 -406 -478 -799 -46 -140 -87 -322 -80
-362 13 -82 65 -122 159 -121 73 1 106 15 228 96 108 73 173 99 246 99 70 0
108 -16 222 -95 124 -85 152 -98 225 -102 125 -8 192 56 187 177 -19 397 -314
982 -555 1102 -64 31 -101 33 -154 5z m121 -138 c62 -46 108 -99 183 -211 38
-57 69 -105 68 -106 -1 -1 -31 5 -67 13 -36 8 -133 16 -215 18 -134 3 -171 0
-262 -20 -21 -5 -20 -2 11 53 78 139 195 282 230 282 7 0 31 -13 52 -29z m-3
-418 c15 -2 41 -16 57 -30 80 -67 -17 -168 -129 -134 -63 18 -89 63 -65 112
21 42 77 63 137 52z m-273 -43 c-24 -83 31 -184 124 -232 161 -82 375 34 365
197 -2 24 -1 46 1 47 3 1 30 -7 61 -16 l57 -18 31 -82 c38 -100 77 -247 86
-324 4 -31 8 -67 10 -79 2 -12 -3 -30 -10 -40 -22 -29 -91 -3 -214 81 -154
105 -243 128 -375 98 -73 -16 -115 -37 -236 -118 -88 -58 -118 -70 -161 -66
-14 2 -15 9 -8 46 24 130 100 378 140 458 15 30 29 40 76 56 32 11 59 21 60
21 1 1 -2 -12 -7 -29z"/>
<path d="M88 642 l-68 -3 0 -49 0 -49 97 -3 98 -3 0 -115 c1 -176 -13 -204
-95 -197 -25 3 -53 8 -62 12 -13 5 -22 -3 -37 -34 -12 -22 -21 -42 -21 -45 0
-12 88 -36 136 -36 88 0 146 33 176 100 7 15 12 104 14 223 l2 197 -51 1 c-29
0 -68 1 -87 2 -19 1 -65 1 -102 -1z"/>
<path d="M1139 640 c-55 -10 -100 -41 -122 -84 -18 -34 -21 -59 -21 -171 -1
-153 13 -201 73 -237 51 -32 172 -36 227 -8 46 24 45 24 38 5 -7 -16 -6 -17
49 -19 20 0 37 4 38 9 4 44 1 264 -4 272 -7 10 -203 10 -214 -1 -11 -11 -10
-65 2 -69 5 -2 34 -3 63 -2 48 1 52 -1 52 -22 0 -31 -20 -71 -39 -79 -26 -11
-104 -12 -128 -1 -30 14 -43 59 -44 153 -1 126 18 155 99 156 65 0 85 -7 97
-34 8 -18 18 -22 60 -22 44 0 50 2 53 22 6 40 -27 90 -74 113 -47 22 -138 31
-205 19z"/>
<path d="M464 442 c1 -177 4 -201 22 -236 31 -60 79 -81 184 -81 104 0 144 19
178 85 21 41 22 57 22 237 l0 193 -58 0 -57 0 1 -172 c1 -203 -7 -234 -58
-242 -34 -6 -47 -5 -85 8 -31 10 -36 45 -35 238 l0 168 -57 0 -58 0 1 -198z"/>
<path d="M1821 481 c-4 -3 -8 -85 -8 -181 l0 -175 39 1 c21 1 44 2 51 3 10 1
13 29 14 118 0 107 2 118 22 134 11 9 29 16 39 14 9 -2 20 -4 25 -4 4 -1 7 -7
7 -14 0 -8 17 -13 51 -14 l51 -1 -6 36 c-11 74 -91 111 -168 79 -23 -10 -38
-12 -40 -5 -4 11 -63 18 -77 9z"/>
<path d="M2179 480 c-1 -3 -2 -59 -3 -125 -2 -140 6 -183 40 -208 35 -26 122
-34 160 -14 24 12 31 12 41 2 7 -7 20 -12 30 -10 10 2 26 4 35 4 16 1 18 16
15 178 l-2 177 -40 -1 c-22 -1 -44 -1 -50 -2 -6 -1 -10 -47 -10 -117 0 -110
-1 -117 -24 -135 -27 -22 -50 -24 -74 -6 -15 10 -18 31 -19 135 -1 104 -3 122
-17 123 -50 4 -81 3 -82 -1z"/>
<path d="M1578 237 c-26 -20 -33 -63 -14 -92 13 -20 25 -25 56 -25 43 0 70 26
70 67 0 48 -71 80 -112 50z"/>
</g>
</svg>
