<svg xmlns="http://www.w3.org/2000/svg" fill="none" viewBox="0 0 535 315">
  <defs/>
  <path fill="url(#paint0_linear)" d="M415.373 212.167L277.97 270.37c-5.82 2.462-15.183 2.462-21.003 0l-137.403-58.203c-5.82-2.462-5.82-6.439 0-8.9l137.403-58.203c5.82-2.462 15.183-2.462 21.003 0l137.403 58.203c5.757 2.461 5.757 6.502 0 8.9z"/>
  <path fill="url(#paint1_radial)" d="M415.373 212.167L277.97 270.37c-5.82 2.462-15.183 2.462-21.003 0l-137.403-58.203c-5.82-2.462-5.82-6.439 0-8.9l137.403-58.203c5.82-2.462 15.183-2.462 21.003 0l137.403 58.203c5.757 2.461 5.757 6.502 0 8.9z"/>
  <path fill="url(#paint2_radial)" d="M174.538 157.563v-15.15h-55.227l-26-11.047c-3.354-1.389-8.73-1.389-12.02 0l-26 11.047H0v15.15c0 .947.822 1.831 2.467 2.525l78.76 33.331c3.353 1.389 8.73 1.389 12.02 0l78.823-33.268c1.645-.694 2.468-1.641 2.468-2.588z"/>
  <path fill="url(#paint3_radial)" d="M83.378 194.176c2.404.505 5.314.505 7.718 0v-13.635h-7.718v13.635z"/>
  <path fill="url(#paint4_radial)" d="M172.071 152.892l-78.76 33.33c-3.353 1.389-8.73 1.389-12.02 0l-78.824-33.33c-1.328-.568-2.087-1.263-2.34-1.957-.443 1.136.316 2.272 2.34 3.156l78.76 33.394c3.353 1.389 8.73 1.389 12.02 0l78.824-33.394c2.024-.884 2.783-2.02 2.34-3.156-.253.757-1.075 1.389-2.34 1.957z"/>
  <path fill="#fff" d="M172.07 141.782l-78.76-33.331c-3.353-1.389-8.73-1.389-12.02 0L2.468 141.782c-.885.378-1.518.82-1.898 1.262L0 142.413v1.894c0 .946.822 1.83 2.467 2.525l78.76 33.33c3.353 1.389 8.73 1.389 12.02 0l78.823-33.267c3.29-1.452 3.29-3.725 0-5.113z"/>
  <path fill="url(#paint5_radial)" d="M172.071 145.001l-78.76 33.331c-3.354 1.388-8.73 1.388-12.02 0L2.467 145.001c-3.353-1.389-3.353-3.661 0-5.113l78.76-33.331c3.353-1.389 8.73-1.389 12.02 0l78.824 33.331c3.289 1.389 3.289 3.661 0 5.113z"/>
  <path fill="#E0E0E0" d="M49.217 143.991c1.852 0 3.353-.65 3.353-1.452 0-.802-1.501-1.452-3.353-1.452-1.852 0-3.353.65-3.353 1.452 0 .802 1.502 1.452 3.353 1.452zM58.77 139.951c1.851 0 3.352-.65 3.352-1.452 0-.802-1.5-1.452-3.352-1.452-1.852 0-3.353.65-3.353 1.452 0 .802 1.5 1.452 3.353 1.452zM68.259 135.911c1.852 0 3.353-.65 3.353-1.452 0-.802-1.501-1.452-3.353-1.452-1.852 0-3.353.65-3.353 1.452 0 .802 1.501 1.452 3.353 1.452zM77.748 131.871c1.852 0 3.353-.65 3.353-1.452 0-.802-1.501-1.452-3.353-1.452-1.852 0-3.353.65-3.353 1.452 0 .802 1.501 1.452 3.353 1.452zM87.237 127.831c1.852 0 3.353-.65 3.353-1.452 0-.802-1.501-1.452-3.353-1.452-1.852 0-3.353.65-3.353 1.452 0 .802 1.501 1.452 3.353 1.452zM58.77 147.968c1.851 0 3.352-.65 3.352-1.452 0-.802-1.5-1.452-3.352-1.452-1.852 0-3.353.65-3.353 1.452 0 .802 1.5 1.452 3.353 1.452zM68.259 143.991c1.852 0 3.353-.65 3.353-1.452 0-.802-1.501-1.452-3.353-1.452-1.852 0-3.353.65-3.353 1.452 0 .802 1.501 1.452 3.353 1.452zM77.748 139.951c1.852 0 3.353-.65 3.353-1.452 0-.802-1.501-1.452-3.353-1.452-1.852 0-3.353.65-3.353 1.452 0 .802 1.501 1.452 3.353 1.452zM87.237 135.911c1.852 0 3.353-.65 3.353-1.452 0-.802-1.501-1.452-3.353-1.452-1.852 0-3.353.65-3.353 1.452 0 .802 1.501 1.452 3.353 1.452zM96.79 131.871c1.851 0 3.352-.65 3.352-1.452 0-.802-1.5-1.452-3.352-1.452-1.852 0-3.353.65-3.353 1.452 0 .802 1.5 1.452 3.353 1.452zM68.259 152.008c1.852 0 3.353-.65 3.353-1.452 0-.802-1.501-1.452-3.353-1.452-1.852 0-3.353.65-3.353 1.452 0 .802 1.501 1.452 3.353 1.452zM77.748 147.968c1.852 0 3.353-.65 3.353-1.452 0-.802-1.501-1.452-3.353-1.452-1.852 0-3.353.65-3.353 1.452 0 .802 1.501 1.452 3.353 1.452zM87.237 143.991c1.852 0 3.353-.65 3.353-1.452 0-.802-1.501-1.452-3.353-1.452-1.852 0-3.353.65-3.353 1.452 0 .802 1.501 1.452 3.353 1.452zM96.79 139.951c1.851 0 3.352-.65 3.352-1.452 0-.802-1.5-1.452-3.352-1.452-1.852 0-3.353.65-3.353 1.452 0 .802 1.5 1.452 3.353 1.452zM106.279 135.911c1.851 0 3.353-.65 3.353-1.452 0-.802-1.502-1.452-3.353-1.452-1.852 0-3.353.65-3.353 1.452 0 .802 1.501 1.452 3.353 1.452zM77.748 156.048c1.852 0 3.353-.65 3.353-1.452 0-.802-1.501-1.452-3.353-1.452-1.852 0-3.353.65-3.353 1.452 0 .802 1.501 1.452 3.353 1.452zM87.237 152.008c1.852 0 3.353-.65 3.353-1.452 0-.802-1.501-1.452-3.353-1.452-1.852 0-3.353.65-3.353 1.452 0 .802 1.501 1.452 3.353 1.452zM96.79 147.968c1.851 0 3.352-.65 3.352-1.452 0-.802-1.5-1.452-3.352-1.452-1.852 0-3.353.65-3.353 1.452 0 .802 1.5 1.452 3.353 1.452zM106.279 143.991c1.851 0 3.353-.65 3.353-1.452 0-.802-1.502-1.452-3.353-1.452-1.852 0-3.353.65-3.353 1.452 0 .802 1.501 1.452 3.353 1.452zM115.768 139.951c1.852 0 3.353-.65 3.353-1.452 0-.802-1.501-1.452-3.353-1.452-1.852 0-3.353.65-3.353 1.452 0 .802 1.501 1.452 3.353 1.452zM87.237 160.088c1.852 0 3.353-.65 3.353-1.452 0-.802-1.501-1.452-3.353-1.452-1.852 0-3.353.65-3.353 1.452 0 .802 1.501 1.452 3.353 1.452zM96.79 156.048c1.851 0 3.352-.65 3.352-1.452 0-.802-1.5-1.452-3.352-1.452-1.852 0-3.353.65-3.353 1.452 0 .802 1.5 1.452 3.353 1.452zM106.279 152.008c1.851 0 3.353-.65 3.353-1.452 0-.802-1.502-1.452-3.353-1.452-1.852 0-3.353.65-3.353 1.452 0 .802 1.501 1.452 3.353 1.452zM115.768 147.968c1.852 0 3.353-.65 3.353-1.452 0-.802-1.501-1.452-3.353-1.452-1.852 0-3.353.65-3.353 1.452 0 .802 1.501 1.452 3.353 1.452zM125.321 143.991c1.851 0 3.352-.65 3.352-1.452 0-.802-1.501-1.452-3.352-1.452-1.852 0-3.353.65-3.353 1.452 0 .802 1.501 1.452 3.353 1.452z"/>
  <path fill="url(#paint6_radial)" d="M535 157.563v-15.15h-55.227l-26-11.047c-3.353-1.389-8.73-1.389-12.02 0l-26 11.047h-55.227v15.15c0 .947.822 1.831 2.467 2.525l78.76 33.331c3.353 1.389 8.73 1.389 12.02 0l78.76-33.331c1.645-.631 2.467-1.578 2.467-2.525z"/>
  <path fill="url(#paint7_radial)" d="M443.841 194.176c2.404.505 5.314.505 7.718 0v-13.635h-7.718v13.635z"/>
  <path fill="#fff" d="M535 144.307v-1.894s-.316.252-.632.568c-.443-.442-1.013-.821-1.898-1.199l-78.76-33.331c-3.353-1.389-8.73-1.389-12.02 0l-78.76 33.331c-3.353 1.388-3.353 3.661 0 5.113l78.76 33.33c3.353 1.389 8.73 1.389 12.02 0l78.76-33.33c1.708-.695 2.53-1.642 2.53-2.588z"/>
  <path fill="url(#paint8_radial)" d="M532.47 145.001l-78.76 33.331c-3.353 1.388-8.731 1.388-12.02 0l-78.76-33.331c-3.353-1.389-3.353-3.661 0-5.113l78.76-33.331c3.353-1.389 8.73-1.389 12.02 0l78.76 33.331c3.353 1.389 3.353 3.661 0 5.113z"/>
  <path fill="url(#paint9_radial)" d="M532.47 152.892l-78.76 33.33c-3.353 1.389-8.73 1.389-12.02 0l-78.76-33.33c-1.329-.568-2.088-1.263-2.341-1.957-.443 1.136.316 2.272 2.341 3.156l78.76 33.394c3.353 1.389 8.73 1.389 12.02 0l78.76-33.331c2.024-.883 2.783-2.02 2.34-3.156-.253.694-1.012 1.326-2.34 1.894z"/>
  <path fill="#E0E0E0" d="M409.68 143.991c1.851 0 3.352-.65 3.352-1.452 0-.802-1.501-1.452-3.352-1.452-1.852 0-3.353.65-3.353 1.452 0 .802 1.501 1.452 3.353 1.452zM419.232 139.951c1.852 0 3.353-.65 3.353-1.452 0-.802-1.501-1.452-3.353-1.452-1.852 0-3.353.65-3.353 1.452 0 .802 1.501 1.452 3.353 1.452zM428.721 135.911c1.852 0 3.353-.65 3.353-1.452 0-.802-1.501-1.452-3.353-1.452-1.851 0-3.353.65-3.353 1.452 0 .802 1.502 1.452 3.353 1.452zM438.21 131.871c1.852 0 3.353-.65 3.353-1.452 0-.802-1.501-1.452-3.353-1.452-1.851 0-3.352.65-3.352 1.452 0 .802 1.501 1.452 3.352 1.452zM447.7 127.831c1.851 0 3.352-.65 3.352-1.452 0-.802-1.501-1.452-3.352-1.452-1.852 0-3.353.65-3.353 1.452 0 .802 1.501 1.452 3.353 1.452zM419.232 147.968c1.852 0 3.353-.65 3.353-1.452 0-.802-1.501-1.452-3.353-1.452-1.852 0-3.353.65-3.353 1.452 0 .802 1.501 1.452 3.353 1.452zM428.721 143.991c1.852 0 3.353-.65 3.353-1.452 0-.802-1.501-1.452-3.353-1.452-1.851 0-3.353.65-3.353 1.452 0 .802 1.502 1.452 3.353 1.452zM438.21 139.951c1.852 0 3.353-.65 3.353-1.452 0-.802-1.501-1.452-3.353-1.452-1.851 0-3.352.65-3.352 1.452 0 .802 1.501 1.452 3.352 1.452zM447.7 135.911c1.851 0 3.352-.65 3.352-1.452 0-.802-1.501-1.452-3.352-1.452-1.852 0-3.353.65-3.353 1.452 0 .802 1.501 1.452 3.353 1.452zM457.252 131.871c1.852 0 3.353-.65 3.353-1.452 0-.802-1.501-1.452-3.353-1.452-1.852 0-3.353.65-3.353 1.452 0 .802 1.501 1.452 3.353 1.452zM428.721 152.008c1.852 0 3.353-.65 3.353-1.452 0-.802-1.501-1.452-3.353-1.452-1.851 0-3.353.65-3.353 1.452 0 .802 1.502 1.452 3.353 1.452z"/>
  <path stroke="#E0E0E0" stroke-miterlimit="10" d="M428.721 150.556l18.979-8.017-9.49-4.04 9.49-4.04-9.49-4.04-9.489 4.04-9.489 4.04 9.489 4.04-9.489 3.977 9.489 4.04z"/>
  <path fill="#E0E0E0" d="M438.21 147.968c1.852 0 3.353-.65 3.353-1.452 0-.802-1.501-1.452-3.353-1.452-1.851 0-3.352.65-3.352 1.452 0 .802 1.501 1.452 3.352 1.452zM447.7 143.991c1.851 0 3.352-.65 3.352-1.452 0-.802-1.501-1.452-3.352-1.452-1.852 0-3.353.65-3.353 1.452 0 .802 1.501 1.452 3.353 1.452zM457.252 139.951c1.852 0 3.353-.65 3.353-1.452 0-.802-1.501-1.452-3.353-1.452-1.852 0-3.353.65-3.353 1.452 0 .802 1.501 1.452 3.353 1.452zM466.741 135.911c1.852 0 3.353-.65 3.353-1.452 0-.802-1.501-1.452-3.353-1.452-1.852 0-3.353.65-3.353 1.452 0 .802 1.501 1.452 3.353 1.452zM438.21 156.048c1.852 0 3.353-.65 3.353-1.452 0-.802-1.501-1.452-3.353-1.452-1.851 0-3.352.65-3.352 1.452 0 .802 1.501 1.452 3.352 1.452zM447.7 152.008c1.851 0 3.352-.65 3.352-1.452 0-.802-1.501-1.452-3.352-1.452-1.852 0-3.353.65-3.353 1.452 0 .802 1.501 1.452 3.353 1.452zM457.252 147.968c1.852 0 3.353-.65 3.353-1.452 0-.802-1.501-1.452-3.353-1.452-1.852 0-3.353.65-3.353 1.452 0 .802 1.501 1.452 3.353 1.452zM466.741 143.991c1.852 0 3.353-.65 3.353-1.452 0-.802-1.501-1.452-3.353-1.452-1.852 0-3.353.65-3.353 1.452 0 .802 1.501 1.452 3.353 1.452zM476.23 139.951c1.852 0 3.353-.65 3.353-1.452 0-.802-1.501-1.452-3.353-1.452-1.851 0-3.352.65-3.352 1.452 0 .802 1.501 1.452 3.352 1.452zM447.7 160.088c1.851 0 3.352-.65 3.352-1.452 0-.802-1.501-1.452-3.352-1.452-1.852 0-3.353.65-3.353 1.452 0 .802 1.501 1.452 3.353 1.452zM457.252 156.048c1.852 0 3.353-.65 3.353-1.452 0-.802-1.501-1.452-3.353-1.452-1.852 0-3.353.65-3.353 1.452 0 .802 1.501 1.452 3.353 1.452zM466.741 152.008c1.852 0 3.353-.65 3.353-1.452 0-.802-1.501-1.452-3.353-1.452-1.852 0-3.353.65-3.353 1.452 0 .802 1.501 1.452 3.353 1.452zM476.23 147.968c1.852 0 3.353-.65 3.353-1.452 0-.802-1.501-1.452-3.353-1.452-1.851 0-3.352.65-3.352 1.452 0 .802 1.501 1.452 3.352 1.452zM485.72 143.991c1.851 0 3.352-.65 3.352-1.452 0-.802-1.501-1.452-3.352-1.452-1.852 0-3.353.65-3.353 1.452 0 .802 1.501 1.452 3.353 1.452z"/>
  <path fill="#F9F9F9" d="M436.755 94.5l-157.267 66.598c-6.642 2.778-17.397 2.778-24.039 0L98.245 94.5c-6.643-2.778-6.643-7.386 0-10.163l157.267-66.599c6.642-2.777 17.397-2.777 24.039 0l157.204 66.599c6.58 2.777 6.58 7.385 0 10.163z"/>
  <path fill="url(#paint10_radial)" d="M413.159 86.988v-25.25h-92.172l-43.397-18.37c-5.567-2.336-14.55-2.336-20.054 0l-43.397 18.37h-92.298v25.25c0 1.515 1.392 3.093 4.175 4.23l131.457 55.677c5.567 2.335 14.55 2.335 20.054 0l131.457-55.678c2.783-1.136 4.175-2.714 4.175-4.229z"/>
  <path fill="#fff" d="M413.159 63.758v-2.084l-.38.695c-.569-1.073-1.834-2.02-3.732-2.84L277.527 3.85c-5.567-2.336-14.55-2.336-20.054 0l-131.52 55.677c-1.834.758-3.036 1.705-3.669 2.715l-.506-.506v2.147c0 1.515 1.392 3.03 4.175 4.23l131.52 55.613c5.567 2.336 14.55 2.336 20.054 0L408.984 68.05c2.783-1.2 4.175-2.714 4.175-4.292z"/>
  <path fill="url(#paint11_radial)" d="M408.984 65.967l-131.457 55.677c-5.567 2.336-14.55 2.336-20.054 0L126.016 65.967c-5.567-2.336-5.567-6.186 0-8.522L257.473 1.768c5.567-2.336 14.55-2.336 20.054 0l131.457 55.677c5.567 2.336 5.567 6.186 0 8.522z"/>
  <path fill="url(#paint12_radial)" d="M408.984 74.93l-131.457 55.678c-5.567 2.336-14.55 2.336-20.054 0L126.016 74.931c-2.404-1.01-3.795-2.336-4.112-3.662-.379 1.705.949 3.536 4.112 4.861l131.457 55.614c5.567 2.336 14.55 2.336 20.054 0l131.457-55.677c3.1-1.325 4.491-3.093 4.112-4.86-.317 1.388-1.645 2.714-4.112 3.724z"/>
  <path fill="url(#paint13_radial)" d="M408.984 83.453L277.527 139.13c-5.567 2.336-14.55 2.336-20.054 0L126.016 83.453c-2.404-1.01-3.795-2.336-4.112-3.661-.379 1.704.949 3.535 4.112 4.86l131.457 55.678c5.567 2.335 14.55 2.335 20.054 0l131.457-55.74c3.1-1.327 4.491-3.094 4.112-4.862-.317 1.39-1.645 2.715-4.112 3.725z"/>
  <path fill="url(#paint14_radial)" d="M386.589 65.272l-110.644 46.84c-4.681 1.957-12.209 1.957-16.89 0l-110.644-46.84c-4.681-1.956-4.681-5.176 0-7.133L259.055 11.3c4.681-1.956 12.209-1.956 16.89 0l110.644 46.84c4.682 1.957 4.682 5.177 0 7.133z"/>
  <path fill="url(#paint15_radial)" d="M259.055 47.345l-76.483 32.383 76.483 32.384c4.681 1.957 12.209 1.957 16.89 0l76.483-32.383-76.483-32.384c-4.681-1.957-12.209-1.957-16.89 0z"/>
  <path fill="#CECECE" d="M259.055 48.544c4.681-1.957 12.209-1.957 16.89 0l75.091 31.816 1.392-.568-76.483-32.447c-4.681-1.957-12.209-1.957-16.89 0l-76.483 32.383 1.392.569 75.091-31.753z"/>
  <path fill="url(#paint16_radial)" d="M257.03 191.273l-93.373 39.517 93.373 39.517c5.82 2.462 15.183 2.462 21.003 0l93.31-39.454-93.373-39.58c-5.757-2.399-15.183-2.399-20.94 0z"/>
  <path fill="#C6C6C6" d="M277.97 201.751c-5.82-2.461-15.183-2.461-21.003 0l-80.974 34.278 1.898.821 79.076-33.52c5.82-2.462 15.183-2.462 21.003 0l79.076 33.52 1.898-.821-80.974-34.278z"/>
  <path fill="#C6C6C6" d="M277.97 213.809c-5.82-2.462-15.183-2.462-21.003 0l-66.74 28.28 1.897.821 64.843-27.46c5.82-2.462 15.183-2.462 21.003 0l64.843 27.46 1.897-.821-66.74-28.28z"/>
  <path fill="#C6C6C6" d="M277.97 225.866c-5.82-2.462-15.183-2.462-21.003 0l-52.507 22.283 1.898.821 50.609-21.463c5.82-2.462 15.183-2.462 21.003 0l50.609 21.463 1.898-.821-52.507-22.283z"/>
  <path fill="#C6C6C6" d="M277.97 237.923c-5.82-2.462-15.183-2.462-21.003 0l-38.336 16.223 1.898.821 36.375-15.403c5.82-2.462 15.183-2.462 21.003 0l36.375 15.403 1.898-.821-38.21-16.223z"/>
  <path fill="#C6C6C6" d="M277.97 249.98c-5.82-2.462-15.183-2.462-21.003 0l-24.102 10.226 1.897.821 22.205-9.406c5.82-2.462 15.183-2.462 21.003 0l22.205 9.406 1.897-.821-24.102-10.226z"/>
  <path fill="#C6C6C6" d="M277.97 262.037c-5.82-2.462-15.183-2.462-21.003 0l-9.869 4.166 1.898.821 7.971-3.346c5.82-2.462 15.183-2.462 21.003 0l7.971 3.346 1.898-.821-9.869-4.166z"/>
  <path fill="url(#paint17_linear)" d="M348.253 174.86v16.981c0 3.282-1.265 6.439-3.606 8.774l-31.883 31.816a16.695 16.695 0 00-4.935 11.868v13.446l4.428-1.894v-11.552c0-3.283 1.266-6.439 3.606-8.775l31.884-31.816a16.696 16.696 0 004.934-11.867v-15.087l-4.428-1.894z"/>
  <path fill="url(#paint18_linear)" d="M182.319 176.754v15.087c0 4.482 1.771 8.711 4.934 11.867l31.884 31.816c2.341 2.336 3.606 5.429 3.606 8.775v11.615l4.428 1.894v-13.509c0-4.482-1.771-8.712-4.934-11.868l-31.821-31.816c-2.34-2.335-3.606-5.429-3.606-8.774V174.86l-4.491 1.894z"/>
  <path fill="url(#paint19_linear)" d="M281.829 268.728l4.428-1.83v-71.143h-4.428v72.973z"/>
  <path fill="url(#paint20_linear)" d="M248.743 266.898l4.428 1.83v-72.973h-4.428v71.143z"/>
  <path fill="url(#paint21_radial)" d="M419.738 157.247v-22.283h-46.497l-95.208-40.338c-5.82-2.462-15.183-2.462-21.003 0l-95.208 40.338h-46.497v22.283c0 1.579 1.455 3.22 4.365 4.419l137.404 58.203c5.82 2.462 15.182 2.462 21.002 0L415.5 161.666c2.783-1.199 4.238-2.777 4.238-4.419z"/>
  <path fill="#FFC476" d="M419.738 155.985v-22.284h-46.497l-95.208-40.337c-5.82-2.462-15.183-2.462-21.003 0L161.822 133.7h-46.497v22.284c0 1.578 1.455 3.219 4.365 4.419l137.404 58.202c5.82 2.462 15.182 2.462 21.002 0L415.5 160.404c2.783-1.2 4.238-2.778 4.238-4.419z"/>
  <path fill="#E23B14" d="M419.738 148.662v-22.283h-46.497l-95.208-40.338c-5.82-2.462-15.183-2.462-21.003 0l-95.208 40.338h-46.497v22.283c0 1.578 1.455 3.22 4.365 4.419l137.404 58.203c5.82 2.461 15.182 2.461 21.002 0L415.5 153.081c2.783-1.199 4.238-2.841 4.238-4.419z"/>
  <path fill="url(#paint22_radial)" d="M419.738 147.274V124.99h-46.497l-95.208-40.338c-5.82-2.462-15.183-2.462-21.003 0l-95.271 40.338h-46.497v22.284c0 1.578 1.455 3.219 4.365 4.418l137.403 58.203c5.82 2.462 15.183 2.462 21.003 0l137.403-58.203c2.847-1.199 4.302-2.777 4.302-4.418z"/>
  <path fill="url(#paint23_radial)" d="M258.802 219.301c5.187 1.578 12.272 1.578 17.46 0v-39.959h-17.46v39.959z"/>
  <path fill="url(#paint24_radial)" d="M415.374 129.409l-137.403 58.202c-5.82 2.462-15.183 2.462-21.003 0l-137.34-58.202c-5.82-2.462-5.82-6.439 0-8.901l137.403-58.202c5.82-2.462 15.183-2.462 21.003 0l137.34 58.265c5.757 2.399 5.757 6.376 0 8.838z"/>
  <path stroke="#FE751A" stroke-miterlimit="10" d="M403.164 129.093l-126.017 53.342c-5.314 2.272-13.917 2.272-19.231 0l-126.08-53.405c-5.314-2.272-5.314-5.934 0-8.143l126.017-53.342c5.314-2.272 13.917-2.272 19.231 0l126.08 53.405c5.314 2.209 5.314 5.871 0 8.143z"/>
  <path fill="url(#paint25_radial)" d="M415.373 128.083L277.97 186.286c-5.82 2.462-15.183 2.462-21.003 0l-137.403-58.203c-2.467-1.073-3.922-2.399-4.239-3.787-.443 1.83.949 3.724 4.239 5.113l137.403 58.202c5.82 2.462 15.183 2.462 21.003 0l137.403-58.202c3.29-1.389 4.681-3.283 4.239-5.113-.317 1.388-1.772 2.714-4.239 3.787z"/>
  <path fill="url(#paint26_radial)" d="M391.966 128.714l-3.226 1.389-111.719 33.331c-4.871 2.083-12.336 2.462-17.207.442l-113.491-33.773-3.226-1.389c-4.871-2.083-4.871-5.428 0-7.448l115.641-48.987c4.872-2.083 12.779-2.083 17.65 0l115.642 48.987c4.808 2.02 4.808 5.365-.064 7.448z"/>
  <path fill="url(#paint27_radial)" d="M391.967 121.266L276.325 72.279c-4.871-2.083-12.779-2.083-17.65 0l-115.641 48.987c-2.974 1.262-4.112 2.966-3.48 4.608.38-1.073 1.582-2.083 3.48-2.841l115.641-48.986c4.871-2.083 12.779-2.083 17.65 0l115.642 48.986c1.897.821 3.036 1.831 3.479 2.841.632-1.642-.569-3.346-3.479-4.608z"/>
  <path fill="url(#paint28_radial)" d="M258.675 82.506L146.26 130.103 258.675 177.7c4.871 2.084 12.779 2.084 17.65 0l112.415-47.597-112.415-47.597c-4.871-2.083-12.779-2.083-17.65 0z"/>
  <path fill="#FFC476" d="M231.473 127.957l-7.339-3.093c-.949-.379-2.53-.379-3.479 0l-7.338 3.093c-.949.379-.949 1.073 0 1.452l7.338 3.093c.949.379 2.53.379 3.479 0l7.339-3.093c.949-.379.949-1.01 0-1.452zM210.407 136.921l-7.338-3.093c-.949-.379-2.531-.379-3.48 0l-7.338 3.093c-.949.379-.949 1.073 0 1.452l7.338 3.093c.949.379 2.531.379 3.48 0l7.338-3.093c.949-.442.949-1.073 0-1.452zM324.783 123.223l7.338 3.093c.949.378 2.531.378 3.48 0l7.338-3.093c.949-.379.949-1.074 0-1.452l-7.338-3.094c-.949-.378-2.531-.378-3.48 0l-7.338 3.094c-.949.378-.949 1.01 0 1.452zM303.717 132.123l7.338 3.093c.949.379 2.531.379 3.48 0l7.338-3.093c.949-.378.949-1.073 0-1.452l-7.338-3.093c-.949-.379-2.531-.379-3.48 0l-7.338 3.093c-.949.379-.949 1.074 0 1.452zM273.289 148.536l-7.339-3.093c-.949-.379-2.53-.379-3.479 0l-7.338 3.093c-.949.379-.949 1.073 0 1.452l7.338 3.093c.949.379 2.53.379 3.479 0l7.339-3.093c.948-.379.948-1.01 0-1.452zM276.135 158.952l7.338 3.093c.949.379 2.531.379 3.48 0l7.338-3.093c.949-.379.949-1.073 0-1.452l-7.338-3.093c-.949-.379-2.531-.379-3.48 0l-7.338 3.093c-.949.379-.949 1.073 0 1.452zM258.802 101.191l-7.339-3.093c-.949-.379-2.53-.379-3.479 0l-7.338 3.093c-.949.379-.949 1.074 0 1.452l7.338 3.093c.949.379 2.53.379 3.479 0l7.339-3.093c1.012-.378 1.012-1.01 0-1.452zM261.712 111.607l7.338 3.093c.949.379 2.53.379 3.479 0l7.339-3.093c.948-.379.948-1.073 0-1.452l-7.339-3.093c-.949-.379-2.53-.379-3.479 0l-7.338 3.093c-.949.379-.949 1.073 0 1.452z"/>
  <path fill="#FFC476" d="M308.272 142.792c.569.252 1.265.378 2.024.378.759 0 1.455-.126 2.025-.378l47.319-20.075c1.581.505 3.732.505 5.314 0l20.56 8.712.822-.316-20.56-8.711c.886-.505 1.139-1.136.696-1.705l-2.72-1.136c-1.392-.189-2.91-.126-4.112.253l-20.939-8.838c-1.139-.505-2.911-.505-4.049 0l-32.959 13.951c-.949.379-2.594.379-3.543 0l-1.961-.821c-1.139-.505-2.91-.505-4.049 0l-5.693 2.399.126.316-5.187-2.21 12.779-5.429 3.606 1.515c.569.253 1.265.379 2.024.379.759 0 1.455-.126 2.024-.379l32.327-13.698-.823-.316-31.757 13.446c-.949.379-2.594.379-3.542 0l-3.037-1.262 13.285-5.618c.822-.379.949-.821.949-1.074 0-.252-.127-.757-.949-1.073l-3.226-1.389 17.649-7.448-.822-.316-17.587 7.323-7.338-3.094 17.65-7.448-.822-.316-17.65 7.449-7.528-3.157 17.65-7.449-.823-.315-17.65 7.323-7.528-3.157 17.65-7.449-.822-.315-17.65 7.449-5.567-2.336c-.443-.19-.57-.379-.57-.505s.127-.316.57-.505l16.448-6.944-.823-.316-15.878 6.692c-.823.379-.949.82-.949 1.073 0 .252.126.757.949 1.073l34.351 14.582c.442.19.569.379.569.505 0 .127-.127.316-.569.505l-27.203 11.489.127.316-5.377-2.273 21.319-9.027c.822-.378.949-.82.949-1.073 0-.252-.127-.757-.949-1.073l-46.75-19.822c1.202-.694 1.202-1.578 0-2.272l18.535-7.828h-1.581l-17.777 7.512a8.93 8.93 0 00-4.112-.252l-2.72 1.136c-.443.568-.253 1.2.696 1.704l-20.37 8.586c-.823.378-.949.82-.949 1.073 0 .252.126.757.949 1.073l32.959 13.951c.443.189.569.378.569.505 0 .126-.126.315-.569.505l-1.961.82c-.823.379-.949.821-.949 1.074 0 .252.126.757.949 1.073l5.377 2.272-5.188 2.21.127-.316-12.526-5.303 3.037-1.262c.822-.379.949-.821.949-1.073 0-.253-.127-.758-.949-1.073l-31.757-13.446-.823.315 32.327 13.699c.443.189.569.378.569.505 0 .126-.126.315-.569.505l-3.606 1.515-13.854-5.871c-1.139-.505-2.91-.505-4.049 0l-3.796 1.578-17.523-7.386-.822.316 17.649 7.449-7.338 3.093-17.65-7.449-.822.316 17.65 7.449-7.528 3.156-17.65-7.449-.823.316 17.65 7.449-7.528 3.156-17.65-7.449-.822.316 17.65 7.449-4.998 2.083c-.949.379-2.594.379-3.542 0l-15.879-6.692-.822.316 16.447 6.944c.57.252 1.266.379 2.025.379.759 0 1.455-.127 2.024-.379l34.351-14.582c.949-.379 2.594-.379 3.543 0l26.886 11.362-4.998 2.084-21.762-8.901c-1.139-.505-2.91-.505-4.049 0l-47.319 20.074c-1.581-.505-3.732-.505-5.314 0l-20.56-8.711-.822.315 20.56 8.712c-.886.505-1.139 1.136-.696 1.704l2.72 1.136c1.392.19 2.91.127 4.112-.252l20.94 8.837c.569.253 1.265.379 2.024.379.696 0 1.455-.126 2.024-.379l32.959-13.95c.949-.379 2.594-.379 3.543 0l1.961.82c1.139.505 2.91.505 4.049 0l5.693-2.399-.126-.315 5.187 2.209-12.779 5.429-3.605-1.515c-1.139-.505-2.91-.505-4.049 0l-32.327 13.698.823.316 31.757-13.383c.949-.378 2.594-.378 3.542 0l3.037 1.263-13.285 5.618c-.822.379-.949.821-.949 1.073 0 .253.127.758.949 1.073l3.226 1.389-17.649 7.449.822.316 17.65-7.449 7.338 3.093-17.65 7.449.823.315 17.65-7.448 7.528 3.156-17.65 7.449.822.315 17.65-7.448 7.528 3.156-17.713 7.638.822.316 17.65-7.449 5.567 2.336c.443.189.57.378.57.505 0 .126-.127.315-.57.505l-16.448 6.943.823.316 15.878-6.691c.823-.379.949-.821.949-1.073 0-.253-.126-.758-.949-1.074l-34.351-14.582c-.442-.189-.569-.379-.569-.505s.127-.315.569-.505l27.203-11.489-.127-.315 5.377 2.272-21.319 9.027c-.822.379-.948.821-.948 1.073 0 .253.126.758.948 1.073l46.75 19.822c-1.201.695-1.201 1.578 0 2.273l-18.598 7.89h1.581l17.777-7.512a8.933 8.933 0 004.112.253l2.72-1.136c.443-.568.253-1.2-.696-1.705l20.37-8.648c.822-.379.949-.821.949-1.073 0-.253-.127-.758-.949-1.073l-32.959-13.951c-.443-.19-.569-.379-.569-.505s.126-.316.569-.505l1.961-.821c.822-.379.949-.821.949-1.073 0-.253-.127-.758-.949-1.073l-5.377-2.273 5.187-2.209-.126.315 12.525 5.303-3.036 1.263c-.822.378-.949.82-.949 1.073 0 .252.127.757.949 1.073l31.757 13.446.822-.316-32.326-13.698c-.443-.19-.569-.379-.569-.505s.126-.316.569-.505l3.606-1.515 13.854 5.87c.569.253 1.265.379 2.024.379.696 0 1.455-.126 2.025-.379l3.795-1.578 17.65 7.449.823-.315-17.65-7.449 7.338-3.094 17.65 7.449.822-.315-17.649-7.449 7.528-3.156 17.65 7.448.822-.315-17.65-7.449 7.528-3.156 17.65 7.448.822-.315-17.649-7.449 4.997-2.083c.949-.379 2.594-.379 3.543 0l15.878 6.691.823-.315-16.448-6.944c-1.139-.505-2.91-.505-4.049 0L312.004 147.4c-.949.379-2.593.379-3.542 0l-26.886-11.363 4.997-2.083 21.699 8.838zm-15.879-18.118c.949-.378 2.594-.378 3.543 0l1.961.821c1.139.505 2.91.505 4.049 0l32.959-13.951c.949-.379 2.594-.379 3.542 0l20.371 8.585c-1.202.695-1.202 1.578 0 2.273l-46.75 19.821c-.949.379-2.594.379-3.543 0l-21.319-9.027 3.606-1.515c2.024-.883 2.024-2.272 0-3.156l-3.796-1.578 5.377-2.273zm-49.786 10.858c-.949.379-2.594.379-3.543 0l-1.961-.821c-1.139-.505-2.91-.505-4.049 0l-32.959 13.951c-.949.379-2.593.379-3.542 0l-20.371-8.585c1.202-.694 1.202-1.578 0-2.272l46.751-19.822c.948-.379 2.593-.379 3.542 0l21.319 9.027-3.606 1.515c-2.024.884-2.024 2.273 0 3.156l3.796 1.579-5.377 2.272zm11.45-16.223c-.443-.19-.569-.379-.569-.505 0-.127.126-.316.569-.505l1.961-.821c.823-.379.949-.821.949-1.073 0-.253-.126-.758-.949-1.073l-32.959-13.951c-.443-.19-.569-.379-.569-.505s.126-.316.569-.505l20.939-8.838c1.582.505 3.733.505 5.314 0l47.32 20.074c.443.19.569.379.569.505 0 .127-.126.316-.569.505l-21.889 9.28-3.605-1.515c-2.025-.884-5.378-.884-7.402 0l-4.175 1.767.126-.315-5.63-2.525zm26.886 21.589c.443.189.569.379.569.505s-.126.315-.569.505l-1.961.82c-.822.379-.949.821-.949 1.074 0 .252.127.757.949 1.073l32.959 13.951c.443.189.569.378.569.505 0 .126-.126.315-.569.505l-20.939 8.837c-1.582-.505-3.733-.505-5.314 0l-47.32-20.074c-.443-.189-.569-.379-.569-.505s.126-.315.569-.505l21.889-9.279 3.606 1.515c2.024.883 5.377.883 7.401 0l4.175-1.768-.126.316 5.63 2.525z"/>
  <path fill="url(#paint29_radial)" d="M315.104 128.336c-1.139-1.705-2.72-3.22-4.681-4.545-1.961-1.263-4.302-2.336-6.959-3.157-1.961-.631-4.112-1.073-6.326-1.388-.443-.064-.506-.758-.063-.884 1.518-.442 2.973-.947 4.238-1.515 1.898-.821 3.543-1.831 4.871-2.904 1.329-1.136 2.341-2.336 3.037-3.725.696-1.325 1.012-2.777 1.012-4.355 0-2.715-.886-5.113-2.594-7.133-1.708-2.02-4.175-3.725-7.465-4.987-3.226-1.326-7.211-2.336-11.956-2.967-.253-.063-.569-.063-.886-.127-.948-.126-1.708-.947-1.708-1.894V79.35a2.4 2.4 0 00-2.404-2.4h-11.07a2.4 2.4 0 00-2.404 2.4v8.837c0 .884-.759 1.642-1.645 1.642h-5.947c-.885 0-1.644-.758-1.644-1.642V79.35a2.4 2.4 0 00-2.404-2.4h-11.071a2.4 2.4 0 00-2.404 2.4v8.837c0 .884-.759 1.642-1.645 1.642h-28.72a2.765 2.765 0 00-2.784 2.777v4.04a2.765 2.765 0 002.784 2.778h18.409c1.961 0 3.606 1.578 3.606 3.598v36.866a3.6 3.6 0 01-3.606 3.598h-18.409a2.765 2.765 0 00-2.784 2.778v4.04a2.765 2.765 0 002.784 2.777h30.302v10.732a2.4 2.4 0 002.404 2.398h11.071a2.4 2.4 0 002.403-2.398v-8.964c0-.947.76-1.768 1.772-1.768h5.693c.949 0 1.772.758 1.772 1.768v8.964a2.4 2.4 0 002.404 2.398h11.07a2.4 2.4 0 002.404-2.398v-9.217c0-1.199.886-2.209 2.088-2.335a117.6 117.6 0 007.275-1.137 53.54 53.54 0 008.793-2.525c2.657-1.01 4.934-2.209 6.896-3.598 1.897-1.389 3.416-3.03 4.491-4.861 1.076-1.83 1.645-3.85 1.645-6.123.063-2.02-.506-3.914-1.645-5.681zm-27.519-20.832c0 1.136-.316 2.209-.948 3.283-.633 1.01-1.582 1.893-2.91 2.714-1.266.758-2.91 1.389-4.872 1.831-1.961.442-4.554.631-7.844.631h-11.007a1.631 1.631 0 01-1.645-1.641v-13.194c0-.883.696-1.641 1.645-1.641h9.805c3.479 0 6.263.19 8.351.568 2.087.379 3.795.884 5.187 1.515 1.392.695 2.404 1.515 3.1 2.525a5.534 5.534 0 011.138 3.409zm4.429 30.806c-.886 1.136-2.151 2.083-3.733 2.777-1.581.758-3.416 1.263-5.567 1.641-2.151.379-4.807.569-7.971.569H260.32a1.901 1.901 0 01-1.898-1.894v-14.14c0-1.074.886-1.894 1.898-1.894h11.513c4.112 0 7.465.189 10.059.631 2.594.442 4.681 1.01 6.389 1.831 1.645.757 2.91 1.767 3.796 2.903a6.03 6.03 0 011.265 3.725 6.324 6.324 0 01-1.328 3.851z" opacity=".8"/>
  <path fill="url(#paint30_radial)" d="M292.52 58.013c2.847 6.439 9.173 8.712 15.942 8.775.253-.38.506-.758.696-1.137.695-1.325 1.012-2.777 1.012-4.355V45.514l-6.453 5.366c-1.075-.632-2.214-1.263-3.543-1.768a47.946 47.946 0 00-3.605-1.262c-2.784 3.22-5.567 6.439-4.049 10.163z"/>
  <path fill="url(#paint31_radial)" d="M316.812 73.353l-5.061 3.914-.126 2.777c-.38-.316-.759-.568-1.202-.884-1.961-1.262-4.302-2.335-6.959-3.156-2.657-.82-5.567-1.389-8.73-1.704 2.467-.505 4.681-1.2 6.579-2.084 1.898-.82 3.543-1.83 4.871-2.903.949-.821 1.708-1.642 2.341-2.588-6.769-.064-13.095-2.336-15.942-8.775-1.455-3.725 1.265-6.88 4.049-10.1-1.392-.379-2.847-.758-4.428-1.073l.442-.442-6.958-5.114v-8.9h-15.879v6.312h-9.236v-6.312h-15.879v12.877h-8.477v-6.565l-24.798-3.661v16.981a2.832 2.832 0 002.847 2.84h21.951v37.498l-24.798-3.662v16.981a2.832 2.832 0 002.847 2.841h30.302v10.605a2.563 2.563 0 002.594 2.588h10.691a2.562 2.562 0 002.593-2.588v-10.605h9.237v10.605a2.562 2.562 0 002.593 2.588h10.691a2.563 2.563 0 002.594-2.588v-11.11c3.29-.316 6.39-.758 9.3-1.326a53.54 53.54 0 008.793-2.525c2.657-1.01 4.934-2.209 6.895-3.598 1.898-1.389 3.416-3.03 4.492-4.86 1.075-1.768 1.581-3.788 1.645-5.998v-.189V73.353h.126zm-58.39-18.496h11.45c3.48 0 6.263.19 8.351.568 2.088.379 3.796.884 5.187 1.515 1.392.694 2.404 1.515 3.1 2.525.696 1.01 1.012 2.146 1.012 3.409 0 .252 0 .505-.063.82-1.835-.757-3.416-1.388-3.416-1.388l-25.684 2.21v-9.66h.063zm27.202 36.865v5.682c-.885.252-1.897.505-2.91.694-2.15.379-4.807.568-7.97.568h-4.998v-6.375h-9.236v6.375h-2.088v-17.99h13.412c4.111 0 7.464.189 10.058.63 2.594.443 4.681 1.01 6.389 1.831 1.645.758 2.91 1.768 3.796 2.904a6.231 6.231 0 011.202 3.093l-7.655 2.588z"/>
  <path fill="#245BAA" d="M292.014 81.496c-.886-1.136-2.151-2.146-3.796-2.904-1.645-.757-3.796-1.389-6.389-1.83-2.594-.442-5.947-.632-10.059-.632h-13.411v1.01h13.411c4.112 0 7.465.19 10.059.632 2.593.441 4.681 1.01 6.389 1.83 1.645.758 2.91 1.768 3.796 2.904a6.057 6.057 0 011.012 2.146l.19-.063a6.24 6.24 0 00-1.202-3.093zM258.422 51.322h11.45c3.48 0 6.263.189 8.351.568 2.088.379 3.796.884 5.187 1.515 1.392.694 2.404 1.515 3.1 2.525.569.884.949 1.83 1.012 2.904 0-.19.064-.316.064-.505 0-1.263-.317-2.4-1.013-3.41-.695-1.01-1.708-1.83-3.099-2.524-1.392-.695-3.1-1.2-5.188-1.515-2.087-.379-4.871-.568-8.35-.568h-11.451v1.01h-.063zM292.14 51.827c.253-2.652 2.341-5.05 4.429-7.45-.253-.062-.443-.126-.696-.189-2.151 2.462-3.986 4.924-3.733 7.639zM306.121 64.767c-1.328 1.137-2.91 2.084-4.871 2.904-1.898.821-4.112 1.515-6.579 2.083.885.064 1.708.19 2.593.316 1.455-.379 2.784-.884 3.986-1.389 1.898-.82 3.543-1.83 4.871-2.903.949-.821 1.708-1.642 2.341-2.589h-.759a9.33 9.33 0 01-1.582 1.578zM214.329 51.322h21.952v-1.01h-21.952a2.832 2.832 0 01-2.847-2.841v1.01c-.063 1.515 1.265 2.84 2.847 2.84zM283.031 117.162H272.34a2.563 2.563 0 01-2.594-2.588v1.01a2.563 2.563 0 002.594 2.588h10.691a2.562 2.562 0 002.593-2.588v-1.01a2.602 2.602 0 01-2.593 2.588zM269.746 103.969h-9.236v1.01h9.236v-1.01zM316.812 85.157c0 2.21-.569 4.167-1.645 5.997-1.075 1.831-2.593 3.472-4.491 4.861-1.898 1.389-4.239 2.588-6.896 3.598-2.656 1.01-5.63 1.831-8.793 2.525-2.91.568-6.073 1.01-9.362 1.326v1.01c3.289-.316 6.389-.758 9.362-1.326a53.512 53.512 0 008.793-2.525c2.657-1.01 4.935-2.21 6.896-3.598 1.898-1.389 3.416-3.03 4.491-4.86 1.076-1.768 1.582-3.788 1.645-5.998v-.189-.821zM257.916 117.162h-10.691a2.563 2.563 0 01-2.594-2.588v1.01a2.563 2.563 0 002.594 2.588h10.691a2.563 2.563 0 002.594-2.588v-1.01c0 1.389-1.202 2.588-2.594 2.588zM244.568 103.969h-30.302a2.832 2.832 0 01-2.847-2.841v1.01a2.832 2.832 0 002.847 2.841h30.302v-1.01z"/>
  <path fill="url(#paint32_radial)" d="M315.547 74.3l-3.796 2.966-.126 2.778c-.38-.316-.759-.568-1.202-.884-1.076-.694-2.214-1.325-3.48-1.83l-17.839 6.25c1.265.694 2.214 1.514 2.91 2.461a6.24 6.24 0 011.202 3.093l-7.655 2.652v16.16a97.077 97.077 0 009.3-1.326 53.54 53.54 0 008.793-2.525c2.657-1.01 4.934-2.209 6.895-3.598 1.898-1.389 3.416-3.03 4.492-4.86 1.075-1.768 1.581-3.788 1.645-5.998v-.189-15.593l-1.139.443z"/>
  <path fill="#245BAA" d="M292.014 82.38c.569.757.886 1.515 1.075 2.398l.127-.063c-.127-1.136-.569-2.146-1.202-3.093-.569-.757-1.265-1.389-2.151-2.02l-.759.253c1.265.757 2.214 1.578 2.91 2.525zM316.812 85.284c0 2.209-.569 4.166-1.645 5.997-1.075 1.83-2.593 3.471-4.491 4.86-1.898 1.39-4.239 2.588-6.896 3.599-2.656 1.01-5.63 1.83-8.793 2.525-2.91.568-6.073 1.01-9.362 1.325v.758c3.289-.316 6.389-.758 9.362-1.326a53.512 53.512 0 008.793-2.525c2.657-1.01 4.935-2.21 6.896-3.598 1.898-1.389 3.416-3.03 4.491-4.86 1.076-1.769 1.582-3.788 1.645-5.998v-.189V85.284z"/>
  <path fill="url(#paint33_radial)" d="M258.422 54.857h11.45c3.48 0 6.263.19 8.351.568 1.898.316 3.542.82 4.871 1.389h5.883V43.746l-3.353-2.461V37.18h-15.878v1.515h-9.236v-1.515h-3.733v19.57h1.645v-1.894z"/>
  <path fill="url(#paint34_radial)" d="M258.422 80.675h13.411c4.112 0 7.465.19 10.059.632 2.594.442 4.681 1.01 6.389 1.83.127.063.19.126.317.126h5.44V62.37h-6.453v.505c0 .252 0 .505-.063.82-1.518-.63-2.783-1.136-3.226-1.325h-.886l-24.925 2.146v-2.146h-2.404v20.894h2.404v-2.588h-.063z"/>
  <path fill="url(#paint35_radial)" d="M269.746 92.29h-9.236v16.161h9.236v-16.16z"/>
  <path fill="url(#paint36_radial)" d="M315.104 67.482c-1.139-1.704-2.72-3.22-4.681-4.545-1.961-1.263-4.302-2.336-6.959-3.156-1.961-.632-4.112-1.074-6.326-1.39-.443-.062-.506-.757-.063-.883 1.518-.442 2.973-.947 4.238-1.515 1.898-.82 3.543-1.83 4.871-2.904 1.329-1.136 2.341-2.335 3.037-3.724.696-1.326 1.012-2.778 1.012-4.356 0-2.714-.886-5.113-2.594-7.133-1.708-2.02-4.175-3.725-7.465-4.987-3.226-1.326-7.211-2.336-11.956-2.967-.253-.063-.569-.063-.886-.126-.948-.127-1.708-.947-1.708-1.894v-9.406a2.4 2.4 0 00-2.404-2.399h-11.07a2.4 2.4 0 00-2.404 2.399v8.838c0 .883-.759 1.641-1.645 1.641h-5.947c-.885 0-1.644-.758-1.644-1.641v-8.838a2.4 2.4 0 00-2.404-2.399h-11.071a2.4 2.4 0 00-2.404 2.399v8.838c0 .883-.759 1.641-1.645 1.641h-28.72a2.765 2.765 0 00-2.784 2.777v4.04a2.765 2.765 0 002.784 2.778h18.409c1.961 0 3.606 1.578 3.606 3.598v36.866a3.6 3.6 0 01-3.606 3.598h-18.409a2.765 2.765 0 00-2.784 2.778v4.04a2.765 2.765 0 002.784 2.778h30.302v10.731a2.4 2.4 0 002.404 2.399h11.071a2.4 2.4 0 002.403-2.399v-8.9c0-.948.76-1.768 1.772-1.768h5.693c.949 0 1.772.757 1.772 1.767v8.964a2.4 2.4 0 002.404 2.399h11.07a2.4 2.4 0 002.404-2.399v-9.216c0-1.2.886-2.21 2.088-2.336 2.53-.316 4.934-.694 7.275-1.136a53.56 53.56 0 008.793-2.525c2.657-1.01 4.934-2.21 6.896-3.599 1.897-1.388 3.416-3.03 4.491-4.86 1.076-1.831 1.645-3.851 1.645-6.123.063-2.084-.506-3.978-1.645-5.745zM287.585 46.65c0 1.137-.316 2.21-.948 3.283-.633 1.01-1.582 1.894-2.91 2.714-1.266.758-2.91 1.39-4.872 1.831-1.961.442-4.554.631-7.844.631h-11.007a1.632 1.632 0 01-1.645-1.641V40.275c0-.884.696-1.642 1.645-1.642h9.805c3.479 0 6.263.19 8.351.568 2.087.38 3.795.884 5.187 1.515 1.392.695 2.404 1.515 3.1 2.526a5.532 5.532 0 011.138 3.408zm4.429 30.806c-.886 1.136-2.151 2.083-3.733 2.778-1.581.757-3.416 1.262-5.567 1.64-2.151.38-4.807.569-7.971.569H260.32a1.901 1.901 0 01-1.898-1.894V66.41c0-1.073.886-1.894 1.898-1.894h11.513c4.112 0 7.465.19 10.059.631 2.594.442 4.681 1.01 6.389 1.831 1.645.757 2.91 1.767 3.796 2.904a6.026 6.026 0 011.265 3.724 6.322 6.322 0 01-1.328 3.85z"/>
  <path fill="url(#paint37_radial)" d="M306.121 53.152c-1.328 1.137-2.91 2.084-4.871 2.904a36.915 36.915 0 01-4.238 1.515c-.443.126-.443.758.063.884.506.063.949.126 1.392.252 1.012-.315 1.897-.694 2.783-1.073 1.898-.82 3.543-1.83 4.871-2.904 1.329-1.136 2.341-2.335 3.037-3.724.696-1.326 1.012-2.778 1.012-4.356 0-.315 0-.631-.063-.883a8.639 8.639 0 01-1.013 3.724c-.632 1.263-1.644 2.525-2.973 3.661z"/>
  <path fill="url(#paint38_radial)" d="M214.266 40.148h18.409c1.961 0 3.606 1.578 3.606 3.598v-1.515a3.6 3.6 0 00-3.606-3.598h-18.409a2.765 2.765 0 01-2.784-2.777v1.515c-.063 1.515 1.202 2.777 2.784 2.777z"/>
  <path fill="url(#paint39_radial)" d="M292.014 69.818c-.886-1.137-2.151-2.147-3.796-2.904-1.645-.758-3.796-1.389-6.389-1.83-2.594-.443-5.947-.632-10.059-.632h-11.513a1.901 1.901 0 00-1.898 1.894v1.515a1.9 1.9 0 011.898-1.894h11.513c4.112 0 7.465.19 10.059.631 2.593.442 4.681 1.01 6.389 1.83 1.645.758 2.91 1.768 3.796 2.905.696.947 1.075 1.957 1.265 3.093.063-.316.063-.632.063-.884-.063-1.389-.506-2.588-1.328-3.724z"/>
  <path fill="url(#paint40_radial)" d="M258.422 40.275v1.514c0-.883.696-1.64 1.645-1.64h9.805c3.48 0 6.263.189 8.351.567 2.088.38 3.796.884 5.187 1.515 1.392.695 2.404 1.515 3.1 2.526.569.82.886 1.704.949 2.65.063-.252.063-.504.063-.757 0-1.262-.316-2.398-1.012-3.408-.696-1.01-1.708-1.831-3.1-2.526-1.391-.694-3.099-1.199-5.187-1.515-2.088-.378-4.871-.568-8.351-.568h-9.868c-.886 0-1.582.758-1.582 1.642z"/>
  <path fill="url(#paint41_radial)" d="M315.167 79.413c-1.075 1.83-2.593 3.472-4.491 4.86-1.898 1.39-4.239 2.589-6.896 3.599-2.656 1.01-5.63 1.83-8.793 2.525-2.277.442-4.744.82-7.275 1.136a2.332 2.332 0 00-2.087 2.336v1.515c0-1.2.885-2.21 2.087-2.336 2.531-.316 4.935-.694 7.275-1.136a53.531 53.531 0 008.793-2.525c2.657-1.01 4.935-2.21 6.896-3.599 1.898-1.388 3.416-3.03 4.491-4.86 1.076-1.83 1.645-3.85 1.645-6.123v-.758c-.19 2.02-.696 3.788-1.645 5.366z"/>
  <path fill="url(#paint42_radial)" d="M283.22 105.484h-11.07a2.4 2.4 0 01-2.404-2.399v1.515a2.4 2.4 0 002.404 2.399h11.07a2.4 2.4 0 002.404-2.399v-1.515a2.4 2.4 0 01-2.404 2.399z"/>
  <path fill="url(#paint43_radial)" d="M244.568 92.29h-30.365a2.765 2.765 0 01-2.784-2.777v1.515a2.764 2.764 0 002.784 2.778h30.365V92.29z"/>
  <path fill="url(#paint44_radial)" d="M269.746 94.058c0-.947-.759-1.767-1.772-1.767h-5.693c-.949 0-1.771.757-1.771 1.767v1.515c0-.947.759-1.767 1.771-1.767h5.693c.949 0 1.772.757 1.772 1.767v-1.515z"/>
  <path fill="url(#paint45_radial)" d="M258.043 105.484h-11.071a2.4 2.4 0 01-2.404-2.399v1.515a2.4 2.4 0 002.404 2.399h11.071a2.4 2.4 0 002.404-2.399v-1.515c.063 1.326-1.013 2.399-2.404 2.399z"/>
  <path fill="url(#paint46_radial)" d="M252.855 268.602L143.35 315l-64.463-27.334 109.505-46.334 64.463 27.27z"/>
  <path fill="#E23B14" d="M240.709 193.987l-108.177-45.83c-.949-.442-1.771-1.515-1.771-2.525 0-.947.759-1.452 1.771-1.01l108.177 45.83c.949.442 1.771 1.515 1.771 2.525 0 .947-.759 1.389-1.771 1.01z"/>
  <path fill="url(#paint47_linear)" d="M139.048 147.4l-14.297 6.06c-13.095 5.555-23.723 20.642-23.723 33.772v37.182c0 13.067-10.628 28.217-23.723 33.772l-34.098 14.456L143.35 315l34.098-14.456c13.095-5.555 23.723-20.642 23.723-33.772V229.59c0-13.067 10.628-28.217 23.723-33.772l14.297-6.061L139.048 147.4z"/>
  <path fill="#CECECE" d="M136.075 148.662l100.143 42.421 3.036-1.262L139.048 147.4l-2.973 1.262z"/>
  <path fill="#E0E0E0" d="M162.265 171.072l-30.112-12.751c-.443-.19-.443-.505 0-.695.443-.189 1.202-.189 1.645 0l30.112 12.752c.443.189.443.505 0 .694-.443.19-1.202.19-1.645 0zM140.567 165.833l-13.096-5.555c-.442-.19-.442-.505 0-.695.443-.189 1.202-.189 1.645 0l13.095 5.555c.443.19.443.505 0 .695-.442.189-1.202.189-1.644 0zM154.358 171.64l-6.137-2.588c-.443-.189-.443-.505 0-.694.443-.19 1.202-.19 1.645 0l6.136 2.588c.443.189.443.505 0 .694-.506.19-1.202.19-1.644 0zM205.409 193.293l-18.978-8.017c-.443-.19-.443-.505 0-.695.443-.189 1.202-.189 1.645 0l18.978 8.017c.443.19.443.505 0 .695-.443.189-1.202.189-1.645 0zM179.093 182.119l-16.954-7.196c-.443-.19-.443-.505 0-.695.443-.189 1.202-.189 1.644 0l16.955 7.197c.442.189.442.505 0 .694-.507.19-1.202.19-1.645 0zM182.952 179.784l-13.412-5.682c-.443-.189-.443-.505 0-.694.443-.19 1.202-.19 1.645 0l13.411 5.681c.443.19.443.505 0 .695-.506.189-1.202.189-1.644 0zM210.091 191.336l-19.864-8.396c-.443-.19-.443-.505 0-.695.442-.189 1.201-.189 1.644 0l19.864 8.396c.443.19.443.505 0 .695-.442.189-1.202.189-1.644 0zM123.106 204.277l-11.703-4.987c-.443-.19-.822-.695-.822-1.137 0-.442.379-.631.822-.442l11.703 4.987c.443.19.823.695.823 1.137 0 .442-.38.631-.823.442zM189.088 232.178l-5.061-2.146c-.443-.189-.822-.694-.822-1.136 0-.442.379-.631.822-.442l5.061 2.146c.443.19.822.695.822 1.137-.063.441-.379.631-.822.441zM189.088 236.913l-5.061-2.146c-.443-.19-.822-.695-.822-1.137 0-.442.379-.631.822-.442l5.061 2.147c.443.189.822.694.822 1.136-.063.442-.379.631-.822.442zM117.856 206.739l-6.453-2.715c-.443-.189-.822-.694-.822-1.136 0-.442.379-.631.822-.442l6.453 2.714c.443.19.822.695.822 1.137-.063.442-.379.631-.822.442zM142.654 217.281l-19.674-8.333c-.443-.19-.822-.695-.822-1.136 0-.442.379-.632.822-.442l19.674 8.332c.443.19.823.695.823 1.137 0 .378-.38.631-.823.442zM136.201 209.832l-7.275-3.094c-.442-.189-.822-.694-.822-1.136 0-.442.38-.631.822-.442l7.275 3.093c.443.19.823.695.823 1.137 0 .378-.38.631-.823.442zM159.861 219.869l-17.713-7.512c-.443-.19-.822-.695-.822-1.137 0-.441.379-.631.822-.441l17.713 7.512c.443.189.823.694.823 1.136 0 .379-.38.631-.823.442zM123.106 214.061l-11.703-4.987c-.443-.189-.822-.694-.822-1.136 0-.442.379-.631.822-.442l11.703 4.987c.443.189.823.694.823 1.136 0 .442-.38.631-.823.442zM189.088 242.026l-5.061-2.146c-.443-.19-.822-.695-.822-1.137 0-.441.379-.631.822-.441l5.061 2.146c.443.189.822.694.822 1.136-.063.442-.379.631-.822.442zM189.088 246.76l-5.061-2.146c-.443-.189-.822-.694-.822-1.136 0-.442.379-.631.822-.442l5.061 2.146c.443.19.822.695.822 1.137-.063.378-.379.631-.822.441zM117.856 216.586l-6.453-2.714c-.443-.19-.822-.695-.822-1.137 0-.441.379-.631.822-.441l6.453 2.714c.443.189.822.694.822 1.136-.063.379-.379.632-.822.442zM142.654 227.065l-19.674-8.333c-.443-.189-.822-.694-.822-1.136 0-.442.379-.631.822-.442l19.674 8.333c.443.189.823.694.823 1.136 0 .442-.38.631-.823.442zM136.201 219.616l-7.275-3.093c-.442-.189-.822-.694-.822-1.136 0-.442.38-.632.822-.442l7.275 3.093c.443.189.823.694.823 1.136 0 .442-.38.632-.823.442zM159.861 229.653l-17.713-7.512c-.443-.189-.822-.694-.822-1.136 0-.442.379-.631.822-.442l17.713 7.512c.443.19.823.695.823 1.136 0 .442-.38.632-.823.442zM123.106 223.972l-11.703-4.987c-.443-.189-.822-.694-.822-1.136 0-.442.379-.632.822-.442l11.703 4.987c.443.189.823.694.823 1.136 0 .442-.38.631-.823.442zM189.088 251.874l-5.061-2.147c-.443-.189-.822-.694-.822-1.136 0-.442.379-.631.822-.442l5.061 2.147c.443.189.822.694.822 1.136-.063.442-.379.631-.822.442zM189.088 256.608l-5.061-2.146c-.443-.189-.822-.694-.822-1.136 0-.442.379-.632.822-.442l5.061 2.146c.443.189.822.694.822 1.136-.063.442-.379.632-.822.442zM117.856 226.434l-6.453-2.715c-.443-.189-.822-.694-.822-1.136 0-.442.379-.631.822-.442l6.453 2.715c.443.189.822.694.822 1.136-.063.442-.379.631-.822.442zM142.654 236.913l-19.674-8.333c-.443-.189-.822-.694-.822-1.136 0-.442.379-.631.822-.442l19.674 8.333c.443.189.823.694.823 1.136 0 .442-.38.631-.823.442zM136.201 229.527l-7.275-3.093c-.442-.19-.822-.695-.822-1.136 0-.442.38-.632.822-.442l7.275 3.093c.443.189.823.694.823 1.136 0 .379-.38.631-.823.442zM159.861 239.564l-17.713-7.512c-.443-.189-.822-.694-.822-1.136 0-.442.379-.631.822-.442l17.713 7.512c.443.189.823.694.823 1.136 0 .379-.38.632-.823.442z"/>
  <g stroke="#CECECE" stroke-linecap="round" stroke-miterlimit="10" opacity=".4">
    <path d="M107.987 174.165l1.202.505" opacity=".4"/>
    <path stroke-dasharray="4.02 4.02" d="M111.53 175.617l87.806 37.245" opacity=".4"/>
    <path d="M200.475 213.304l1.202.505" opacity=".4"/>
  </g>
  <g stroke="#CECECE" stroke-linecap="round" stroke-miterlimit="10" opacity=".4">
    <path d="M97.802 242.91l1.202.505" opacity=".4"/>
    <path stroke-dasharray="4.02 4.02" d="M101.345 244.362l87.806 37.244" opacity=".4"/>
    <path d="M190.29 282.048l1.202.505" opacity=".4"/>
  </g>
  <path fill="#FFC476" d="M410.502 145.254l-3.543 1.515c-.442.189-.759 0-.759-.442v-3.535c0-.442.317-.884.759-1.074l3.543-1.515c.443-.189.759 0 .759.442v3.535c0 .442-.316.884-.759 1.074zM402.658 148.599l-3.543 1.515c-.443.19-.759 0-.759-.442v-3.535c0-.442.316-.884.759-1.073l3.543-1.515c.443-.189.759 0 .759.442v3.535c0 .379-.316.884-.759 1.073zM394.813 151.882l-3.542 1.515c-.443.189-.76 0-.76-.442v-3.535c0-.442.317-.884.76-1.073l3.542-1.515c.443-.19.759 0 .759.442v3.535c0 .442-.316.947-.759 1.073z"/>
  <path fill="#EF5316" d="M250.957 258.628a2.211 2.211 0 002.214-2.209c0-1.22-.991-2.21-2.214-2.21-1.223 0-2.214.99-2.214 2.21s.991 2.209 2.214 2.209zM309.98 245.751c1.223 0 2.214-.99 2.214-2.21s-.991-2.209-2.214-2.209a2.211 2.211 0 00-2.214 2.209c0 1.22.991 2.21 2.214 2.21z"/>
  <path fill="#FE751A" d="M329.085 221.384a2.212 2.212 0 002.214-2.21c0-1.22-.991-2.209-2.214-2.209a2.211 2.211 0 00-2.214 2.209c0 1.221.991 2.21 2.214 2.21zM250.957 233.883a2.212 2.212 0 002.214-2.21c0-1.22-.991-2.209-2.214-2.209a2.211 2.211 0 00-2.214 2.209c0 1.221.991 2.21 2.214 2.21z"/>
  <path fill="#FFC476" d="M349.518 199.163a2.211 2.211 0 002.214-2.209c0-1.22-.991-2.209-2.214-2.209a2.211 2.211 0 00-2.214 2.209c0 1.22.991 2.209 2.214 2.209z"/>
  <path stroke="#E0E0E0" stroke-miterlimit="10" d="M58.77 146.516l9.489-3.977 9.49 3.977 9.488-3.977-9.489-4.04 9.49-4.04-9.49-4.04-28.53 12.12 9.552 3.977zM96.79 154.596l9.489-4.04-9.49-4.04-9.552 4.04 9.553 4.04zM476.23 146.516l9.49-3.977-18.979-8.08-9.489 4.04 18.978 8.017z"/>
  <defs>
    <radialGradient id="paint1_radial" cx="0" cy="0" r="1" gradientTransform="matrix(305.00739 -129.19915 114.2757 269.7768 269.204 282.289)" gradientUnits="userSpaceOnUse">
      <stop stop-color="#E0E0E0"/>
      <stop offset="1" stop-color="#F9F9F9" stop-opacity="0"/>
    </radialGradient>
    <radialGradient id="paint2_radial" cx="0" cy="0" r="1" gradientTransform="matrix(238.404 0 0 292.944 -14.34 143.638)" gradientUnits="userSpaceOnUse">
      <stop stop-color="#F9F9F9"/>
      <stop offset="1" stop-color="#E0E0E0"/>
    </radialGradient>
    <radialGradient id="paint3_radial" cx="0" cy="0" r="1" gradientTransform="matrix(14.2584 0 0 14.228 87.853 177.952)" gradientUnits="userSpaceOnUse">
      <stop stop-color="#fff"/>
      <stop offset="1" stop-color="#fff" stop-opacity="0"/>
    </radialGradient>
    <radialGradient id="paint4_radial" cx="0" cy="0" r="1" gradientTransform="matrix(284.398 0 0 283.791 162.339 170.009)" gradientUnits="userSpaceOnUse">
      <stop stop-color="#CECECE"/>
      <stop offset="1" stop-color="#F9F9F9" stop-opacity="0"/>
    </radialGradient>
    <radialGradient id="paint5_radial" cx="0" cy="0" r="1" gradientTransform="rotate(-27.443 496.543 187.776) scale(170.365 175.167)" gradientUnits="userSpaceOnUse">
      <stop stop-color="#E0E0E0"/>
      <stop offset="1" stop-color="#F9F9F9"/>
    </radialGradient>
    <radialGradient id="paint6_radial" cx="0" cy="0" r="1" gradientTransform="matrix(238.404 0 0 292.944 346.109 143.638)" gradientUnits="userSpaceOnUse">
      <stop stop-color="#F9F9F9"/>
      <stop offset="1" stop-color="#E0E0E0"/>
    </radialGradient>
    <radialGradient id="paint7_radial" cx="0" cy="0" r="1" gradientTransform="matrix(14.2584 0 0 14.228 448.302 177.952)" gradientUnits="userSpaceOnUse">
      <stop stop-color="#fff"/>
      <stop offset="1" stop-color="#fff" stop-opacity="0"/>
    </radialGradient>
    <radialGradient id="paint8_radial" cx="0" cy="0" r="1" gradientTransform="rotate(-27.443 676.745 -550.326) scale(170.365 175.167)" gradientUnits="userSpaceOnUse">
      <stop stop-color="#E0E0E0"/>
      <stop offset="1" stop-color="#F9F9F9"/>
    </radialGradient>
    <radialGradient id="paint9_radial" cx="0" cy="0" r="1" gradientTransform="matrix(255.09 0 0 254.546 529.535 158.366)" gradientUnits="userSpaceOnUse">
      <stop stop-color="#CECECE"/>
      <stop offset="1" stop-color="#F9F9F9" stop-opacity="0"/>
    </radialGradient>
    <radialGradient id="paint10_radial" cx="0" cy="0" r="1" gradientTransform="matrix(397.95 0 0 488.99 260.468 -279.093)" gradientUnits="userSpaceOnUse">
      <stop stop-color="#F9F9F9"/>
      <stop offset="1" stop-color="#E0E0E0"/>
    </radialGradient>
    <radialGradient id="paint11_radial" cx="0" cy="0" r="1" gradientTransform="matrix(252.37665 -131.06058 134.75443 259.48971 70.636 241.168)" gradientUnits="userSpaceOnUse">
      <stop stop-color="#E0E0E0"/>
      <stop offset="1" stop-color="#F9F9F9"/>
    </radialGradient>
    <radialGradient id="paint12_radial" cx="0" cy="0" r="1" gradientTransform="matrix(882.168 0 0 880.286 266.934 141.191)" gradientUnits="userSpaceOnUse">
      <stop stop-color="#CECECE"/>
      <stop offset="1" stop-color="#F9F9F9" stop-opacity="0"/>
    </radialGradient>
    <radialGradient id="paint13_radial" cx="0" cy="0" r="1" gradientTransform="matrix(882.168 0 0 880.286 266.934 141.191)" gradientUnits="userSpaceOnUse">
      <stop stop-color="#CECECE"/>
      <stop offset="1" stop-color="#F9F9F9" stop-opacity="0"/>
    </radialGradient>
    <radialGradient id="paint14_radial" cx="0" cy="0" r="1" gradientTransform="matrix(430.34 0 0 429.422 122.277 -10.733)" gradientUnits="userSpaceOnUse">
      <stop stop-color="#CECECE"/>
      <stop offset="1" stop-color="#F9F9F9" stop-opacity="0"/>
    </radialGradient>
    <radialGradient id="paint15_radial" cx="0" cy="0" r="1" gradientTransform="matrix(403.609 0 0 402.748 186.237 80.588)" gradientUnits="userSpaceOnUse">
      <stop stop-color="#CECECE"/>
      <stop offset="1" stop-color="#F9F9F9" stop-opacity="0"/>
    </radialGradient>
    <radialGradient id="paint16_radial" cx="0" cy="0" r="1" gradientTransform="matrix(565.865 0 0 564.658 268.758 278.817)" gradientUnits="userSpaceOnUse">
      <stop stop-color="#CECECE"/>
      <stop offset="1" stop-color="#F9F9F9" stop-opacity="0"/>
    </radialGradient>
    <radialGradient id="paint21_radial" cx="0" cy="0" r="1" gradientTransform="matrix(116.93 0 0 116.681 267.493 157.265)" gradientUnits="userSpaceOnUse">
      <stop stop-color="#FFC476"/>
      <stop offset="1" stop-color="#EF5316"/>
    </radialGradient>
    <radialGradient id="paint22_radial" cx="0" cy="0" r="1" gradientTransform="matrix(230.917 0 0 230.425 68.14 64.281)" gradientUnits="userSpaceOnUse">
      <stop stop-color="#FFC476"/>
      <stop offset="1" stop-color="#EF5316"/>
    </radialGradient>
    <radialGradient id="paint23_radial" cx="0" cy="0" r="1" gradientTransform="matrix(62.3379 0 0 62.2048 267.422 163.319)" gradientUnits="userSpaceOnUse">
      <stop stop-color="#FFC476"/>
      <stop offset="1" stop-color="#FF9B48" stop-opacity="0"/>
    </radialGradient>
    <radialGradient id="paint24_radial" cx="0" cy="0" r="1" gradientTransform="rotate(-22.957 371.075 -248.769) scale(575.521 413.398)" gradientUnits="userSpaceOnUse">
      <stop stop-color="#FFC476"/>
      <stop offset="1" stop-color="#EF5316"/>
    </radialGradient>
    <radialGradient id="paint25_radial" cx="0" cy="0" r="1" gradientTransform="matrix(778.238 0 0 776.578 154.179 134.409)" gradientUnits="userSpaceOnUse">
      <stop stop-color="#FFC476"/>
      <stop offset="1" stop-color="#FF9B48" stop-opacity="0"/>
    </radialGradient>
    <radialGradient id="paint26_radial" cx="0" cy="0" r="1" gradientTransform="rotate(-22.957 733.184 -742.7) scale(225.263 161.807)" gradientUnits="userSpaceOnUse">
      <stop stop-color="#FFC476"/>
      <stop offset="1" stop-color="#EF5316"/>
    </radialGradient>
    <radialGradient id="paint27_radial" cx="0" cy="0" r="1" gradientTransform="matrix(900.442 0 0 898.521 384.255 116.212)" gradientUnits="userSpaceOnUse">
      <stop stop-color="#FFC476"/>
      <stop offset="1" stop-color="#FF9B48" stop-opacity="0"/>
    </radialGradient>
    <radialGradient id="paint28_radial" cx="0" cy="0" r="1" gradientTransform="matrix(652.153 0 0 650.762 23.739 6.948)" gradientUnits="userSpaceOnUse">
      <stop stop-color="#FFC476"/>
      <stop offset="1" stop-color="#EF5316"/>
    </radialGradient>
    <radialGradient id="paint29_radial" cx="0" cy="0" r="1" gradientTransform="matrix(332.798 0 0 311 109.324 -63.153)" gradientUnits="userSpaceOnUse">
      <stop stop-color="#FFC476"/>
      <stop offset="1" stop-color="#EF5316" stop-opacity=".7"/>
    </radialGradient>
    <radialGradient id="paint30_radial" cx="0" cy="0" r="1" gradientTransform="matrix(83.3932 0 0 83.2152 225.375 19.948)" gradientUnits="userSpaceOnUse">
      <stop stop-color="#88C4FF"/>
      <stop offset="1" stop-color="#528CE2"/>
    </radialGradient>
    <radialGradient id="paint31_radial" cx="0" cy="0" r="1" gradientTransform="matrix(120.773 0 0 120.516 159.305 -12.322)" gradientUnits="userSpaceOnUse">
      <stop stop-color="#88C4FF"/>
      <stop offset="1" stop-color="#3A72C9"/>
    </radialGradient>
    <radialGradient id="paint32_radial" cx="0" cy="0" r="1" gradientTransform="matrix(83.3932 0 0 83.2152 225.375 19.948)" gradientUnits="userSpaceOnUse">
      <stop stop-color="#88C4FF"/>
      <stop offset="1" stop-color="#3A72C9"/>
    </radialGradient>
    <radialGradient id="paint33_radial" cx="0" cy="0" r="1" gradientTransform="matrix(57.8843 0 0 57.7608 207.609 13.115)" gradientUnits="userSpaceOnUse">
      <stop stop-color="#88C4FF"/>
      <stop offset="1" stop-color="#3A72C9"/>
    </radialGradient>
    <radialGradient id="paint34_radial" cx="0" cy="0" r="1" gradientTransform="matrix(57.8843 0 0 57.7608 207.61 13.115)" gradientUnits="userSpaceOnUse">
      <stop stop-color="#88C4FF"/>
      <stop offset="1" stop-color="#3A72C9"/>
    </radialGradient>
    <radialGradient id="paint35_radial" cx="0" cy="0" r="1" gradientTransform="matrix(83.3932 0 0 83.2152 225.375 19.948)" gradientUnits="userSpaceOnUse">
      <stop stop-color="#88C4FF"/>
      <stop offset="1" stop-color="#3A72C9"/>
    </radialGradient>
    <radialGradient id="paint36_radial" cx="0" cy="0" r="1" gradientTransform="matrix(193.413 0 0 180.745 165.134 -47.968)" gradientUnits="userSpaceOnUse">
      <stop stop-color="#C7E6FF"/>
      <stop offset="1" stop-color="#5A9FF4"/>
    </radialGradient>
    <radialGradient id="paint37_radial" cx="0" cy="0" r="1" gradientTransform="matrix(135.752 0 0 135.463 228.837 104.017)" gradientUnits="userSpaceOnUse">
      <stop stop-color="#C7E6FF"/>
      <stop offset="1" stop-color="#5A9FF4"/>
    </radialGradient>
    <radialGradient id="paint38_radial" cx="0" cy="0" r="1" gradientTransform="matrix(135.752 0 0 135.463 228.837 104.017)" gradientUnits="userSpaceOnUse">
      <stop stop-color="#C7E6FF"/>
      <stop offset="1" stop-color="#5A9FF4"/>
    </radialGradient>
    <radialGradient id="paint39_radial" cx="0" cy="0" r="1" gradientTransform="matrix(135.752 0 0 135.463 228.837 104.017)" gradientUnits="userSpaceOnUse">
      <stop stop-color="#C7E6FF"/>
      <stop offset="1" stop-color="#5A9FF4"/>
    </radialGradient>
    <radialGradient id="paint40_radial" cx="0" cy="0" r="1" gradientTransform="matrix(135.752 0 0 135.463 228.837 104.017)" gradientUnits="userSpaceOnUse">
      <stop stop-color="#C7E6FF"/>
      <stop offset="1" stop-color="#5A9FF4"/>
    </radialGradient>
    <radialGradient id="paint41_radial" cx="0" cy="0" r="1" gradientTransform="matrix(135.752 0 0 135.463 228.837 104.017)" gradientUnits="userSpaceOnUse">
      <stop stop-color="#C7E6FF"/>
      <stop offset="1" stop-color="#5A9FF4"/>
    </radialGradient>
    <radialGradient id="paint42_radial" cx="0" cy="0" r="1" gradientTransform="matrix(135.752 0 0 135.463 228.837 104.017)" gradientUnits="userSpaceOnUse">
      <stop stop-color="#C7E6FF"/>
      <stop offset="1" stop-color="#5A9FF4"/>
    </radialGradient>
    <radialGradient id="paint43_radial" cx="0" cy="0" r="1" gradientTransform="matrix(135.752 0 0 135.463 228.837 104.017)" gradientUnits="userSpaceOnUse">
      <stop stop-color="#C7E6FF"/>
      <stop offset="1" stop-color="#5A9FF4"/>
    </radialGradient>
    <radialGradient id="paint44_radial" cx="0" cy="0" r="1" gradientTransform="matrix(135.752 0 0 135.462 228.837 104.017)" gradientUnits="userSpaceOnUse">
      <stop stop-color="#C7E6FF"/>
      <stop offset="1" stop-color="#5A9FF4"/>
    </radialGradient>
    <radialGradient id="paint45_radial" cx="0" cy="0" r="1" gradientTransform="matrix(135.752 0 0 135.463 228.837 104.017)" gradientUnits="userSpaceOnUse">
      <stop stop-color="#C7E6FF"/>
      <stop offset="1" stop-color="#5A9FF4"/>
    </radialGradient>
    <radialGradient id="paint46_radial" cx="0" cy="0" r="1" gradientTransform="matrix(55.4703 0 0 55.3519 194.341 300.221)" gradientUnits="userSpaceOnUse">
      <stop stop-color="#E0E0E0"/>
      <stop offset=".398" stop-color="#E5E5E5" stop-opacity=".602"/>
      <stop offset=".892" stop-color="#F5F5F5" stop-opacity=".108"/>
      <stop offset="1" stop-color="#F9F9F9" stop-opacity="0"/>
    </radialGradient>
    <linearGradient id="paint0_linear" x1="115.281" x2="419.705" y1="207.799" y2="207.799" gradientUnits="userSpaceOnUse">
      <stop stop-color="#CECECE"/>
      <stop offset=".497" stop-color="#E0E0E0"/>
      <stop offset=".517" stop-color="#E5E5E5"/>
      <stop offset=".594" stop-color="#F0F0F0"/>
      <stop offset=".701" stop-color="#F7F7F7"/>
      <stop offset="1" stop-color="#F9F9F9"/>
    </linearGradient>
    <linearGradient id="paint17_linear" x1="330.202" x2="330.202" y1="172.113" y2="268.91" gradientUnits="userSpaceOnUse">
      <stop stop-color="#fff"/>
      <stop offset="1" stop-color="#F9F9F9" stop-opacity="0"/>
    </linearGradient>
    <linearGradient id="paint18_linear" x1="204.784" x2="204.784" y1="172.113" y2="268.91" gradientUnits="userSpaceOnUse">
      <stop stop-color="#fff"/>
      <stop offset="1" stop-color="#F9F9F9" stop-opacity="0"/>
    </linearGradient>
    <linearGradient id="paint19_linear" x1="284.036" x2="284.036" y1="172.113" y2="268.91" gradientUnits="userSpaceOnUse">
      <stop stop-color="#fff"/>
      <stop offset="1" stop-color="#F9F9F9" stop-opacity="0"/>
    </linearGradient>
    <linearGradient id="paint20_linear" x1="250.95" x2="250.95" y1="172.113" y2="268.91" gradientUnits="userSpaceOnUse">
      <stop stop-color="#fff"/>
      <stop offset="1" stop-color="#F9F9F9" stop-opacity="0"/>
    </linearGradient>
    <linearGradient id="paint47_linear" x1="110.596" x2="172.823" y1="298.809" y2="160.868" gradientUnits="userSpaceOnUse">
      <stop stop-color="#fff"/>
      <stop offset=".025" stop-color="#fff"/>
      <stop offset=".506" stop-color="#F9F9F9"/>
      <stop offset=".707" stop-color="#F9F9F9"/>
      <stop offset=".777" stop-color="#FDFDFD"/>
      <stop offset="1" stop-color="#fff"/>
    </linearGradient>
  </defs>
</svg>
