<svg xmlns="http://www.w3.org/2000/svg" fill="none" viewBox="0 0 500 357">
  <defs/>
  <path fill="url(#paint0_radial)" d="M119.673 200.428c-84.508 35.846-84.508 93.862 0 129.708 84.508 35.846 221.439 35.846 305.947 0 84.508-35.846 84.508-93.862 0-129.708-84.508-35.846-221.439-35.846-305.947 0zm262.113 111.097c-60.282 25.57-157.997 25.57-218.279 0-60.282-25.569-60.282-66.998 0-92.486 60.282-25.489 157.997-25.57 218.279 0 60.282 25.569 60.282 66.917 0 92.486z"/>
  <path fill="url(#paint1_radial)" d="M308.945 107.942v-53.81l-35.894-1.294-123.318 19.177-49.425 29.696-54.043 27.188v31.395s5.104-1.618 13.126-4.127c-7.616 8.901-12.154 18.53-13.126 28.402-.081.809 1.54 1.537 3.484 1.537h23.01c1.135 0 2.107-.405 2.107-.89v-.243c0-.242-.324-.566-.89-.728-4.133-1.295-6.402-3.398-6.159-5.664.405-3.318 6.887-6.069 14.747-6.231 4.78-.08 9.236.729 12.477 2.266 2.107.971 3.403 2.266 3.728 3.641.567 2.347-1.702 4.612-6.158 5.988-.568.162-.81.405-.81.647v.324c0 .485.972.89 2.106.89h23.578c1.864 0 3.403-.566 3.484-1.375 4.862-33.823 71.058-60.606 152.082-60.606 1.945 0 3.565-.648 3.565-1.457v-9.872c0-1.132 2.107-2.022 4.7-2.022h.729c1.459 0 2.755.323 3.646.809 2.998 1.699 7.779 2.508 12.883 2.104 1.783-.162 3.484-.405 4.943-.891 3.727-1.132 5.671-2.912 5.428-4.854z"/>
  <path fill="#3954C4" d="M73.975 175.102c-.486-.162-.891-.324-1.296-.486h-22.93c-1.54 0-2.755-.405-3.241-.971-.081.566-.162 1.214-.243 1.78-.081.809 1.54 1.538 3.484 1.538h23.01c1.135 0 2.107-.405 2.107-.89v-.243c0-.243-.324-.567-.89-.728zM98.606 168.628c.244-.647.325-1.213.163-1.861-.325-1.375-1.621-2.589-3.728-3.641-3.16-1.537-7.697-2.347-12.477-2.266-7.86.162-14.342 2.913-14.747 6.231-.08.566 0 1.052.243 1.537 1.297-2.913 7.293-5.259 14.504-5.421 4.78-.081 9.236.728 12.477 2.266 1.864.89 3.08 2.022 3.565 3.155zM59.39 144.677a4011.67 4011.67 0 00-13.125 4.127v2.346s4.051-1.294 10.614-3.317c.81-1.052 1.62-2.104 2.512-3.156zM273.051 112.635c-81.024 0-147.22 26.783-152.082 60.606-.081.809-1.62 1.375-3.484 1.375H93.988c-.405.162-.891.324-1.377.486-.568.161-.81.404-.81.647v.324c0 .485.972.89 2.106.89h23.578c1.864 0 3.403-.567 3.484-1.376 4.862-33.823 71.058-60.606 152.082-60.606 1.945 0 3.565-.647 3.565-1.456v-2.347c-.081.809-1.62 1.457-3.565 1.457zM308.945 97.18c-.243 1.618-2.188 3.155-5.51 4.126-1.458.486-3.159.729-4.942.891-5.023.404-9.885-.405-12.883-2.104-.891-.486-2.187-.81-3.646-.81h-.729c-2.593 0-4.699.891-4.699 2.023v2.347c0-1.133 2.106-2.023 4.699-2.023h.729c1.459 0 2.755.324 3.646.809 2.998 1.699 7.779 2.509 12.883 2.104 1.783-.162 3.484-.405 4.942-.89 3.809-1.133 5.753-2.994 5.51-4.855V97.18z"/>
  <path fill="url(#paint2_radial)" d="M120.888 128.98s-15.476-14.403-18.068-15.132c-2.593-.728-5.591-2.023-5.591-2.023H80.295l-33.787 16.993-.243.162v3.479l74.704 36.088V128.98h-.081z"/>
  <path fill="url(#paint3_radial)" d="M308.945 54.133l-32.329-1.214V122.587v-9.871c0-1.133 2.107-2.023 4.7-2.023h.729c1.458 0 2.755.323 3.646.809 2.998 1.699 7.778 2.508 12.883 2.104 1.782-.162 3.484-.405 4.942-.89 3.809-1.133 5.753-2.994 5.51-4.855V54.133h-.081z"/>
  <path fill="url(#paint4_radial)" d="M72.76 132.54c1.134 0 2.106-.405 2.106-.89v-.243c0-.243-.324-.566-.89-.728-4.133-1.295-6.402-3.399-6.159-5.664.405-3.318 6.887-6.069 14.747-6.231 4.78-.081 9.236.728 12.477 2.266 2.107.971 3.403 2.265 3.728 3.641.567 2.347-1.702 4.612-6.158 5.988-.568.162-.81.404-.81.647v.324c0 .485.972.89 2.106.89h23.578c1.864 0 3.403-.567 3.484-1.376 4.862-33.822 71.058-60.605 152.082-60.605 1.945 0 3.565-.648 3.565-1.457V59.23c0-1.133 2.107-2.023 4.7-2.023h.729c1.459 0 2.755.324 3.646.81 2.998 1.699 7.778 2.508 12.883 2.103 1.783-.161 3.484-.404 4.942-.89 3.809-1.133 5.753-2.994 5.51-4.855-.405-2.346-4.375-4.37-9.723-4.935-5.185-.567-10.452.242-13.531 2.022-.891.486-2.35.81-3.808.81h-.648c-2.593 0-4.7-.89-4.7-2.023v-9.791c0-.81-1.539-1.457-3.484-1.457h-.081c-122.103 0-221.682 40.863-226.786 92.082-.081.81 1.54 1.538 3.484 1.538h23.01v-.081z"/>
  <path fill="url(#paint5_radial)" d="M72.76 130.355c1.134 0 2.106-.404 2.106-.89v-.243c0-.242-.324-.566-.89-.728-4.133-1.295-6.402-3.398-6.159-5.664.405-3.318 6.887-6.069 14.747-6.23 4.78-.081 9.236.728 12.477 2.265 2.107.971 3.403 2.266 3.728 3.641.567 2.347-1.702 4.613-6.158 5.988-.568.162-.81.405-.81.647v.324c0 .486.972.89 2.106.89h23.578c1.864 0 3.403-.566 3.484-1.375 4.862-33.823 71.058-60.606 152.082-60.606 1.945 0 3.565-.648 3.565-1.457v-9.871c0-1.133 2.107-2.023 4.7-2.023h.729c1.459 0 2.755.323 3.646.809 2.998 1.7 7.778 2.508 12.883 2.104 1.783-.162 3.484-.405 4.942-.89 3.809-1.133 5.753-2.994 5.51-4.855-.405-2.347-4.375-4.37-9.723-4.936-5.185-.567-10.452.242-13.531 2.023-.891.485-2.35.809-3.808.809h-.648c-2.593 0-4.7-.89-4.7-2.023v-9.79c0-.81-1.539-1.457-3.484-1.457h-.081c-122.103 0-221.682 40.862-226.786 92.082-.081.809 1.54 1.537 3.484 1.537h23.01v-.081z"/>
  <path fill="url(#paint6_radial)" d="M481.851 141.764l-2.998-3.236-7.698-1.942v12.946l8.508-3.479 2.188-4.289z"/>
  <path fill="url(#paint7_radial)" d="M454.221 136.586l-12.315 3.398-.486 5.907 12.801 4.45v-13.755z"/>
  <path fill="url(#paint8_radial)" d="M500 96.128L432.021 55.75l-78.108-28.806-74.704 1.861V86.013c0 .81 1.459 1.457 3.241 1.457 79.728 2.023 142.927 30.101 142.927 64.409 0 .809 1.539 1.456 3.484 1.456h23.254c2.593 0 4.699.89 4.699 2.023v.324c0 .566-.648 1.133-1.863 1.537-3.971 1.295-5.915 3.318-4.943 5.422.324.728 1.053 1.456 2.107 2.103 2.755 1.619 6.968 2.428 11.505 2.347 5.51-.162 10.29-1.861 11.668-4.127 1.296-2.185-.649-4.45-4.781-5.745-1.215-.404-1.944-.971-1.944-1.618v-.243c0-1.133 2.106-2.023 4.699-2.023h23.254c1.945 0 3.484-.647 3.484-1.456V96.128z"/>
  <path fill="url(#paint9_radial)" d="M425.377 151.879c0 .404.405.809 1.053 1.052l4.862.404h20.823c2.593 0 4.699.89 4.699 2.023v.243l12.397 1.052c-.405-.324-.648-.648-.648-.971v-.324c0-1.133 2.106-2.023 4.699-2.023h23.254c1.945 0 3.484-.647 3.484-1.456V96.046h-74.623v55.833z"/>
  <path fill="url(#paint10_radial)" d="M475.612 106.161v49.683l-25.847-2.023V106l25.847.161z"/>
  <path fill="url(#paint11_radial)" d="M279.128 11.247V22.98s24.307 3.156 26.333 3.075c2.026-.081 7.94-3.56 8.183-3.641.244-.081.649-9.71.568-9.872-.081-.162-4.943-3.722-5.834-3.965-.891-.243-15.638-2.67-17.258-2.751-1.621-.081-11.992 5.421-11.992 5.421z"/>
  <path fill="url(#paint12_radial)" d="M279.128 13.432c0 .486.972.89 2.107.89h.648c.648 0 1.296-.162 1.702-.404 3.159-1.78 8.102-2.752 13.287-2.59 7.86.162 14.261 2.913 14.666 6.23.243 2.024-1.702 3.885-5.267 5.26-2.349.89-5.347 1.457-8.507 1.619-5.591.242-10.857-.729-14.098-2.59-.406-.242-.973-.323-1.621-.323h-.729c-1.134 0-2.107.404-2.107.89v9.952c0 .81 1.459 1.457 3.241 1.457 79.728 2.104 142.927 30.181 142.927 64.49 0 .809 1.539 1.456 3.484 1.456h23.254c2.593 0 4.699.89 4.699 2.023v.324c0 .566-.648 1.132-1.863 1.537-3.971 1.295-5.915 3.318-4.943 5.421.324.729 1.053 1.457 2.107 2.104 2.755 1.618 6.968 2.428 11.505 2.347 5.51-.162 10.29-1.861 11.668-4.127 1.296-2.185-.649-4.45-4.781-5.745-1.215-.405-1.944-.971-1.944-1.618v-.243c0-1.133 2.106-2.023 4.699-2.023h23.254c1.945 0 3.484-.647 3.484-1.456 0-51.786-96.419-93.944-217.226-96.128-1.944 0-3.646.647-3.646 1.456v9.791z"/>
  <path fill="url(#paint13_radial)" d="M281.478 11.005h-2.35v11.328h2.35V11.005z"/>
  <path fill="url(#paint14_radial)" d="M279.128 11.247c0 .486.972.89 2.107.89h.648c.648 0 1.296-.162 1.702-.404 3.159-1.78 8.102-2.751 13.287-2.59 7.86.162 14.261 2.913 14.666 6.231.243 2.023-1.702 3.884-5.267 5.26-2.349.89-5.347 1.456-8.507 1.618-5.591.243-10.857-.728-14.098-2.59-.406-.242-.973-.323-1.621-.323h-.729c-1.134 0-2.107.404-2.107.89v9.953c0 .809 1.459 1.456 3.241 1.456 79.728 2.104 142.927 30.182 142.927 64.49 0 .809 1.539 1.456 3.484 1.456h23.254c2.593 0 4.699.89 4.699 2.023v.324c0 .566-.648 1.133-1.863 1.537-3.971 1.295-5.915 3.318-4.943 5.422.324.728 1.053 1.456 2.107 2.103 2.755 1.619 6.968 2.428 11.505 2.347 5.51-.162 10.29-1.861 11.668-4.127 1.296-2.184-.649-4.45-4.781-5.745-1.215-.404-1.944-.971-1.944-1.618v-.243c0-1.133 2.106-2.023 4.699-2.023h23.254c1.945 0 3.484-.647 3.484-1.456C500 44.342 403.581 2.185 282.774 0c-1.944 0-3.646.647-3.646 1.456v9.791z"/>
  <path fill="url(#paint15_radial)" d="M499.757 136.99l-12.154 11.167s-31.923 25.407-49.505 39.325l-.892-7.364-161.157 45.637.892-9.629-13.45-2.751h-26.495v56.155c.405 2.347 4.375 4.37 9.723 4.936 5.185.566 10.452-.243 13.531-2.023.891-.485 2.349-.809 3.808-.809h.648c2.593 0 4.699.89 4.699 2.023v9.872c0 .809 1.54 1.456 3.484 1.456h.081c122.104 0 221.682-40.862 226.787-92.082V136.99z"/>
  <path fill="#4C6BDE" d="M269.405 261.762c0-1.133-2.106-2.023-4.699-2.023h-.567c-1.459 0-2.836.324-3.808.809-3.079 1.7-8.346 2.59-13.531 2.023-5.348-.566-9.318-2.589-9.723-4.935v-.405V260.144c.405 2.346 4.375 4.369 9.723 4.936 5.185.566 10.452-.243 13.531-2.023.891-.486 2.349-.809 3.808-.809h.648c2.593 0 4.699.89 4.699 2.023v-2.509h-.081zM276.373 213.86l.648-7.04-.243-.08-.648 7.201.243-.081z"/>
  <path fill="#245BAA" d="M499.757 181.008c-5.105 51.22-104.683 92.082-226.787 92.082h-.081c-1.944 0-3.484-.647-3.484-1.456v2.508c0 .809 1.54 1.457 3.484 1.457h.081c122.104 0 221.682-40.863 226.787-92.082v-2.59.081c0-.081 0-.081 0 0z"/>
  <path fill="url(#paint16_radial)" d="M266.894 207.953v12.38s-35.003 7.687-35.489 7.687c-.486 0-7.211-7.039-7.778-7.848-.568-.81 5.347-13.918 6.239-14.565.972-.648 31.842-1.861 31.842-1.861l5.186 4.207z"/>
  <path fill="url(#paint17_radial)" d="M496.273 137.799h-20.661v3.48c1.863 1.133 2.755 2.589 2.592 4.046-.405 3.317-6.887 6.068-14.746 6.23-4.78.081-9.237-.728-12.478-2.266-2.106-.971-3.403-2.265-3.727-3.641-.405-1.618.567-3.075 2.512-4.369v-3.48h-21.147c-1.864 0-3.403.567-3.484 1.376-4.862 33.823-71.058 60.606-152.083 60.606-1.944 0-3.565.647-3.565 1.456v9.872c0 1.133-2.106 2.023-4.699 2.023h-.729c-1.459 0-2.755-.324-3.646-.809-2.998-1.699-7.779-2.509-12.883-2.104-1.783.162-3.484.405-4.943.89-3.808 1.133-5.752 2.994-5.509 4.855.405 2.347 4.375 4.369 9.723 4.936 5.185.566 10.452-.243 13.531-2.023.891-.486 2.349-.809 3.808-.809h.648c2.593 0 4.699.89 4.699 2.023v9.871c0 .81 1.54 1.457 3.484 1.457h.081c122.104 0 221.682-40.863 226.787-92.082 0-.89-1.621-1.538-3.565-1.538z"/>
  <path fill="url(#paint18_radial)" d="M246.8 274.466c.81.081 1.62.162 2.43.162h1.621c3.727-.081 7.211-.89 9.48-2.185.891-.485 2.349-.809 3.808-.809h.648c2.593 0 4.699.89 4.699 2.023v-58.988l-5.833-1.213h-26.495v56.155c.324 2.266 4.294 4.289 9.642 4.855z"/>
  <path fill="url(#paint19_radial)" d="M496.273 135.615h-20.661v3.479c1.863 1.133 2.755 2.589 2.592 4.046-.405 3.317-6.887 6.069-14.746 6.23-4.78.081-9.237-.728-12.478-2.265-2.106-.971-3.403-2.266-3.727-3.641-.405-1.619.567-3.075 2.512-4.37v-3.479h-21.147c-1.864 0-3.403.566-3.484 1.375-4.862 33.823-71.058 60.606-152.083 60.606-1.944 0-3.565.647-3.565 1.457v9.871c0 1.133-2.106 2.023-4.699 2.023h-.729c-1.459 0-2.755-.323-3.646-.809-2.998-1.699-7.779-2.508-12.883-2.104-1.783.162-3.484.405-4.943.89-3.808 1.133-5.752 2.994-5.509 4.855.405 2.347 4.375 4.37 9.723 4.936 5.185.567 10.452-.243 13.531-2.023.891-.485 2.349-.809 3.808-.809h.648c2.593 0 4.699.89 4.699 2.023v9.872c0 .809 1.54 1.456 3.484 1.456h.081c122.104 0 221.682-40.862 226.787-92.082 0-.89-1.621-1.537-3.565-1.537z"/>
  <g opacity=".4">
    <path fill="url(#paint20_radial)" d="M425.377 180.037s-11.344-21.28-24.794-32.528c-13.45-11.247 13.693-28.482 13.693-28.482h13.937l6.482 9.791-9.318 51.219z" opacity=".4"/>
    <path fill="url(#paint21_radial)" d="M425.377 179.795s0 .081 0 0c0 .404.405.809 1.053 1.052l4.862.404h20.823c2.593 0 4.699.89 4.699 2.023v.243l12.397 1.052c-.405-.324-.648-.648-.648-.971v-.243c0-1.133 2.106-2.023 4.699-2.023h23.254c1.945 0 3.484-.647 3.484-1.456v-55.832h-74.623v55.751z" opacity=".4"/>
    <path fill="url(#paint22_radial)" d="M475.612 143.14v38.435c0 5.097-5.834 9.224-12.964 9.224-7.13 0-12.883-4.127-12.883-9.224v-38.516l25.847.081z" opacity=".4"/>
  </g>
  <path fill="url(#paint23_radial)" d="M226.057 219.848l-76.486-21.443s-44.402-28.887-46.022-29.696c-1.54-.809-57.527-35.765-57.527-35.765v55.751c0 51.786 96.418 93.944 217.225 96.128 1.945 0 3.647-.647 3.647-1.456v-58.098l-40.837-5.421z"/>
  <path fill="url(#paint24_radial)" d="M263.247 273.171C142.44 270.987 46.022 228.83 46.022 177.044v2.427c0 51.786 96.418 93.943 217.225 96.128 1.945 0 3.647-.648 3.647-1.457v-2.427c0 .809-1.702 1.456-3.647 1.456z"/>
  <path fill="url(#paint25_radial)" d="M111.165 261.439c11.769 0 21.309-9.528 21.309-21.281 0-11.753-9.54-21.281-21.309-21.281-11.769 0-21.31 9.528-21.31 21.281 0 11.753 9.541 21.281 21.31 21.281z" opacity=".4"/>
  <path fill="url(#paint26_radial)" d="M266.894 220.091c0-.486-.973-.89-2.107-.89h-.648c-.648 0-1.297.161-1.702.404-3.16 1.78-8.102 2.751-13.288 2.589-7.859-.161-14.26-2.913-14.665-6.23-.243-2.023 1.701-3.884 5.266-5.26 2.35-.89 5.348-1.456 8.508-1.618 5.591-.243 10.857.728 14.098 2.589.405.243.972.324 1.621.324h.729c1.134 0 2.107-.405 2.107-.89v-9.953c0-.809-1.459-1.456-3.241-1.456-79.809-2.023-143.008-30.101-143.008-64.49 0-.809-1.54-1.456-3.484-1.456H93.826c-2.593 0-4.7-.89-4.7-2.023v-.324c0-.566.649-1.133 1.864-1.537 3.97-1.295 5.915-3.318 4.943-5.422-.325-.728-1.054-1.456-2.107-2.103-2.755-1.619-6.968-2.428-11.505-2.347-5.51.162-10.29 1.861-11.668 4.127-1.296 2.184.648 4.45 4.78 5.745 1.216.404 1.945.971 1.945 1.618v.243c0 1.133-2.107 2.023-4.7 2.023H49.507c-1.945 0-3.484.647-3.484 1.456 0 51.786 96.418 93.943 217.225 96.128 1.945 0 3.647-.647 3.647-1.457v-9.79z"/>
  <path fill="url(#paint27_radial)" d="M266.894 217.825c0-.485-.973-.89-2.107-.89h-.648c-.648 0-1.297.162-1.702.405-3.16 1.78-8.102 2.751-13.288 2.589-7.859-.162-14.26-2.913-14.665-6.231-.243-2.023 1.701-3.884 5.266-5.259 2.35-.89 5.348-1.457 8.508-1.618 5.591-.243 10.857.728 14.098 2.589.405.243.972.323 1.621.323h.729c1.134 0 2.107-.404 2.107-.89v-9.952c0-.809-1.459-1.457-3.241-1.457-79.809-2.023-143.008-30.1-143.008-64.49 0-.809-1.54-1.456-3.484-1.456H93.826c-2.593 0-4.7-.89-4.7-2.023v-.324c0-.566.649-1.132 1.864-1.537 3.97-1.295 5.915-3.317 4.943-5.421-.325-.729-1.054-1.457-2.107-2.104-2.755-1.618-6.968-2.428-11.505-2.347-5.51.162-10.29 1.861-11.668 4.127-1.296 2.185.648 4.45 4.78 5.745 1.216.405 1.945.971 1.945 1.618v.243c0 1.133-2.107 2.023-4.7 2.023H49.507c-1.945 0-3.484.647-3.484 1.456 0 51.787 96.418 93.944 217.225 96.128 1.945 0 3.647-.647 3.647-1.456v-9.791z"/>
  <path fill="url(#paint28_radial)" d="M75.353 356.029c41.615 0 75.352-14.31 75.352-31.962s-33.737-31.961-75.353-31.961C33.737 292.106 0 306.415 0 324.067s33.736 31.962 75.353 31.962z" opacity=".15"/>
  <path fill="url(#paint29_radial)" d="M75.352 292.106c11.77 0 21.31-9.528 21.31-21.281 0-11.753-9.54-21.281-21.31-21.281-11.768 0-21.309 9.528-21.309 21.281 0 11.753 9.54 21.281 21.31 21.281z"/>
  <defs>
    <radialGradient id="paint0_radial" cx="0" cy="0" r="1" gradientTransform="matrix(671.2188 -284.55055 204.5064 482.40477 407.551 90.85)" gradientUnits="userSpaceOnUse">
      <stop stop-color="#F9F9F9" stop-opacity="0"/>
      <stop offset="1" stop-color="#E0E0E0"/>
    </radialGradient>
    <radialGradient id="paint1_radial" cx="0" cy="0" r="1" gradientTransform="matrix(407.194 0 0 406.649 -66.675 -163.374)" gradientUnits="userSpaceOnUse">
      <stop stop-color="#88C4FF"/>
      <stop offset="1" stop-color="#3A72C9"/>
    </radialGradient>
    <radialGradient id="paint2_radial" cx="0" cy="0" r="1" gradientTransform="matrix(139.469 0 0 139.282 -44.483 31.82)" gradientUnits="userSpaceOnUse">
      <stop stop-color="#88C4FF"/>
      <stop offset="1" stop-color="#528CE2"/>
    </radialGradient>
    <radialGradient id="paint3_radial" cx="0" cy="0" r="1" gradientTransform="matrix(118.91 0 0 118.75 237.205 -45.44)" gradientUnits="userSpaceOnUse">
      <stop stop-color="#88C4FF"/>
      <stop offset="1" stop-color="#528CE2"/>
    </radialGradient>
    <radialGradient id="paint4_radial" cx="0" cy="0" r="1" gradientTransform="matrix(131.484 0 0 131.308 269.944 75.634)" gradientUnits="userSpaceOnUse">
      <stop stop-color="#C7E6FF"/>
      <stop offset="1" stop-color="#5A9FF4" stop-opacity="0"/>
    </radialGradient>
    <radialGradient id="paint5_radial" cx="0" cy="0" r="1" gradientTransform="matrix(724.47 0 0 723.501 65.864 42.644)" gradientUnits="userSpaceOnUse">
      <stop stop-color="#88C4FF"/>
      <stop offset="1" stop-color="#5A9FF4"/>
    </radialGradient>
    <radialGradient id="paint6_radial" cx="0" cy="0" r="1" gradientTransform="matrix(56.8882 0 0 56.8118 468.016 145.837)" gradientUnits="userSpaceOnUse">
      <stop stop-color="#88C4FF"/>
      <stop offset="1" stop-color="#5A9FF4"/>
    </radialGradient>
    <radialGradient id="paint7_radial" cx="0" cy="0" r="1" gradientTransform="matrix(67.7407 0 0 67.6499 437.641 146.401)" gradientUnits="userSpaceOnUse">
      <stop stop-color="#88C4FF"/>
      <stop offset="1" stop-color="#5A9FF4"/>
    </radialGradient>
    <radialGradient id="paint8_radial" cx="0" cy="0" r="1" gradientTransform="matrix(331.082 0 0 330.639 544.503 -69.303)" gradientUnits="userSpaceOnUse">
      <stop stop-color="#FFC476"/>
      <stop offset="1" stop-color="#EF5316"/>
    </radialGradient>
    <radialGradient id="paint9_radial" cx="0" cy="0" r="1" gradientTransform="matrix(138.371 0 0 129.135 388.242 17.59)" gradientUnits="userSpaceOnUse">
      <stop stop-color="#FFC476"/>
      <stop offset="1" stop-color="#EF5316"/>
    </radialGradient>
    <radialGradient id="paint10_radial" cx="0" cy="0" r="1" gradientTransform="matrix(65.9827 0 0 61.5781 437.962 98.415)" gradientUnits="userSpaceOnUse">
      <stop stop-color="#FFC476"/>
      <stop offset="1" stop-color="#EF5316"/>
    </radialGradient>
    <radialGradient id="paint11_radial" cx="0" cy="0" r="1" gradientTransform="matrix(181.893 0 0 77.1105 351.787 66.544)" gradientUnits="userSpaceOnUse">
      <stop stop-color="#FFC476"/>
      <stop offset="1" stop-color="#EF5316"/>
    </radialGradient>
    <radialGradient id="paint12_radial" cx="0" cy="0" r="1" gradientTransform="matrix(124.365 0 0 122.266 437.023 109.311)" gradientUnits="userSpaceOnUse">
      <stop stop-color="#FFC476"/>
      <stop offset=".336" stop-color="#FFC173" stop-opacity=".664"/>
      <stop offset=".598" stop-color="#FFB869" stop-opacity=".402"/>
      <stop offset=".834" stop-color="#FFAA59" stop-opacity=".166"/>
      <stop offset="1" stop-color="#FF9B48" stop-opacity="0"/>
    </radialGradient>
    <radialGradient id="paint13_radial" cx="0" cy="0" r="1" gradientTransform="matrix(41.3088 0 0 89.1684 258.613 5.906)" gradientUnits="userSpaceOnUse">
      <stop stop-color="#FFC476"/>
      <stop offset="1" stop-color="#FF9B48" stop-opacity="0"/>
    </radialGradient>
    <radialGradient id="paint14_radial" cx="0" cy="0" r="1" gradientTransform="matrix(1173.2 0 0 1074.95 258.637 -26.085)" gradientUnits="userSpaceOnUse">
      <stop stop-color="#FFC476"/>
      <stop offset="1" stop-color="#EF5316"/>
    </radialGradient>
    <radialGradient id="paint15_radial" cx="0" cy="0" r="1" gradientTransform="matrix(693.067 0 0 692.139 -247.598 33.113)" gradientUnits="userSpaceOnUse">
      <stop stop-color="#88C4FF"/>
      <stop offset="1" stop-color="#3A72C9"/>
    </radialGradient>
    <radialGradient id="paint16_radial" cx="0" cy="0" r="1" gradientTransform="matrix(93.6805 0 0 93.5551 201.221 154.567)" gradientUnits="userSpaceOnUse">
      <stop stop-color="#88C4FF"/>
      <stop offset="1" stop-color="#5A9FF4"/>
    </radialGradient>
    <radialGradient id="paint17_radial" cx="0" cy="0" r="1" gradientTransform="matrix(112.723 0 0 112.573 431.936 207.677)" gradientUnits="userSpaceOnUse">
      <stop stop-color="#C7E6FF"/>
      <stop offset="1" stop-color="#5A9FF4" stop-opacity="0"/>
    </radialGradient>
    <radialGradient id="paint18_radial" cx="0" cy="0" r="1" gradientTransform="matrix(106.686 0 0 106.543 197.731 127.096)" gradientUnits="userSpaceOnUse">
      <stop stop-color="#88C4FF"/>
      <stop offset="1" stop-color="#528CE2"/>
    </radialGradient>
    <radialGradient id="paint19_radial" cx="0" cy="0" r="1" gradientTransform="matrix(724.47 0 0 723.501 65.864 42.644)" gradientUnits="userSpaceOnUse">
      <stop stop-color="#88C4FF"/>
      <stop offset="1" stop-color="#5A9FF4"/>
    </radialGradient>
    <radialGradient id="paint20_radial" cx="0" cy="0" r="1" gradientTransform="matrix(90.7607 0 0 84.7023 408.651 201.739)" gradientUnits="userSpaceOnUse">
      <stop stop-color="#FFC476"/>
      <stop offset="1" stop-color="#EF5316"/>
    </radialGradient>
    <radialGradient id="paint21_radial" cx="0" cy="0" r="1" gradientTransform="matrix(138.371 0 0 129.135 442.566 18.633)" gradientUnits="userSpaceOnUse">
      <stop stop-color="#FFC476"/>
      <stop offset="1" stop-color="#EF5316"/>
    </radialGradient>
    <radialGradient id="paint22_radial" cx="0" cy="0" r="1" gradientTransform="matrix(79.4999 0 0 53.0902 457.783 207.838)" gradientUnits="userSpaceOnUse">
      <stop stop-color="#FFC476"/>
      <stop offset="1" stop-color="#EF5316"/>
    </radialGradient>
    <radialGradient id="paint23_radial" cx="0" cy="0" r="1" gradientTransform="matrix(382.922 0 0 382.41 -8.036 112.046)" gradientUnits="userSpaceOnUse">
      <stop stop-color="#88C4FF"/>
      <stop offset="1" stop-color="#3A72C9"/>
    </radialGradient>
    <radialGradient id="paint24_radial" cx="0" cy="0" r="1" gradientTransform="matrix(209.74 0 0 209.46 -56.242 58.284)" gradientUnits="userSpaceOnUse">
      <stop stop-color="#88C4FF"/>
      <stop offset="1" stop-color="#3A72C9"/>
    </radialGradient>
    <radialGradient id="paint25_radial" cx="0" cy="0" r="1" gradientTransform="matrix(136.973 0 0 136.79 93.37 229.047)" gradientUnits="userSpaceOnUse">
      <stop stop-color="#FF9B48"/>
      <stop offset="1" stop-color="#EF5316"/>
    </radialGradient>
    <radialGradient id="paint26_radial" cx="0" cy="0" r="1" gradientTransform="matrix(181.276 0 0 181.033 72.715 201.731)" gradientUnits="userSpaceOnUse">
      <stop stop-color="#C7E6FF"/>
      <stop offset="1" stop-color="#5A9FF4" stop-opacity="0"/>
    </radialGradient>
    <radialGradient id="paint27_radial" cx="0" cy="0" r="1" gradientTransform="matrix(724.47 0 0 723.501 65.864 42.644)" gradientUnits="userSpaceOnUse">
      <stop stop-color="#88C4FF"/>
      <stop offset="1" stop-color="#5A9FF4"/>
    </radialGradient>
    <radialGradient id="paint28_radial" cx="0" cy="0" r="1" gradientTransform="matrix(72.3255 0 0 29.4982 75.325 324.052)" gradientUnits="userSpaceOnUse">
      <stop stop-color="#EF5316"/>
      <stop offset=".461" stop-color="#F76518" stop-opacity=".539"/>
      <stop offset="1" stop-color="#FE751A" stop-opacity="0"/>
    </radialGradient>
    <radialGradient id="paint29_radial" cx="0" cy="0" r="1" gradientTransform="matrix(136.973 0 0 136.79 57.56 259.776)" gradientUnits="userSpaceOnUse">
      <stop stop-color="#FF9B48"/>
      <stop offset="1" stop-color="#EF5316"/>
    </radialGradient>
  </defs>
</svg>
