<svg xmlns="http://www.w3.org/2000/svg" fill="none" viewBox="0 0 633 377">
  <defs/>
  <path fill="url(#paint0_radial)" d="M519.656 257.602c-2.299-.986-1.807-2.628 1.314-3.367a10.259 10.259 0 016.078.657l1.561.657a9.123 9.123 0 006.899 0l74.33-31.533c3.532-1.478 3.532-4.024 0-5.502l-49.444-21.022c-3.614-1.56-9.445-1.725-13.47-.411-28.664 9.526-70.306 8.705-96.752-2.545-26.447-11.25-28.418-28.906-5.914-41.059 3.203-1.724 2.793-4.188-.903-5.748l-49.445-21.022c-3.531-1.478-9.445-1.478-12.977 0l-74.741 31.697c-1.15.493-1.15 2.135 0 2.546l2.464 1.067c1.807.739 1.889 2.135 0 2.956-1.889.822-5.01.822-6.981 0l-2.053-.903a9.126 9.126 0 00-6.9 0L23.244 278.706c-3.532 1.478-3.532 4.023 0 5.502l49.444 21.022c3.614 1.56 9.445 1.724 13.47.41 28.664-9.525 70.306-8.704 96.752 2.546 26.447 11.25 28.418 28.905 5.914 41.058-3.203 1.725-2.793 4.188.903 5.749l49.445 21.022c3.531 1.478 9.445 1.478 12.977 0l270.053-114.636c1.15-.493 1.15-2.135 0-2.546l-2.546-1.231z"/>
  <path fill="url(#paint1_radial)" d="M627.661 128.103l-50.347-21.351c-3.861-1.642-10.103-1.806-14.374-.41-30.717 10.182-75.234 9.279-103.487-2.71-28.254-11.99-30.39-30.876-6.325-43.933 1.561-.821 2.3-1.806 2.3-2.874v-6.57l-4.024 2.957-52.073-22.09c-3.778-1.642-10.02-1.642-13.88 0l-74.577 31.615-.247-.82-6.077-2.054v6.488c0 .575.328 1.067.903 1.314l2.628 1.15c1.972.82 1.972 2.299.082 3.12-2.053.903-5.338.903-7.474 0l-2.217-.904c-2.382-.985-5.01-.985-7.31 0L4.846 192.647 0 189.937v6.569c0 1.068.986 2.135 2.875 2.957l52.893 22.418c3.86 1.642 10.103 1.806 14.374.41 30.717-10.182 75.234-9.279 103.487 2.71 26.94 11.414 30.143 29.152 9.446 42.044l-5.421-1.806v6.487c0 1.232 1.068 2.381 3.203 3.284l52.894 22.418c3.778 1.643 10.02 1.643 13.88 0l288.78-122.518c.657-.247.904-.822.904-1.396v-6.241c1.478 0 3.039.328 4.435.903l1.643.739c2.382.985 5.01.985 7.31 0l79.504-33.75c1.889-.821 2.875-1.889 2.875-2.956v-6.57l-5.421 2.464zM343.152 86.88c-2.053.903-5.338.903-7.474 0l-11.745-5.01c-1.971-.82-1.971-2.298-.082-3.12 2.053-.903 5.339-.903 7.474 0l11.745 5.01c2.053.82 2.053 2.299.082 3.12zm34.989 14.863c-2.053.903-5.339.903-7.474 0l-11.745-5.009c-1.971-.821-1.971-2.3-.082-3.12 2.053-.904 5.338-.904 7.474 0l11.745 5.009c1.971.82 2.053 2.299.082 3.12zm34.989 14.863c-2.054.904-5.339.904-7.475 0l-11.745-5.009c-1.971-.821-1.971-2.299-.082-3.12 2.054-.903 5.339-.903 7.474 0l11.745 5.009c1.972.821 2.054 2.217.083 3.12zm34.906 14.781c-2.053.904-5.338.904-7.474 0l-11.745-5.009c-1.971-.821-1.971-2.299-.082-3.12 2.053-.903 5.339-.903 7.474 0l11.745 5.009c2.053.903 2.053 2.299.082 3.12zm34.989 14.864c-2.053.903-5.339.903-7.474 0l-11.745-5.009c-1.971-.822-1.971-2.3-.082-3.121 2.053-.903 5.338-.903 7.474 0l11.745 5.009c2.053.821 2.053 2.3.082 3.121zm34.989 14.863c-2.054.903-5.339.903-7.475 0l-11.745-5.009c-1.971-.821-1.971-2.3-.082-3.121 2.054-.903 5.339-.903 7.474 0l11.745 5.009c1.972.822 2.054 2.218.083 3.121z"/>
  <path fill="url(#paint2_radial)" d="M533.783 165.959c-2.464-1.068-1.971-2.874 1.396-3.613 2.218-.493 4.436-.165 6.489.657l1.643.739c2.382.985 5.01.985 7.31 0l79.504-33.751c3.779-1.642 3.779-4.27 0-5.912l-52.893-22.418c-3.861-1.642-10.103-1.806-14.374-.411-30.717 10.183-75.234 9.28-103.487-2.71-28.254-11.989-30.39-30.876-6.325-43.932 3.368-1.807 2.957-4.434-.903-6.077l-52.894-22.418c-3.778-1.642-10.02-1.642-13.88 0L305.535 60.11c-1.232.492-1.232 2.217 0 2.792l2.629 1.15c1.971.82 1.971 2.299.082 3.12-2.054.903-5.339.903-7.474 0l-2.218-.903c-2.382-.986-5.01-.986-7.31 0L2.874 188.54c-3.777 1.642-3.777 4.27 0 5.912l52.894 22.418c3.86 1.643 10.103 1.807 14.374.411 30.718-10.182 75.234-9.279 103.487 2.71 28.254 11.989 30.39 30.876 6.325 43.933-3.368 1.806-2.957 4.434.903 6.076l52.894 22.418c3.778 1.643 10.02 1.643 13.88 0L536.411 169.9c1.232-.492 1.232-2.217 0-2.792l-2.628-1.149zM335.76 81.953l-11.745-5.01c-1.971-.82-1.971-2.299-.082-3.12 2.053-.903 5.339-.903 7.474 0l11.745 5.01c1.971.82 1.971 2.299.082 3.12-2.135.821-5.42.821-7.474 0zm34.907 14.781l-11.745-5.01c-1.971-.82-1.971-2.298-.082-3.12 2.053-.903 5.338-.903 7.474 0l11.745 5.01c1.971.82 1.971 2.299.082 3.12-2.053.903-5.339.903-7.474 0zm34.989 14.863l-11.745-5.009c-1.972-.821-1.972-2.299-.083-3.12 2.054-.904 5.339-.904 7.475 0l11.745 5.009c1.971.821 1.971 2.299.082 3.12-2.054.904-5.421.904-7.474 0zm34.988 14.863l-11.745-5.009c-1.971-.821-1.971-2.299-.082-3.12 2.053-.903 5.339-.903 7.474 0l11.745 5.009c1.971.821 1.971 2.299.082 3.12-2.053.822-5.42.822-7.474 0zm34.989 14.782l-11.745-5.01c-1.971-.821-1.971-2.299-.082-3.12 2.053-.903 5.338-.903 7.474 0l11.745 5.009c1.971.821 1.971 2.299.082 3.121-2.135.903-5.421.903-7.474 0zm34.907 14.863l-11.745-5.009c-1.972-.822-1.972-2.3-.083-3.121 2.054-.903 5.339-.903 7.474 0l11.746 5.009c1.971.821 1.971 2.3.082 3.121-2.054.903-5.421.903-7.474 0z"/>
  <path fill="url(#paint3_radial)" d="M533.783 164.399c-2.464-1.068-1.971-2.875 1.396-3.614 2.218-.492 4.436-.164 6.489.657l1.643.739c2.382.986 5.01.986 7.31 0l79.504-33.75c3.779-1.642 3.779-4.27 0-5.912l-52.893-22.418c-3.861-1.642-10.103-1.807-14.374-.41-30.717 10.182-75.234 9.278-103.487-2.71-28.254-11.99-30.39-30.877-6.325-43.933 3.368-1.807 2.957-4.435-.903-6.077l-52.894-22.418c-3.778-1.642-10.02-1.642-13.88 0l-79.834 33.914c-1.232.493-1.232 2.218 0 2.792l2.629 1.15c1.971.821 1.971 2.3.082 3.12-2.054.904-5.339.904-7.474 0l-2.218-.903c-2.382-.985-5.01-.985-7.31 0L2.874 186.981c-3.777 1.642-3.777 4.27 0 5.912l52.894 22.418c3.86 1.643 10.103 1.807 14.374.411 30.718-10.183 75.234-9.279 103.487 2.71 28.254 11.989 30.39 30.876 6.325 43.932-3.368 1.807-2.957 4.435.903 6.077l52.894 22.418c3.778 1.642 10.02 1.642 13.88 0l288.78-122.519c1.232-.492 1.232-2.217 0-2.792l-2.628-1.149zM335.76 80.311l-11.745-5.01c-1.971-.82-1.971-2.299-.082-3.12 2.053-.903 5.339-.903 7.474 0l11.745 5.01c1.971.82 1.971 2.298.082 3.12-2.135.903-5.42.903-7.474 0zm34.907 14.863l-11.745-5.01c-1.971-.82-1.971-2.299-.082-3.12 2.053-.903 5.338-.903 7.474 0l11.745 5.01c1.971.82 1.971 2.299.082 3.12-2.053.903-5.339.903-7.474 0zm34.989 14.863l-11.745-5.009c-1.972-.821-1.972-2.299-.083-3.121 2.054-.903 5.339-.903 7.475 0l11.745 5.01c1.971.821 1.971 2.299.082 3.12-2.054.821-5.421.903-7.474 0zm34.988 14.863l-11.745-5.009c-1.971-.821-1.971-2.299-.082-3.12 2.053-.904 5.339-.904 7.474 0l11.745 5.009c1.971.821 1.971 2.299.082 3.12-2.053.821-5.42.821-7.474 0zm34.989 14.781l-11.745-5.009c-1.971-.821-1.971-2.299-.082-3.12 2.053-.904 5.338-.904 7.474 0l11.745 5.009c1.971.821 1.971 2.299.082 3.12-2.135.904-5.421.904-7.474 0zm34.907 14.864l-11.745-5.01c-1.972-.821-1.972-2.299-.083-3.12 2.054-.903 5.339-.903 7.474 0l11.746 5.009c1.971.821 1.971 2.299.082 3.121-2.054.903-5.421.903-7.474 0z"/>
  <g opacity=".4">
    <g opacity=".4">
      <path fill="url(#paint4_radial)" d="M371.817 264.582c0-41.388-33.593-89.18-74.988-106.753-19.055-8.047-36.385-8.376-49.608-2.299l-23.08 9.936 8.953.821c-7.146 8.458-11.252 20.201-11.252 34.736 0 41.387 33.592 89.179 74.987 106.752 10.431 4.435 20.369 6.487 29.404 6.487l-3.696 6.077 22.176-9.525c16.591-6.734 27.104-22.993 27.104-46.232z" opacity=".4"/>
      <path fill="url(#paint5_radial)" d="M349.887 274.025c0 41.387-33.592 60.685-74.987 43.112-41.395-17.574-74.988-65.366-74.988-106.753s33.593-60.684 74.988-43.111c41.395 17.573 74.987 65.365 74.987 106.752z" opacity=".4"/>
      <path fill="url(#paint6_radial)" d="M348.655 274.518c0 41.387-33.592 60.684-74.987 43.111-41.395-17.573-74.988-65.365-74.988-106.752s33.593-60.685 74.988-43.112c41.395 17.573 74.987 65.366 74.987 106.753z" opacity=".4"/>
      <path fill="url(#paint7_radial)" d="M334.939 268.77c0 33.832-27.433 49.598-61.271 35.228-33.839-14.371-61.272-53.458-61.272-87.291 0-33.832 27.433-49.599 61.272-35.228 33.838 14.37 61.271 53.458 61.271 87.291z" opacity=".4"/>
      <path fill="url(#paint8_radial)" d="M281.306 298.25c-33.839-14.371-61.271-53.459-61.271-87.291 0-12.974 4.024-23.321 10.923-30.301-11.416 6.241-18.562 18.805-18.562 35.967 0 33.832 27.433 72.92 61.272 87.291 20.861 8.868 39.259 6.241 50.347-5.009-11.006 6.158-26.118 6.405-42.709-.657z" opacity=".4"/>
      <path fill="url(#paint9_radial)" d="M274.982 302.93c-33.839-14.37-61.272-53.458-61.272-87.29 0-13.878 4.6-24.635 12.403-31.615-8.542 6.897-13.635 18.148-13.635 32.682 0 33.833 27.433 72.92 61.272 87.291 19.876 8.458 37.535 6.487 48.705-3.449-11.335 8.951-28.336 10.511-47.473 2.381z" opacity=".4"/>
    </g>
    <g opacity=".4">
      <path fill="url(#paint10_radial)" d="M268.822 205.786c1.314-1.314.575-3.039.164-4.927-2.628-.247-5.01 0-7.146.739-.246.082-.41.164-.574.246l-.165.082h-.082l-6.899 3.121 2.464.985a8.982 8.982 0 00-.986 2.956c4.436 0 8.953-1.314 13.224-3.202z" opacity=".4"/>
      <path fill="url(#paint11_radial)" d="M288.616 264.992c-2.054.739-5.092.329-9.199-1.396-4.682-1.971-8.296-4.598-10.842-7.719-2.217-2.71-3.449-5.748-3.696-8.951-.082-.903-.821-1.806-1.642-2.217l-8.296-3.531c-.41-.164-.821-.164-1.15 0l-6.735 3.039 6.982 2.791c.575 2.053 1.396 4.024 2.464 5.995 2.299 4.106 5.421 7.965 9.527 11.496a50.355 50.355 0 005.914 4.435c.739.492 1.314 1.396 1.314 2.135v7.39c0 .822.657 1.725 1.478 2.135l.904.411.41 5.666 6.735-3.038c.329-.164.493-.411.493-.904v-6.897c0-.822.657-1.232 1.479-.986 1.067.329 2.053.575 3.038.739.247-3.613.986-6.98.986-10.511-.082-.082-.082-.082-.164-.082z" opacity=".4"/>
      <path fill="url(#paint12_radial)" d="M301.182 254.645c-1.478-3.202-3.778-6.487-6.981-9.772-3.203-3.366-7.392-6.897-12.566-10.675-5.257-3.777-8.953-6.98-11.253-9.608-2.299-2.627-3.449-5.173-3.449-7.636 0-1.643.328-2.875.985-3.86-1.232-2.299-3.039-4.106-5.585-5.173-2.217.575-4.517.903-6.817.903-.164.985-.328 1.971-.328 3.12 0 6.159 3.039 12.482 9.199 18.97 3.203 3.366 7.474 6.979 12.894 10.921 5.421 3.942 9.199 7.144 11.253 9.608 2.053 2.463 3.121 5.173 3.121 8.129 0 2.628-.986 4.353-2.957 5.174 0 3.531-.657 6.898-.986 10.511 1.725.328 3.368.492 4.846.492l-1.642 2.053 6.488-2.956c3.942-1.56 5.914-5.091 5.914-10.429.082-3.202-.657-6.569-2.136-9.772z" opacity=".4"/>
      <path fill="url(#paint13_radial)" d="M267.918 213.176c.493-.739 1.232-1.314 2.218-1.642 2.135-.739 5.092-.329 8.87 1.314 4.107 1.724 7.228 4.106 9.446 6.98 1.889 2.545 2.956 5.255 3.203 8.129.082.821.739 1.807 1.56 2.135l1.889.822.904 5.83 6.735-3.038c.328-.165.575-.575.493-1.15-.247-3.285-1.315-6.652-3.039-10.101-2.054-4.105-5.011-7.719-8.624-11.003-2.136-1.889-4.436-3.613-6.982-5.092-.739-.41-1.314-1.313-1.314-2.052v-7.063c0-.985-.739-2.052-1.725-2.463l-6.57-2.792a1.888 1.888 0 00-1.15-.082l-6.735 3.038 6.078 2.71v2.628c0 .739-.493 1.149-1.232.985a21.418 21.418 0 00-3.039-.493c.411 1.889 1.068 3.696-.164 4.928-2.136.903-4.271 1.724-6.489 2.299 2.628 1.067 4.353 2.874 5.667 5.173z" opacity=".4"/>
      <path fill="url(#paint14_radial)" d="M289.684 264.417c-.329.247-.657.411-1.068.575-2.053.739-5.092.329-9.199-1.396-4.682-1.971-8.295-4.598-10.842-7.719-2.217-2.71-3.449-5.748-3.696-8.951 0-.328-.164-.657-.328-.985l-9.445 4.024c.41.985.903 2.053 1.478 3.038 2.3 4.106 5.421 7.965 9.527 11.496a50.438 50.438 0 005.914 4.435c.739.492 1.314 1.396 1.314 2.135v7.39c0 .329.082.739.329 1.068l9.773-4.188c.165-.493.658-.657 1.315-.575l5.01-2.135v-8.212h-.082z" opacity=".4"/>
      <path fill="url(#paint15_radial)" d="M273.257 200.037l9.61-4.105c-.329-.493-.74-.904-1.315-1.15l-6.57-2.792a1.888 1.888 0 00-1.15-.082l-6.735 3.038 6.078 2.71v2.381h.082z" opacity=".4"/>
      <path fill="url(#paint16_radial)" d="M294.447 257.684c-1.478-3.203-3.778-6.488-6.981-9.772-3.203-3.367-7.392-6.898-12.566-10.675-5.257-3.778-8.953-6.98-11.253-9.608-2.299-2.628-3.449-5.174-3.449-7.637 0-2.956 1.068-4.763 3.203-5.502 2.135-.739 5.092-.328 8.87 1.314 4.107 1.724 7.228 4.106 9.446 6.98 1.889 2.546 2.956 5.255 3.203 8.13.082.821.739 1.806 1.56 2.135l8.378 3.531c.986.41 1.725-.083 1.643-1.068-.247-3.285-1.314-6.651-3.039-10.1-2.054-4.106-5.01-7.719-8.624-11.004-2.136-1.889-4.435-3.613-6.982-5.091-.739-.411-1.314-1.314-1.314-2.053v-7.062c0-.986-.739-2.053-1.724-2.464l-6.571-2.792c-.986-.41-1.725 0-1.725.986v7.308c0 .739-.493 1.15-1.232.985-3.942-.821-7.31-.821-10.184.247-4.436 1.642-6.653 5.173-6.653 10.593 0 6.159 3.039 12.482 9.199 18.969 3.203 3.367 7.474 6.98 12.895 10.922 5.42 3.941 9.198 7.144 11.252 9.607 2.053 2.464 3.121 5.174 3.121 8.13 0 2.71-.986 4.434-3.039 5.255-2.053.739-5.092.329-9.199-1.396-4.682-1.97-8.295-4.598-10.842-7.719-2.217-2.709-3.449-5.748-3.696-8.95-.082-.904-.821-1.807-1.642-2.218l-8.296-3.531c-.985-.41-1.807.083-1.724 1.15.328 3.531 1.396 7.144 3.285 10.593 2.3 4.106 5.421 7.966 9.527 11.497a50.54 50.54 0 005.914 4.434c.739.493 1.314 1.396 1.314 2.135v7.39c0 .822.657 1.725 1.478 2.136l7.064 2.956c.821.328 1.478 0 1.478-.821v-6.898c0-.821.657-1.232 1.479-.986 4.928 1.478 9.034 1.643 12.238.575 4.27-1.478 6.406-5.009 6.406-10.593 0-3.531-.739-6.816-2.218-10.018z" opacity=".4"/>
    </g>
  </g>
  <path fill="#528CE2" d="M335.76 80.31l-11.745-5.008c-2.053-.904-2.053-2.3 0-3.121 2.054-.903 5.339-.903 7.392 0l11.745 5.01c2.054.902 2.054 2.298 0 3.12-2.053.903-5.338.903-7.392 0z"/>
  <path fill="url(#paint17_radial)" d="M319.991 249.718c103.286 0 187.017-35.515 187.017-79.325s-83.731-79.325-187.017-79.325c-103.287 0-187.017 35.515-187.017 79.325s83.73 79.325 187.017 79.325z" opacity=".8"/>
  <path fill="url(#paint18_radial)" d="M371.817 113.24c0-41.387-33.593-89.18-74.988-106.753-19.055-8.047-36.385-8.376-49.608-2.299l-23.08 9.936 8.953.821c-7.146 8.458-11.252 20.201-11.252 34.736 0 41.387 33.592 89.179 74.987 106.752 10.431 4.435 20.369 6.487 29.404 6.487l-3.696 6.077 22.176-9.525c16.591-6.816 27.104-23.075 27.104-46.232z"/>
  <path fill="url(#paint19_radial)" d="M349.887 122.601c0 41.387-33.592 60.685-74.987 43.111-41.395-17.573-74.988-65.365-74.988-106.752S233.505-1.724 274.9 15.85c41.395 17.573 74.987 65.365 74.987 106.752z"/>
  <path fill="url(#paint20_radial)" d="M360.564 118.167c0 41.387-33.592 60.684-74.987 43.111-41.395-17.573-74.988-65.365-74.988-106.752s33.593-60.685 74.988-43.112c41.395 17.573 74.987 65.366 74.987 106.753z"/>
  <path fill="url(#paint21_radial)" d="M348.655 123.176c0 41.387-33.592 60.684-74.987 43.111-41.396-17.573-74.906-65.365-74.906-106.752s33.51-60.685 74.906-43.112c41.395 17.573 74.987 65.366 74.987 106.753z"/>
  <path fill="url(#paint22_radial)" d="M334.939 117.345c0 33.833-27.433 49.599-61.271 35.229-33.839-14.371-61.272-53.459-61.272-87.29 0-33.833 27.433-49.6 61.272-35.23 33.838 14.371 61.271 53.46 61.271 87.291z"/>
  <path fill="url(#paint23_radial)" d="M281.306 146.908c-33.839-14.371-61.271-53.459-61.271-87.29 0-12.975 4.024-23.322 10.923-30.302-11.416 6.24-18.562 18.805-18.562 35.967 0 33.832 27.433 72.92 61.272 87.291 20.861 8.868 39.259 6.241 50.347-5.009-11.006 6.158-26.118 6.405-42.709-.657z"/>
  <path fill="url(#paint24_radial)" d="M274.982 151.588c-33.839-14.37-61.272-53.458-61.272-87.29 0-13.878 4.6-24.635 12.402-31.615-8.541 6.898-13.634 18.148-13.634 32.682 0 33.833 27.433 72.92 61.272 87.291 19.876 8.458 37.535 6.487 48.705-3.449-11.335 8.951-28.336 10.429-47.473 2.381z"/>
  <path fill="url(#paint25_radial)" d="M268.822 54.362c1.314-1.314.575-3.039.164-4.928-2.628-.246-5.01 0-7.146.74-.246.082-.41.164-.575.246l-.164.082h-.082l-6.899 3.12 2.464.986a8.959 8.959 0 00-.986 2.956c4.435.082 8.953-1.314 13.224-3.202z"/>
  <path fill="url(#paint26_radial)" d="M288.616 113.65c-2.054.739-5.093.329-9.199-1.396-4.682-1.971-8.296-4.598-10.842-7.719-2.217-2.71-3.449-5.748-3.696-8.95-.082-.904-.821-1.807-1.642-2.218l-8.296-3.53c-.411-.165-.821-.165-1.15 0l-6.735 3.037 6.982 2.793c.575 2.052 1.396 4.023 2.464 5.994 2.299 4.106 5.42 7.965 9.527 11.496a50.355 50.355 0 005.914 4.435c.739.492 1.314 1.396 1.314 2.135v7.39c0 .822.657 1.725 1.478 2.135l.904.411.41 5.666 6.735-3.038c.329-.164.493-.411.493-.904v-6.897c0-.822.657-1.232 1.478-.986 1.068.329 2.054.575 3.039.739.247-3.613.986-6.98.986-10.511-.082-.164-.082-.082-.164-.082z"/>
  <path fill="url(#paint27_radial)" d="M301.182 103.303c-1.478-3.202-3.778-6.487-6.981-9.772-3.203-3.366-7.392-6.897-12.567-10.675-5.256-3.777-8.952-6.98-11.252-9.607-2.3-2.628-3.449-5.092-3.449-7.555 0-1.643.328-2.874.985-3.86-1.232-2.3-3.039-4.106-5.585-5.173-2.217.575-4.517.903-6.817.903-.164.986-.328 1.97-.328 3.12 0 6.16 3.039 12.482 9.198 18.97 3.204 3.367 7.475 6.98 12.895 10.921 5.421 3.942 9.199 7.144 11.253 9.608 2.053 2.463 3.121 5.173 3.121 8.13 0 2.627-.986 4.352-2.957 5.173 0 3.531-.657 6.898-.986 10.511 1.725.328 3.368.493 4.846.493l-1.642 2.053 6.488-2.957c3.942-1.56 5.914-5.091 5.914-10.429.082-3.366-.657-6.651-2.136-9.854z"/>
  <path fill="url(#paint28_radial)" d="M267.918 61.834c.493-.739 1.232-1.314 2.218-1.642 2.135-.74 5.092-.329 8.87 1.314 4.107 1.724 7.228 4.106 9.445 6.98 1.89 2.545 2.957 5.255 3.204 8.13.082.82.739 1.806 1.56 2.134l1.889.822.904 5.83 6.735-3.038c.328-.165.575-.575.492-1.15-.246-3.285-1.314-6.652-3.038-10.1-2.054-4.106-5.011-7.72-8.624-11.004-2.136-1.889-4.436-3.613-6.982-5.091-.739-.411-1.314-1.314-1.314-2.053v-7.063c0-.985-.739-2.052-1.725-2.463l-6.57-2.792a1.885 1.885 0 00-1.15-.082l-6.735 3.038 6.078 2.71v2.628c0 .739-.493 1.15-1.232.985a21.246 21.246 0 00-3.039-.492c.41 1.888 1.068 3.695-.164 4.927-2.136.903-4.271 1.724-6.489 2.299 2.628.985 4.353 2.874 5.667 5.173z"/>
  <path fill="url(#paint29_radial)" d="M289.684 113.075c-.329.247-.658.411-1.068.575-2.054.739-5.092.329-9.199-1.396-4.682-1.971-8.296-4.598-10.842-7.719-2.217-2.71-3.449-5.748-3.696-8.95 0-.33-.164-.658-.328-.986l-9.446 4.024c.411.985.904 2.053 1.479 3.038 2.3 4.106 5.421 7.965 9.527 11.496a50.438 50.438 0 005.914 4.435c.739.492 1.314 1.396 1.314 2.135v7.39c0 .329.082.739.329 1.068l9.773-4.188c.165-.493.657-.657 1.315-.575l5.01-2.135v-8.212h-.082z"/>
  <path fill="url(#paint30_radial)" d="M273.257 48.696l9.609-4.106c-.328-.493-.739-.904-1.314-1.15l-6.57-2.792a1.885 1.885 0 00-1.15-.082l-6.735 3.038 6.078 2.71v2.382h.082z"/>
  <path fill="url(#paint31_radial)" d="M294.447 106.342c-1.478-3.203-3.778-6.487-6.981-9.772-3.203-3.367-7.392-6.898-12.566-10.675-5.257-3.778-8.953-6.98-11.253-9.608-2.299-2.628-3.449-5.174-3.449-7.637 0-2.956 1.067-4.763 3.203-5.502 2.135-.739 5.092-.328 8.87 1.314 4.107 1.724 7.228 4.106 9.446 6.98 1.889 2.546 2.956 5.255 3.203 8.13.082.82.739 1.806 1.56 2.135l8.378 3.53c.985.411 1.725-.081 1.643-1.067-.247-3.285-1.315-6.651-3.039-10.1-2.054-4.106-5.011-7.72-8.624-11.004-2.136-1.889-4.436-3.613-6.982-5.091-.739-.41-1.314-1.314-1.314-2.053V48.86c0-.986-.739-2.053-1.725-2.464l-6.57-2.792c-.986-.41-1.725 0-1.725.986v7.308c0 .74-.493 1.15-1.232.985-3.942-.82-7.31-.82-10.185.247-4.435 1.642-6.652 5.173-6.652 10.593 0 6.159 3.039 12.482 9.199 18.969 3.203 3.367 7.474 6.98 12.894 10.922 5.421 3.941 9.199 7.144 11.253 9.607 2.053 2.464 3.121 5.174 3.121 8.13 0 2.71-.986 4.434-3.039 5.255-2.053.739-5.092.329-9.199-1.396-4.682-1.97-8.296-4.598-10.842-7.719-2.217-2.709-3.449-5.748-3.696-8.95-.082-.904-.821-1.807-1.642-2.218l-8.296-3.53c-.985-.411-1.807.081-1.724 1.149.328 3.531 1.396 7.144 3.285 10.593 2.3 4.106 5.421 7.966 9.527 11.497a50.54 50.54 0 005.914 4.434c.739.493 1.314 1.396 1.314 2.135v7.391c0 .821.657 1.724 1.478 2.135l7.064 2.956c.821.328 1.478 0 1.478-.821v-6.898c0-.821.657-1.232 1.479-.986 4.928 1.478 9.034 1.643 12.237.575 4.271-1.478 6.407-5.009 6.407-10.593 0-3.531-.739-6.816-2.218-10.018z"/>
  <path fill="#F9F9F9" d="M293.462 253.824l-2.629 1.068c-.492.246-1.314.246-1.807 0l-35.563-15.11c-.493-.246-.493-.575 0-.739l2.628-1.067c.493-.247 1.314-.247 1.807 0l35.646 15.109c.41.164.41.493-.082.739zM307.424 247.912l-7.802 3.284c-.493.247-1.315.247-1.807 0l-35.646-15.109c-.493-.246-.493-.575 0-.739l7.803-3.285c.492-.246 1.314-.246 1.806 0l35.646 15.11c.493.164.493.492 0 .739zM313.995 245.12l-.986.41c-.492.247-1.314.247-1.807 0l-35.645-15.109c-.493-.247-.493-.575 0-.739l.985-.411c.493-.246 1.314-.246 1.807 0l35.646 15.11c.493.164.493.492 0 .739zM320.319 242.41l-.985.411c-.493.246-1.315.246-1.807 0l-35.646-15.11c-.493-.246-.493-.575 0-.739l.985-.411c.493-.246 1.315-.246 1.807 0l35.646 15.11c.493.164.493.575 0 .739zM330.832 237.976l-5.174 2.217c-.493.246-1.314.246-1.807 0l-35.646-15.192c-.493-.246-.493-.575 0-.739l5.175-2.217c.492-.246 1.314-.246 1.806 0l35.646 15.109c.493.247.493.575 0 .822zM352.105 228.943l-16.345 6.898c-.493.246-1.314.246-1.807 0l-35.646-15.11c-.492-.246-.492-.575 0-.739l16.345-6.898c.493-.246 1.314-.246 1.807 0l35.646 15.11c.492.164.492.492 0 .739zM357.772 226.561c-.493.247-1.314.247-1.807 0l-35.646-15.109c-.493-.247-.493-.575 0-.739.493-.247 1.314-.247 1.807 0l35.646 15.109c.493.164.493.493 0 .739zM365.41 223.277l-2.957 1.231c-.492.247-1.314.247-1.806 0l-35.564-15.109c-.493-.247-.493-.575 0-.739l2.957-1.232c.492-.246 1.314-.246 1.807 0l35.645 15.11c.411.164.411.492-.082.739zM371.735 220.567l-1.15.492c-.493.247-1.314.247-1.807 0l-35.646-15.109c-.493-.246-.493-.575 0-.739l1.15-.493c.493-.246 1.314-.246 1.807 0l35.646 15.11c.492.246.492.575 0 .739zM382.33 216.05l-4.764 2.053c-.493.247-1.314.247-1.807 0l-35.646-15.109c-.493-.247-.493-.575 0-.739l4.764-2.053c.493-.247 1.314-.247 1.807 0l35.646 15.109c.493.247.493.575 0 .739zM388.818 213.34l-.739.329c-.493.246-1.314.246-1.807 0l-35.564-15.11c-.492-.246-.492-.574 0-.739l.74-.328c.492-.247 1.314-.247 1.807 0l35.645 15.109c.411.165.411.575-.082.739zM394.814 210.795l-.739.328c-.493.247-1.314.247-1.807 0l-35.646-15.109c-.493-.247-.493-.575 0-.739l.739-.329c.493-.246 1.314-.246 1.807 0l35.646 15.11c.493.164.493.493 0 .739zM452.307 186.406l-.739.328c-.493.247-1.314.247-1.807 0l-35.646-15.109c-.493-.246-.493-.575 0-.739l.739-.329c.493-.246 1.315-.246 1.807 0l35.646 15.11c.493.164.493.493 0 .739zM445.819 189.198l-45.174 19.215c-.492.247-1.314.247-1.807 0l-35.645-15.109c-.493-.247-.493-.575 0-.739l45.173-19.216c.493-.246 1.314-.246 1.807 0l35.646 15.11c.492.164.492.493 0 .739zM110.058 161.771l-6.735 2.874 18.563 7.883-3.696 1.56-18.563-7.883-6.652 2.792-3.04-1.314 17.084-7.226 3.039 1.314zM135.355 166.78l-3.696 1.56-21.601-9.115 3.696-1.56 21.601 9.115zM149.4 154.873c2.054 1.068 3.039 2.217 2.875 3.367-.164 1.149-1.479 2.299-3.943 3.367a17.914 17.914 0 01-5.749 1.396c-2.135.164-4.271.164-6.488-.165-2.218-.328-4.353-.903-6.325-1.724l-2.053-.821c-2.053-.904-3.45-1.807-4.271-2.71-.821-.903-.985-1.889-.493-2.874.493-.904 1.643-1.807 3.45-2.546a21.612 21.612 0 017.72-1.642 22.572 22.572 0 018.049 1.232l-3.696 1.56c-1.724-.575-3.285-.904-4.681-.821-1.396.082-2.793.328-4.189.903-1.643.657-2.3 1.478-1.971 2.381.328.904 1.643 1.807 3.942 2.792l1.889.821c2.3.986 4.518 1.561 6.571 1.725 2.053.164 3.86-.082 5.503-.739 1.478-.657 2.218-1.232 2.3-1.807.082-.575-.575-1.232-1.889-1.971l3.449-1.724zM156.71 149.864l.164 2.135 6.735 2.874-3.778 1.56-21.601-9.197 3.778-1.56 10.103 4.27-.493-1.971-1.232-5.912 4.517-1.889 1.561 7.473 20.533 1.478-4.435 1.888-15.852-1.149zM181.925 138.86l-8.871 3.778 6.653 2.792 10.349-4.435 2.957 1.232-14.127 5.994-21.601-9.197 14.045-5.912 3.039 1.314-10.267 4.352 5.996 2.546 8.87-3.778 2.957 1.314zM193.424 126.378l-6.735 2.874 18.562 7.884-3.696 1.56-18.562-7.883-6.653 2.792-3.039-1.314 17.084-7.227 3.039 1.314zM134.616 181.561c1.314.575 2.054 1.068 2.218 1.56.164.493-.247.986-1.232 1.396-.986.411-2.054.575-3.203.493a11.017 11.017 0 01-3.696-.903l-1.561-.657c-1.314-.575-2.053-1.068-2.218-1.56-.164-.493.247-.986 1.232-1.396.986-.411 2.054-.575 3.204-.575 1.15.082 2.382.328 3.614.903l1.642.739zm-3.203-.082c-.821-.329-1.643-.575-2.218-.657-.657-.082-1.232 0-1.724.246-.493.247-.657.411-.493.739.164.329.575.575 1.396.904l2.053.903c.822.328 1.643.575 2.3.657.657.082 1.232 0 1.725-.246.493-.247.657-.411.493-.739-.165-.247-.657-.575-1.479-.904l-2.053-.903zM141.926 178.441c1.314.574 2.053 1.067 2.218 1.56.164.493-.247.985-1.232 1.396-.986.41-2.054.575-3.204.493a11.056 11.056 0 01-3.696-.904l-1.56-.657c-1.314-.574-2.053-1.067-2.218-1.56-.164-.493.247-.985 1.232-1.396.986-.41 2.054-.575 3.204-.575 1.149.082 2.381.329 3.613.904l1.643.739zm-3.203 0c-.821-.329-1.643-.575-2.218-.657-.657-.082-1.232 0-1.725.246-.492.246-.657.411-.492.739.164.329.575.575 1.396.903l2.053.904c.822.328 1.643.575 2.3.657.657.082 1.232 0 1.725-.247.493-.246.657-.41.493-.739-.165-.246-.657-.575-1.479-.903l-2.053-.903zM149.236 175.402c1.314.575 2.053 1.068 2.218 1.561.164.492-.247.985-1.232 1.396-.986.41-2.054.574-3.204.492a11.017 11.017 0 01-3.696-.903l-1.56-.657c-1.314-.575-2.054-1.068-2.218-1.56-.164-.493.247-.986 1.232-1.396.986-.411 2.054-.575 3.203-.575 1.15.082 2.382.328 3.614.903l1.643.739zm-3.203-.082c-.822-.328-1.643-.575-2.218-.657-.657-.082-1.232 0-1.725.247-.492.246-.657.41-.492.739.164.246.574.574 1.396.903l2.053.903c.821.329 1.643.575 2.3.657.657.082 1.232 0 1.725-.246.492-.247.657-.411.492-.739-.164-.247-.657-.575-1.478-.904l-2.053-.903zM156.546 172.282c1.314.575 2.053 1.067 2.217 1.56.165.493-.246.985-1.232 1.396-.985.411-2.053.575-3.203.493a11.02 11.02 0 01-3.696-.904l-1.56-.656c-1.315-.575-2.054-1.068-2.218-1.561-.164-.492.246-.985 1.232-1.396.986-.41 2.053-.575 3.203-.575 1.15.083 2.382.329 3.614.904l1.643.739zm-3.204-.082c-.821-.329-1.642-.575-2.217-.657-.657-.082-1.232 0-1.725.246-.493.246-.657.411-.493.739.165.329.575.575 1.397.903l2.053.904c.821.328 1.643.575 2.3.657.657.082 1.232 0 1.724-.247.493-.246.657-.41.493-.739-.164-.246-.657-.575-1.478-.903l-2.054-.903zM163.856 169.161c1.314.575 2.053 1.068 2.217 1.561.164.492-.246.985-1.232 1.396-.985.41-2.053.574-3.203.492a11.017 11.017 0 01-3.696-.903l-1.561-.657c-1.314-.575-2.053-1.067-2.217-1.56-.164-.493.246-.986 1.232-1.396.985-.411 2.053-.575 3.203-.575 1.15.082 2.382.329 3.614.903l1.643.739zm-3.204-.082c-.821-.328-1.642-.575-2.217-.657-.657-.082-1.232 0-1.725.247-.493.246-.657.41-.493.739.164.246.575.575 1.396.903l2.054.903c.821.329 1.642.575 2.299.657.658.082 1.232 0 1.725-.246.493-.246.657-.411.493-.739-.164-.246-.657-.575-1.478-.903l-2.054-.904zM171.165 166.041c1.315.575 2.054 1.067 2.218 1.56.164.493-.246.986-1.232 1.396-.986.411-2.053.575-3.203.493a11.041 11.041 0 01-3.696-.903l-1.561-.657c-1.314-.575-2.053-1.068-2.217-1.561-.165-.492.246-.985 1.232-1.396.985-.41 2.053-.574 3.203-.574s2.382.328 3.614.903l1.642.739zm-3.203 0c-.821-.329-1.642-.575-2.217-.657-.657-.082-1.232 0-1.725.246-.493.247-.657.411-.493.739.164.247.575.575 1.396.904l2.054.903c.821.328 1.642.575 2.299.657.657.082 1.232 0 1.725-.246.493-.247.657-.411.493-.739-.164-.247-.657-.575-1.478-.904l-2.054-.903zM178.475 163.003c1.314.574 2.054 1.067 2.218 1.56.164.493-.247.985-1.232 1.396-.986.41-2.053.575-3.203.493a11.044 11.044 0 01-3.696-.904l-1.561-.657c-1.314-.575-2.053-1.067-2.217-1.56-.165-.493.246-.985 1.232-1.396.985-.41 2.053-.575 3.203-.575 1.15.082 2.382.329 3.614.904l1.642.739zm-3.203-.083c-.821-.328-1.643-.574-2.217-.656-.658-.083-1.232 0-1.725.246-.493.246-.657.411-.493.739.164.328.575.575 1.396.903l2.054.904c.821.328 1.642.574 2.299.656.657.083 1.232 0 1.725-.246.493-.246.657-.41.493-.739-.164-.246-.657-.575-1.479-.903l-2.053-.904zM185.785 159.882c1.314.575 2.053 1.068 2.218 1.56.164.493-.247.986-1.232 1.396-.986.411-2.054.575-3.203.493a11.017 11.017 0 01-3.696-.903l-1.561-.657c-1.314-.575-2.053-1.068-2.218-1.56-.164-.493.247-.986 1.232-1.396.986-.411 2.054-.575 3.204-.575 1.15.082 2.381.328 3.613.903l1.643.739zm-3.203-.082c-.821-.328-1.643-.575-2.218-.657-.657-.082-1.232 0-1.724.246-.493.247-.657.411-.493.739.164.247.575.575 1.396.904l2.053.903c.822.329 1.643.575 2.3.657.657.082 1.232 0 1.725-.246.493-.247.657-.411.493-.739-.165-.247-.657-.575-1.479-.904l-2.053-.903zM193.095 156.762c1.314.575 2.053 1.067 2.218 1.56.164.493-.247.985-1.232 1.396-.986.411-2.054.575-3.204.493a11.02 11.02 0 01-3.696-.904l-1.56-.657c-1.314-.574-2.054-1.067-2.218-1.56-.164-.493.247-.985 1.232-1.396.986-.41 2.054-.575 3.203-.575 1.15 0 2.382.329 3.614.904l1.643.739zm-3.285-.082c-.822-.329-1.643-.575-2.218-.657-.657-.082-1.232 0-1.725.246-.493.246-.657.411-.493.739.165.246.575.575 1.397.903l2.053.904c.821.328 1.643.574 2.3.657.657.082 1.232 0 1.725-.247.492-.246.657-.41.492-.739-.164-.246-.657-.575-1.478-.903l-2.053-.903zM202.376 156.105l-1.478.657-7.31-3.121-1.479 1.314-1.314-.575 2.218-2.053.164-.082 9.199 3.86z"/>
  <defs>
    <radialGradient id="paint0_radial" cx="0" cy="0" r="1" gradientTransform="rotate(22.997 -289.68 286.327) scale(710.656 511.155)" gradientUnits="userSpaceOnUse">
      <stop stop-color="#F9F9F9" stop-opacity="0"/>
      <stop offset="1" stop-color="#E0E0E0"/>
    </radialGradient>
    <radialGradient id="paint1_radial" cx="0" cy="0" r="1" gradientTransform="matrix(592.107 0 0 591.992 -90.766 -276.894)" gradientUnits="userSpaceOnUse">
      <stop stop-color="#88C4FF"/>
      <stop offset="1" stop-color="#3A72C9"/>
    </radialGradient>
    <radialGradient id="paint2_radial" cx="0" cy="0" r="1" gradientTransform="matrix(243.141 0 0 243.093 231.647 301.07)" gradientUnits="userSpaceOnUse">
      <stop stop-color="#C7E6FF"/>
      <stop offset="1" stop-color="#5A9FF4"/>
    </radialGradient>
    <radialGradient id="paint3_radial" cx="0" cy="0" r="1" gradientTransform="matrix(1335.7631 566.92076 -407.77085 960.77846 37.733 111.457)" gradientUnits="userSpaceOnUse">
      <stop stop-color="#88C4FF"/>
      <stop offset="1" stop-color="#5A9FF4"/>
    </radialGradient>
    <radialGradient id="paint4_radial" cx="0" cy="0" r="1" gradientTransform="matrix(197.018 0 0 196.979 240.158 159.123)" gradientUnits="userSpaceOnUse">
      <stop stop-color="#FFC476"/>
      <stop offset="1" stop-color="#EF5316"/>
    </radialGradient>
    <radialGradient id="paint5_radial" cx="0" cy="0" r="1" gradientTransform="rotate(22.997 -361.787 926.013) scale(228.866 193.895)" gradientUnits="userSpaceOnUse">
      <stop stop-color="#FFC476"/>
      <stop offset="1" stop-color="#FF9B48" stop-opacity="0"/>
    </radialGradient>
    <radialGradient id="paint6_radial" cx="0" cy="0" r="1" gradientTransform="rotate(22.997 -382.875 588.1) scale(370.157 313.597)" gradientUnits="userSpaceOnUse">
      <stop stop-color="#FFC476"/>
      <stop offset="1" stop-color="#EF5316"/>
    </radialGradient>
    <radialGradient id="paint7_radial" cx="0" cy="0" r="1" gradientTransform="matrix(501.95066 213.03647 -180.4845 425.2526 125.862 -74.94)" gradientUnits="userSpaceOnUse">
      <stop stop-color="#FFC476"/>
      <stop offset="1" stop-color="#EF5316"/>
    </radialGradient>
    <radialGradient id="paint8_radial" cx="0" cy="0" r="1" gradientTransform="matrix(162.235 0 0 162.203 337.486 160.111)" gradientUnits="userSpaceOnUse">
      <stop stop-color="#FFC476"/>
      <stop offset="1" stop-color="#EF5316"/>
    </radialGradient>
    <radialGradient id="paint9_radial" cx="0" cy="0" r="1" gradientTransform="matrix(158.885 0 0 158.854 241.187 278.763)" gradientUnits="userSpaceOnUse">
      <stop stop-color="#FFC476"/>
      <stop offset="1" stop-color="#FF9B48" stop-opacity="0"/>
    </radialGradient>
    <radialGradient id="paint10_radial" cx="0" cy="0" r="1" gradientTransform="matrix(19.3686 0 0 19.3648 255.497 199.284)" gradientUnits="userSpaceOnUse">
      <stop stop-color="#FFC476"/>
      <stop offset="1" stop-color="#EF5316"/>
    </radialGradient>
    <radialGradient id="paint11_radial" cx="0" cy="0" r="1" gradientTransform="matrix(54.725 0 0 54.7143 240.523 229.692)" gradientUnits="userSpaceOnUse">
      <stop stop-color="#FFC476"/>
      <stop offset="1" stop-color="#EF5316"/>
    </radialGradient>
    <radialGradient id="paint12_radial" cx="0" cy="0" r="1" gradientTransform="matrix(30.0209 0 0 30.0151 259.179 256.296)" gradientUnits="userSpaceOnUse">
      <stop stop-color="#FFC476"/>
      <stop offset="1" stop-color="#EF5316"/>
    </radialGradient>
    <radialGradient id="paint13_radial" cx="0" cy="0" r="1" gradientTransform="matrix(40.5658 0 0 40.5579 250.618 215)" gradientUnits="userSpaceOnUse">
      <stop stop-color="#FFC476"/>
      <stop offset="1" stop-color="#EF5316"/>
    </radialGradient>
    <radialGradient id="paint14_radial" cx="0" cy="0" r="1" gradientTransform="matrix(58.5596 0 0 58.5483 323.631 248.852)" gradientUnits="userSpaceOnUse">
      <stop stop-color="#FFC476"/>
      <stop offset="1" stop-color="#EF5316"/>
    </radialGradient>
    <radialGradient id="paint15_radial" cx="0" cy="0" r="1" gradientTransform="matrix(36.3087 0 0 36.3018 266.322 190.836)" gradientUnits="userSpaceOnUse">
      <stop stop-color="#FFC476"/>
      <stop offset="1" stop-color="#EF5316"/>
    </radialGradient>
    <radialGradient id="paint16_radial" cx="0" cy="0" r="1" gradientTransform="matrix(254.957 0 0 254.907 245.308 205.421)" gradientUnits="userSpaceOnUse">
      <stop stop-color="#FFC476"/>
      <stop offset="1" stop-color="#EF5316"/>
    </radialGradient>
    <radialGradient id="paint17_radial" cx="0" cy="0" r="1" gradientTransform="rotate(-22.997 578.85 -701.19) scale(143.633 103.311)" gradientUnits="userSpaceOnUse">
      <stop stop-color="#4C6BDE"/>
      <stop offset="1" stop-color="#88C4FF" stop-opacity="0"/>
    </radialGradient>
    <radialGradient id="paint18_radial" cx="0" cy="0" r="1" gradientTransform="matrix(197.018 0 0 196.979 240.158 7.751)" gradientUnits="userSpaceOnUse">
      <stop stop-color="#FFC476"/>
      <stop offset="1" stop-color="#EF5316"/>
    </radialGradient>
    <radialGradient id="paint19_radial" cx="0" cy="0" r="1" gradientTransform="rotate(22.997 10.268 850.327) scale(228.866 193.895)" gradientUnits="userSpaceOnUse">
      <stop stop-color="#FFC476"/>
      <stop offset="1" stop-color="#FF9B48" stop-opacity="0"/>
    </radialGradient>
    <radialGradient id="paint20_radial" cx="0" cy="0" r="1" gradientTransform="rotate(22.997 26.677 874.348) scale(228.866 193.895)" gradientUnits="userSpaceOnUse">
      <stop stop-color="#FFC476"/>
      <stop offset="1" stop-color="#FF9B48" stop-opacity="0"/>
    </radialGradient>
    <radialGradient id="paint21_radial" cx="0" cy="0" r="1" gradientTransform="rotate(22.997 -10.822 512.414) scale(370.157 313.597)" gradientUnits="userSpaceOnUse">
      <stop stop-color="#FFC476"/>
      <stop offset="1" stop-color="#EF5316"/>
    </radialGradient>
    <radialGradient id="paint22_radial" cx="0" cy="0" r="1" gradientTransform="matrix(501.95066 213.03647 -180.4845 425.2526 125.862 -226.312)" gradientUnits="userSpaceOnUse">
      <stop stop-color="#FFC476"/>
      <stop offset="1" stop-color="#EF5316"/>
    </radialGradient>
    <radialGradient id="paint23_radial" cx="0" cy="0" r="1" gradientTransform="matrix(162.235 0 0 162.203 337.486 8.74)" gradientUnits="userSpaceOnUse">
      <stop stop-color="#FFC476"/>
      <stop offset="1" stop-color="#EF5316"/>
    </radialGradient>
    <radialGradient id="paint24_radial" cx="0" cy="0" r="1" gradientTransform="matrix(158.885 0 0 158.854 241.187 127.391)" gradientUnits="userSpaceOnUse">
      <stop stop-color="#FFC476"/>
      <stop offset="1" stop-color="#FF9B48" stop-opacity="0"/>
    </radialGradient>
    <radialGradient id="paint25_radial" cx="0" cy="0" r="1" gradientTransform="matrix(19.3686 0 0 19.3649 255.497 47.912)" gradientUnits="userSpaceOnUse">
      <stop stop-color="#FFC476"/>
      <stop offset="1" stop-color="#EF5316"/>
    </radialGradient>
    <radialGradient id="paint26_radial" cx="0" cy="0" r="1" gradientTransform="matrix(54.725 0 0 54.7143 240.522 78.32)" gradientUnits="userSpaceOnUse">
      <stop stop-color="#FFC476"/>
      <stop offset="1" stop-color="#EF5316"/>
    </radialGradient>
    <radialGradient id="paint27_radial" cx="0" cy="0" r="1" gradientTransform="matrix(30.0209 0 0 30.0151 259.179 104.924)" gradientUnits="userSpaceOnUse">
      <stop stop-color="#FFC476"/>
      <stop offset="1" stop-color="#EF5316"/>
    </radialGradient>
    <radialGradient id="paint28_radial" cx="0" cy="0" r="1" gradientTransform="matrix(40.5657 0 0 40.5578 250.618 63.628)" gradientUnits="userSpaceOnUse">
      <stop stop-color="#FFC476"/>
      <stop offset="1" stop-color="#EF5316"/>
    </radialGradient>
    <radialGradient id="paint29_radial" cx="0" cy="0" r="1" gradientTransform="matrix(58.5596 0 0 58.5483 323.631 97.48)" gradientUnits="userSpaceOnUse">
      <stop stop-color="#FFC476"/>
      <stop offset="1" stop-color="#EF5316"/>
    </radialGradient>
    <radialGradient id="paint30_radial" cx="0" cy="0" r="1" gradientTransform="matrix(36.3088 0 0 36.3017 266.322 39.464)" gradientUnits="userSpaceOnUse">
      <stop stop-color="#FFC476"/>
      <stop offset="1" stop-color="#EF5316"/>
    </radialGradient>
    <radialGradient id="paint31_radial" cx="0" cy="0" r="1" gradientTransform="matrix(254.956 0 0 254.907 245.308 54.05)" gradientUnits="userSpaceOnUse">
      <stop stop-color="#FFC476"/>
      <stop offset="1" stop-color="#EF5316"/>
    </radialGradient>
  </defs>
</svg>
