<svg xmlns="http://www.w3.org/2000/svg" fill="none" viewBox="0 0 608 268">
  <defs/>
  <path fill="url(#paint0_radial)" d="M162.992 268c89.964 0 162.894-39.672 162.894-88.611 0-48.938-72.93-88.61-162.894-88.61S.097 130.45.097 179.388C.097 228.328 73.027 268 162.992 268z" opacity=".5"/>
  <path fill="url(#paint1_radial)" d="M298.718 268c97.878 0 177.224-39.672 177.224-88.611 0-48.938-79.346-88.61-177.224-88.61-97.878 0-177.223 39.672-177.223 88.61 0 48.939 79.345 88.611 177.223 88.611z" opacity=".5"/>
  <path fill="url(#paint2_radial)" d="M437.884 268C531.836 268 608 228.328 608 179.389c0-48.938-76.164-88.61-170.116-88.61-93.953 0-170.117 39.672-170.117 88.61 0 48.939 76.164 88.611 170.117 88.611z" opacity=".5"/>
  <path fill="url(#paint3_radial)" d="M220.882 73.033v-7.9c0-1.03-1.376-1.945-3.095-1.945h-7.451c-2.981 13.852-19.03 19.233-33.244 19.004l-4.471 3.206-29.117.572-33.587-.801v61.478c0 1.602 1.26 3.091 3.553 3.892a125.482 125.482 0 0020.29 5.152c10.432 1.717 20.864 2.633 31.41 2.633 13.641 0 25.219-1.374 34.619-4.121 9.4-2.748 16.508-6.412 21.208-10.991 4.585-4.579 6.878-9.617 6.878-14.997V66.622l-6.993 6.411z"/>
  <path fill="url(#paint4_radial)" d="M221.226 11.67v50.373l-40.122-19.348 11.463-17.058 28.659-13.967z"/>
  <path fill="url(#paint5_radial)" d="M197.497 63.645l-1.261-9.845-22.698-11.563s8.483-19.462 9.629-20.15c1.147-.686 4.013-7.899 4.013-7.899l-71.646 1.832V79.1c0 1.031 1.375 1.947 3.095 1.947h57.66c1.376 0 2.178 1.03 1.261 1.603 14.215.229 30.264-5.152 33.244-19.005h-13.297z"/>
  <path fill="url(#paint6_radial)" d="M148.663 52.197v29.537l36.224 1.26 13.985-7.442s2.751-18.547 2.293-18.89c-.459-.343-23.844-9.731-24.188-9.731-.344 0-28.314 5.266-28.314 5.266z"/>
  <path fill="#fff" d="M217.558 49.22c7.107 4.809 10.546 10.648 10.546 17.746 0 5.38-2.293 10.418-6.878 14.997-4.586 4.58-11.578 8.243-21.093 10.99-9.4 2.748-20.978 4.122-34.619 4.122-10.546 0-21.093-.916-31.41-2.633a123.878 123.878 0 01-20.405-5.152c-3.324-1.145-4.585-3.778-2.865-5.953l8.139-9.96c1.261-1.603 4.585-2.061 6.992-1.145 5.044 1.832 10.203 3.32 15.476 4.35 7.68 1.489 15.475 2.175 23.27 2.175 8.827 0 15.705-1.03 20.749-3.09 5.044-2.061 7.566-5.038 7.566-8.93 0-7.67-9.4-11.449-28.315-11.449H152.79c-2.293 0-4.127-1.145-4.127-2.518v-9.617c.114-1.374.917-2.748 2.063-3.435l26.48-18.66c.918-.688.23-1.718-1.26-1.718h-57.547c-1.719 0-3.095-.801-3.095-1.946V3.884c0-1.03 1.376-1.946 3.095-1.946h99.732c1.719 0 3.095.802 3.095 1.947v10.418c-.115 1.26-.803 2.404-1.834 2.976L188.67 38.917c-.688.458-.229 1.26.802 1.374 12.037 1.488 21.437 4.465 28.086 8.93z"/>
  <path fill="url(#paint7_radial)" d="M295.05 62.043h-.573c8.712-7.785 19.488-17.173 19.831-17.287.23-.115 11.578-10.99 11.235-12.48-.344-1.487-1.491-9.96-2.752-11.448-1.146-1.488-40.809-9.96-43.79-9.96-3.095 0-42.529 6.526-42.529 6.526v61.363c-.115.802.459 1.489 1.49 1.947l11.349 4.465c18.8-2.061 34.39-13.624 49.637-23.012-1.261-.114-2.637-.114-3.898-.114z"/>
  <path fill="url(#paint8_radial)" d="M350.762 91.465c.115-.687.115-1.374.115-2.06 0-5.61-2.293-10.533-6.993-14.654-4.7-4.122-11.234-7.327-19.602-9.617-8.369-2.175-16.966-3.32-25.678-3.32-15.247 9.388-30.837 20.95-49.637 23.011l8.598 3.435c1.49.572 3.095.458 4.356-.458 3.553-2.519 7.451-4.465 11.578-5.61 5.846-1.603 11.922-2.404 17.883-2.29 7.909 0 13.87 1.03 17.997 2.977 3.898 1.946 5.846 4.58 6.076 8.014l-74.054-1.374v65.6c0 1.03 1.376 1.831 2.981 1.831h108.443c1.605 0 2.981-.801 2.981-1.831v-63.54l-5.044-.114z"/>
  <path fill="url(#paint9_radial)" d="M351.22 28.613v53.121h-70.385l55.139-48.312 15.246-4.809z"/>
  <path fill="url(#paint10_radial)" d="M259.972 13.502c-11.349 1.831-23.5 3.777-23.5 3.777v61.364c-.115.801.459 1.488 1.49 1.946l11.349 4.465c3.554-.458 7.222-1.145 10.661-2.175V13.502z"/>
  <path fill="#fff" d="M356.15 79.788v14.081c0 1.03-1.376 1.832-2.981 1.832H244.84c-1.604 0-2.98-.801-2.98-1.832V82.88c.115-.916.573-1.717 1.376-2.06l56.858-33.201c6.19-3.664 10.431-6.755 12.495-9.388 1.949-2.175 3.095-4.923 3.21-7.785 0-3.778-2.064-6.64-6.191-8.586-4.126-1.947-10.087-2.977-17.997-2.977a62.346 62.346 0 00-17.883 2.29 36.2 36.2 0 00-11.578 5.61c-1.261.801-2.98 1.03-4.356.457l-19.946-7.899c-1.605-.687-2.064-2.06-.803-2.977 5.617-4.579 13.069-8.242 22.239-10.876C270.862 2.282 282.899.68 294.935.908a115.858 115.858 0 0129.461 3.435c8.368 2.29 15.017 5.495 19.603 9.616 4.7 4.122 6.992 9.045 6.992 14.654 0 5.152-1.834 10.19-5.158 14.196-3.439 4.465-10.203 9.503-20.061 15.227L293.56 76.582c-.917.458-.344 1.374.917 1.374h58.692c1.72 0 2.981.801 2.981 1.832z"/>
  <path fill="url(#paint11_radial)" d="M499.442 109.783V47.618s-20.978 14.425-21.207 15.112c-.115.229-2.064 3.32-4.586 7.212-1.834-.916-3.668-1.717-5.617-2.518-9.744-3.779-20.978-5.725-33.473-5.725-12.495 0-23.729 1.947-33.473 5.725-3.324 1.259-6.649 2.976-9.744 4.808l-21.551-23.813v61.593c0 10.074 2.751 18.775 8.368 25.988 5.503 7.327 13.183 12.822 22.927 16.6 9.744 3.778 20.978 5.724 33.473 5.724 12.495 0 23.729-1.946 33.473-5.724 9.744-3.778 17.425-9.388 22.927-16.6 5.502-7.327 8.254-15.914 8.368-25.988.115 0 .115-.115.115-.229zM455.996 87c-9.171 1.489-23.844 3.893-24.647 3.778-.458-.114-7.565-2.747-15.246-5.724 4.929-3.32 11.12-5.037 18.571-5.037 8.941 0 16.049 2.29 21.322 6.983z"/>
  <path fill="url(#paint12_radial)" d="M199.789 141.609c-9.4 2.748-20.978 4.122-34.619 4.122-10.546 0-21.093-.802-31.524-2.633a123.933 123.933 0 01-20.405-5.152c-2.293-.802-3.554-2.29-3.554-3.893v2.633c0 1.603 1.261 3.092 3.554 3.893a126.811 126.811 0 0020.405 5.152c10.431 1.717 20.863 2.633 31.409 2.633 13.642 0 25.22-1.374 34.62-4.122 9.4-2.747 16.507-6.411 21.207-10.99 4.585-4.579 6.878-9.617 6.878-14.998v-2.633c0 5.381-2.293 10.418-6.878 14.998-4.585 4.579-11.578 8.243-21.093 10.99z"/>
  <path fill="url(#paint13_radial)" d="M350.762 78.757c.115-.229.115-.572.115-.8-.115.228-.115.457-.115.8z"/>
  <path fill="url(#paint14_radial)" d="M352.94 144.128H244.496c-1.604 0-2.98-.801-2.98-1.832v2.633c0 1.031 1.376 1.832 2.98 1.832H352.94c1.605 0 2.98-.801 2.98-1.832v-2.633c-.114 1.031-1.375 1.832-2.98 1.832z"/>
  <path fill="url(#paint15_radial)" d="M434.674 67.195c-7.566 0-13.642 1.717-18.571 5.037l2.751 1.03c4.93-2.404 10.432-3.549 15.934-3.434 7.452 0 13.527 1.602 18.456 4.808l2.866-.458c-5.387-4.58-12.495-6.869-21.436-6.983z"/>
  <path fill="url(#paint16_radial)" d="M499.442 97.647c0 9.961-2.866 18.547-8.254 25.759-5.502 7.213-13.183 12.823-22.927 16.601-9.743 3.778-20.977 5.724-33.473 5.724-12.495 0-23.729-1.946-33.473-5.724-9.743-3.778-17.424-9.388-22.926-16.601-5.503-7.327-8.254-15.913-8.369-25.988v2.634c0 10.074 2.752 18.775 8.369 25.988 5.502 7.212 13.183 12.822 22.926 16.6 9.744 3.778 20.978 5.724 33.473 5.724 12.496 0 23.73-1.946 33.473-5.724 9.744-3.778 17.425-9.388 22.927-16.6 5.503-7.327 8.254-15.914 8.368-25.988v-.344l-.114-2.06z"/>
  <path fill="url(#paint17_radial)" d="M400.628 64.905l14.787 14.082 29.805 4.693s17.424-13.165 18.227-13.394c.802-.344 7.91-24.5 8.483-26.217.688-1.718-3.095-16.944-8.025-21.752-4.929-4.809-27.741-12.937-32.212-12.937-4.47 0-31.295 9.502-31.065 10.418.114.916-1.491 31.483-1.491 31.483l1.491 13.624z"/>
  <path fill="#fff" d="M401.545 91.465c-9.744-3.778-17.425-9.388-22.927-16.6-5.502-7.327-8.254-15.913-8.368-25.988 0-10.075 2.751-18.775 8.368-25.988 5.502-7.212 13.183-12.822 22.927-16.6C411.289 2.51 422.523.565 435.018.565c12.495 0 23.729 1.946 33.473 5.724 9.744 3.778 17.424 9.388 22.926 16.6 5.503 7.327 8.254 15.913 8.369 25.988 0 10.075-2.751 18.776-8.369 25.988-5.502 7.213-13.182 12.822-22.926 16.6-9.744 3.778-20.978 5.724-33.473 5.724-12.495 0-23.729-1.946-33.473-5.724zm55.138-19.92c5.274-4.923 7.91-12.479 7.91-22.782 0-10.304-2.636-17.86-7.91-22.783-5.273-4.923-12.495-7.327-21.665-7.327-9.056 0-16.278 2.404-21.551 7.327-5.274 4.923-7.91 12.479-7.91 22.783 0 10.303 2.636 17.86 7.91 22.782 5.273 4.923 12.38 7.327 21.551 7.441 9.17-.114 16.507-2.518 21.665-7.441z"/>
  <defs>
    <radialGradient id="paint0_radial" cx="0" cy="0" r="1" gradientTransform="matrix(162.501 0 0 88.5212 164.507 179.066)" gradientUnits="userSpaceOnUse">
      <stop stop-color="#3A72C9"/>
      <stop offset="1" stop-color="#88C4FF" stop-opacity="0"/>
    </radialGradient>
    <radialGradient id="paint1_radial" cx="0" cy="0" r="1" gradientTransform="matrix(177.034 0 0 88.4018 298.699 179.066)" gradientUnits="userSpaceOnUse">
      <stop stop-color="#3A72C9"/>
      <stop offset="1" stop-color="#88C4FF" stop-opacity="0"/>
    </radialGradient>
    <radialGradient id="paint2_radial" cx="0" cy="0" r="1" gradientTransform="matrix(170.455 0 0 88.5212 436.821 179.066)" gradientUnits="userSpaceOnUse">
      <stop stop-color="#3A72C9"/>
      <stop offset="1" stop-color="#88C4FF" stop-opacity="0"/>
    </radialGradient>
    <radialGradient id="paint3_radial" cx="0" cy="0" r="1" gradientTransform="matrix(195.641 0 0 195.386 161.455 25.907)" gradientUnits="userSpaceOnUse">
      <stop stop-color="#88C4FF"/>
      <stop offset="1" stop-color="#3A72C9"/>
    </radialGradient>
    <radialGradient id="paint4_radial" cx="0" cy="0" r="1" gradientTransform="matrix(224.438 0 0 224.145 194.891 -61.563)" gradientUnits="userSpaceOnUse">
      <stop stop-color="#88C4FF"/>
      <stop offset="1" stop-color="#3A72C9"/>
    </radialGradient>
    <radialGradient id="paint5_radial" cx="0" cy="0" r="1" gradientTransform="matrix(227.09 0 0 226.794 168.563 -70.633)" gradientUnits="userSpaceOnUse">
      <stop stop-color="#88C4FF"/>
      <stop offset="1" stop-color="#3A72C9"/>
    </radialGradient>
    <radialGradient id="paint6_radial" cx="0" cy="0" r="1" gradientTransform="matrix(132.456 0 0 132.283 187.083 28.499)" gradientUnits="userSpaceOnUse">
      <stop stop-color="#88C4FF"/>
      <stop offset="1" stop-color="#3A72C9"/>
    </radialGradient>
    <radialGradient id="paint7_radial" cx="0" cy="0" r="1" gradientTransform="matrix(261.295 0 0 260.954 293.498 -92.707)" gradientUnits="userSpaceOnUse">
      <stop stop-color="#88C4FF"/>
      <stop offset="1" stop-color="#3A72C9"/>
    </radialGradient>
    <radialGradient id="paint8_radial" cx="0" cy="0" r="1" gradientTransform="matrix(216.446 0 0 216.164 297.413 19.371)" gradientUnits="userSpaceOnUse">
      <stop stop-color="#88C4FF"/>
      <stop offset="1" stop-color="#3A72C9"/>
    </radialGradient>
    <radialGradient id="paint9_radial" cx="0" cy="0" r="1" gradientTransform="matrix(172.218 0 0 171.993 324.694 -24.846)" gradientUnits="userSpaceOnUse">
      <stop stop-color="#88C4FF"/>
      <stop offset="1" stop-color="#3A72C9"/>
    </radialGradient>
    <radialGradient id="paint10_radial" cx="0" cy="0" r="1" gradientTransform="matrix(317.052 0 0 316.638 256.066 -72.135)" gradientUnits="userSpaceOnUse">
      <stop stop-color="#88C4FF"/>
      <stop offset="1" stop-color="#3A72C9"/>
    </radialGradient>
    <radialGradient id="paint11_radial" cx="0" cy="0" r="1" gradientTransform="matrix(237.401 0 0 237.091 444.118 32.49)" gradientUnits="userSpaceOnUse">
      <stop stop-color="#88C4FF"/>
      <stop offset="1" stop-color="#3A72C9"/>
    </radialGradient>
    <radialGradient id="paint12_radial" cx="0" cy="0" r="1" gradientTransform="matrix(77.6755 0 0 77.5742 102.139 77.967)" gradientUnits="userSpaceOnUse">
      <stop stop-color="#88C4FF"/>
      <stop offset="1" stop-color="#3A72C9"/>
    </radialGradient>
    <radialGradient id="paint13_radial" cx="0" cy="0" r="1" gradientTransform="matrix(1.64176 0 0 1.63976 350.793 77.589)" gradientUnits="userSpaceOnUse">
      <stop stop-color="#88C4FF"/>
      <stop offset="1" stop-color="#3A72C9"/>
    </radialGradient>
    <radialGradient id="paint14_radial" cx="0" cy="0" r="1" gradientTransform="matrix(85.0583 0 0 84.9475 295.886 29.45)" gradientUnits="userSpaceOnUse">
      <stop stop-color="#88C4FF"/>
      <stop offset="1" stop-color="#3A72C9"/>
    </radialGradient>
    <radialGradient id="paint15_radial" cx="0" cy="0" r="1" gradientTransform="matrix(32.8154 0 0 32.7726 438.94 66.225)" gradientUnits="userSpaceOnUse">
      <stop stop-color="#88C4FF"/>
      <stop offset="1" stop-color="#3A72C9"/>
    </radialGradient>
    <radialGradient id="paint16_radial" cx="0" cy="0" r="1" gradientTransform="matrix(89.3296 0 0 89.2131 541.336 88.058)" gradientUnits="userSpaceOnUse">
      <stop stop-color="#88C4FF"/>
      <stop offset="1" stop-color="#3A72C9"/>
    </radialGradient>
    <radialGradient id="paint17_radial" cx="0" cy="0" r="1" gradientTransform="matrix(281.549 0 0 281.182 427.549 -80.988)" gradientUnits="userSpaceOnUse">
      <stop stop-color="#88C4FF"/>
      <stop offset="1" stop-color="#3A72C9"/>
    </radialGradient>
  </defs>
</svg>
