<svg xmlns="http://www.w3.org/2000/svg" fill="none" viewBox="0 0 200 188">
  <defs/>
  <path fill="url(#paint0_radial)" d="M99.731 187.067c55.08 0 99.732-25.577 99.732-57.127 0-31.551-44.652-57.128-99.732-57.128S0 98.389 0 129.94c0 31.55 44.651 57.127 99.731 57.127z" opacity=".5"/>
  <path fill="url(#paint1_radial)" d="M133.663 15.684l-30.837 4.236.344 19.005c9.63 4.579 19.832 9.273 30.608 9.387l-.115-32.628z"/>
  <path fill="url(#paint2_radial)" d="M133.319 56.67c.573-.916.344-2.06-.459-2.633h.803v-5.725c-10.776-.114-20.978-4.808-30.607-9.387v.687h-7.795c-1.376 0-2.408.572-2.637 1.488L60.068 28.049v34.917c8.368-.229 16.737-.114 25.105 0 1.949-1.03 4.012-1.831 6.19-2.06.688-.115 1.49.229 1.49.687v1.602c4.586.115 9.286.115 13.871 0v-1.259c0-.801 1.146-1.374 2.407-1.26 3.554.344 7.108 1.031 10.661 1.832 3.668-.343 7.451-.686 11.12-1.259 2.866-.687 5.158-4.58 8.139-8.128l-5.961 4.236.229-.687z"/>
  <path fill="url(#paint3_radial)" d="M130.682 61.25c-3.668.572-7.451.915-11.119 1.258 1.032.23 2.178.573 3.21.802l-16.164 4.465v-4.58a280.08 280.08 0 01-13.87 0v3.664l-9.859-1.603c.459-.801 1.147-1.603 2.064-2.06l.114-.115c-8.368-.115-16.736-.344-25.105 0v.801l-1.375.458v39.497c0 .458.344.916.917 1.26 4.356 1.717 8.827 3.091 13.527 4.007 6.42 1.259 13.068 2.06 19.602 2.175v7.785c0 .916 1.146 1.602 2.637 1.602h8.597c1.49 0 2.637-.686 2.637-1.602v-8.014c10.431-.802 18.456-2.862 24.073-6.297 5.617-3.32 8.368-7.441 8.368-12.135V53.006l-.229.115c-2.866 3.434-5.159 7.441-8.025 8.128z"/>
  <path fill="url(#paint4_radial)" d="M97.897 27.133c.115-.115-2.407-9.617-2.522-9.617-.114 0-13.297.687-13.297.687l-5.732 13.166s19.144 6.525 19.488 6.64c.344.114 1.834-10.762 2.063-10.876z"/>
  <path fill="url(#paint5_radial)" d="M92.739 78.307V119.064c0 .916 1.146 1.602 2.636 1.602h8.598c1.49 0 2.636-.686 2.636-1.602V78.307h-13.87z"/>
  <path fill="url(#paint6_radial)" d="M130.682 66.172c-5.617 3.32-13.526 5.495-24.073 6.297v8.014c0 .915-1.146 1.602-2.636 1.602h-8.598c-1.49 0-2.636-.687-2.636-1.602v-7.785c-6.534-.23-13.183-.916-19.603-2.176-4.585-.916-9.17-2.175-13.526-4.007-.917-.343-1.261-1.144-.688-1.717l6.075-8.357c.688-.573 1.605-.802 2.408-.458a69.078 69.078 0 0010.775 3.32 79.625 79.625 0 0014.559 2.06v-14.31c-5.617-.801-11.234-1.832-16.737-3.32-4.127-1.03-8.024-2.748-11.463-5.266-2.98-2.175-4.7-5.61-4.586-9.273 0-4.809 2.752-8.816 8.369-12.25 5.617-3.435 13.756-5.495 24.302-6.297v-7.9c0-.915 1.146-1.602 2.637-1.602h8.597c1.49 0 2.637.687 2.637 1.603v7.785c9.514.458 17.768 1.831 24.531 3.892 2.178.687 3.095 2.29 2.178 3.664l-4.126 6.182c-.688 1.03-2.752 1.488-4.356 1.03-5.159-1.603-10.547-2.633-15.935-3.205-1.031-.115-2.178.572-2.178 1.259V35.49c0 .573.688 1.03 1.605 1.26 5.044.686 9.973 1.717 14.903 2.862 4.126 1.03 7.909 2.747 11.348 5.266 2.981 2.06 4.7 5.495 4.586 9.159 0 4.808-2.751 8.815-8.369 12.135zM85.058 32.056a28.09 28.09 0 006.19 2.06c.688.115 1.49-.114 1.49-.687V23.011c0-.457-.687-.801-1.49-.686-2.292.343-4.356 1.03-6.304 2.175-1.72 1.145-2.522 2.404-2.522 3.892-.115 1.603.802 2.862 2.636 3.664zm29.117 26.789c1.72-1.03 2.522-2.29 2.522-3.663 0-1.374-.802-2.634-2.522-3.55-2.407-1.144-4.814-1.946-7.451-2.404v11.907c3.21-.458 5.732-1.26 7.451-2.29z"/>
  <path fill="url(#paint7_radial)" d="M130.682 66.172c-5.617 3.32-13.526 5.495-24.073 6.297v8.014c0 .915-1.146 1.602-2.636 1.602h-8.598c-1.49 0-2.636-.687-2.636-1.602v-7.785c-6.534-.23-13.183-.916-19.603-2.176-4.585-.916-9.17-2.175-13.526-4.007-.917-.343-1.261-1.144-.688-1.717l6.075-8.357c.688-.573 1.605-.802 2.408-.458a69.078 69.078 0 0010.775 3.32 79.625 79.625 0 0014.559 2.06v-14.31c-5.617-.801-11.234-1.832-16.737-3.32-4.127-1.03-8.024-2.748-11.463-5.266-2.98-2.175-4.7-5.61-4.586-9.273 0-4.809 2.752-8.816 8.369-12.25 5.617-3.435 13.756-5.495 24.302-6.297v-7.9c0-.915 1.146-1.602 2.637-1.602h8.597c1.49 0 2.637.687 2.637 1.603v7.785c9.514.458 17.768 1.831 24.531 3.892 2.178.687 3.095 2.29 2.178 3.664l-4.126 6.182c-.688 1.03-2.752 1.488-4.356 1.03-5.159-1.603-10.547-2.633-15.935-3.205-1.031-.115-2.178.572-2.178 1.259V35.49c0 .573.688 1.03 1.605 1.26 5.044.686 9.973 1.717 14.903 2.862 4.126 1.03 7.909 2.747 11.348 5.266 2.981 2.06 4.7 5.495 4.586 9.159 0 4.808-2.751 8.815-8.369 12.135zM85.058 32.056a28.09 28.09 0 006.19 2.06c.688.115 1.49-.114 1.49-.687V23.011c0-.457-.687-.801-1.49-.686-2.292.343-4.356 1.03-6.304 2.175-1.72 1.145-2.522 2.404-2.522 3.892-.115 1.603.802 2.862 2.636 3.664zm29.117 26.789c1.72-1.03 2.522-2.29 2.522-3.663 0-1.374-.802-2.634-2.522-3.55-2.407-1.144-4.814-1.946-7.451-2.404v11.907c3.21-.458 5.732-1.26 7.451-2.29z"/>
  <path fill="url(#paint8_radial)" d="M130.682 65.027c-5.617 3.32-13.526 5.495-24.073 6.297v8.014c0 .916-1.146 1.602-2.636 1.602h-8.598c-1.49 0-2.636-.686-2.636-1.602v-7.785c-6.534-.23-13.183-.916-19.603-2.175-4.585-.916-9.17-2.176-13.526-4.007-.917-.344-1.261-1.145-.688-1.718l6.075-8.357c.688-.572 1.605-.801 2.408-.458a69.078 69.078 0 0010.775 3.32 79.625 79.625 0 0014.559 2.06v-14.31c-5.617-.801-11.234-1.831-16.737-3.32-4.127-1.03-8.024-2.748-11.463-5.266-2.98-2.175-4.7-5.61-4.586-9.273 0-4.809 2.752-8.816 8.369-12.25 5.617-3.435 13.756-5.495 24.302-6.297v-7.9C92.624.688 93.77 0 95.261 0h8.597c1.605 0 2.751.687 2.751 1.603v7.785c9.515.458 17.769 1.832 24.532 3.892 2.178.687 3.095 2.29 2.178 3.664l-4.127 6.296c-.688 1.03-2.751 1.489-4.356 1.03-5.158-1.602-10.546-2.747-15.934-3.205-1.146-.229-2.293.344-2.293 1.145v12.135c0 .573.688 1.03 1.605 1.26 5.044.687 9.973 1.717 14.903 2.862 4.126 1.03 7.909 2.747 11.348 5.266 2.981 2.06 4.7 5.495 4.586 9.159 0 4.808-2.751 8.815-8.369 12.135zM85.058 30.911a28.09 28.09 0 006.19 2.06c.688.115 1.49-.114 1.49-.686V21.867c0-.458-.687-.802-1.49-.687-2.292.343-4.356 1.03-6.304 2.175-1.72 1.145-2.522 2.404-2.522 3.892-.115 1.603.802 2.748 2.636 3.664zm29.117 26.79c1.72-1.031 2.522-2.29 2.522-3.664 0-1.489-.802-2.634-2.522-3.55-2.407-1.144-4.814-1.946-7.451-2.404V59.99c3.21-.573 5.732-1.26 7.451-2.29z"/>
  <defs>
    <radialGradient id="paint0_radial" cx="0" cy="0" r="1" gradientTransform="matrix(99.5472 0 0 57.0188 100.2 129.851)" gradientUnits="userSpaceOnUse">
      <stop stop-color="#3A72C9"/>
      <stop offset="1" stop-color="#88C4FF" stop-opacity="0"/>
    </radialGradient>
    <radialGradient id="paint1_radial" cx="0" cy="0" r="1" gradientTransform="matrix(185.517 0 0 185.275 85.459 -54.333)" gradientUnits="userSpaceOnUse">
      <stop stop-color="#FFC476"/>
      <stop offset="1" stop-color="#EF5316"/>
    </radialGradient>
    <radialGradient id="paint2_radial" cx="0" cy="0" r="1" gradientTransform="matrix(216.749 0 0 216.467 92.551 -57.693)" gradientUnits="userSpaceOnUse">
      <stop stop-color="#FFC476"/>
      <stop offset="1" stop-color="#EF5316"/>
    </radialGradient>
    <radialGradient id="paint3_radial" cx="0" cy="0" r="1" gradientTransform="matrix(337.612 0 0 337.172 230.853 -3.641)" gradientUnits="userSpaceOnUse">
      <stop stop-color="#FFC476"/>
      <stop offset="1" stop-color="#EF5316"/>
    </radialGradient>
    <radialGradient id="paint4_radial" cx="0" cy="0" r="1" gradientTransform="matrix(185.517 0 0 185.275 73.626 -96.685)" gradientUnits="userSpaceOnUse">
      <stop stop-color="#FFC476"/>
      <stop offset="1" stop-color="#EF5316"/>
    </radialGradient>
    <radialGradient id="paint5_radial" cx="0" cy="0" r="1" gradientTransform="matrix(173.425 0 0 173.199 122.519 42.906)" gradientUnits="userSpaceOnUse">
      <stop stop-color="#FFC476"/>
      <stop offset="1" stop-color="#EF5316"/>
    </radialGradient>
    <radialGradient id="paint6_radial" cx="0" cy="0" r="1" gradientTransform="matrix(46.5271 0 0 27.8798 100.324 80.277)" gradientUnits="userSpaceOnUse">
      <stop stop-color="#fff"/>
      <stop offset="1" stop-color="#FE751A" stop-opacity="0"/>
    </radialGradient>
    <radialGradient id="paint7_radial" cx="0" cy="0" r="1" gradientTransform="matrix(101.323 0 0 29.3453 125.47 24.808)" gradientUnits="userSpaceOnUse">
      <stop stop-color="#fff"/>
      <stop offset="1" stop-color="#FE751A" stop-opacity="0"/>
    </radialGradient>
    <radialGradient id="paint8_radial" cx="0" cy="0" r="1" gradientTransform="matrix(602.419 0 0 607.65 102.048 81.13)" gradientUnits="userSpaceOnUse">
      <stop stop-color="#FFC476"/>
      <stop offset="1" stop-color="#EF5316"/>
    </radialGradient>
  </defs>
</svg>
