<svg xmlns="http://www.w3.org/2000/svg" fill="none" viewBox="0 0 586 288">
  <defs/>
  <g clip-path="url(#clip0)">
    <path fill="url(#paint0_radial)" d="M175.215 288c96.768 0 175.215-41.687 175.215-93.109 0-51.423-78.447-93.11-175.215-93.11C78.446 101.781 0 143.468 0 194.891 0 246.313 78.446 288 175.215 288z" opacity=".5"/>
    <path fill="url(#paint1_radial)" d="M326.483 288c101.017 0 182.908-41.687 182.908-93.109 0-51.423-81.891-93.11-182.908-93.11-101.018 0-182.909 41.687-182.909 93.11 0 51.422 81.891 93.109 182.909 93.109z" opacity=".5"/>
    <path fill="url(#paint2_radial)" d="M188.76 110.886c18.637-2.493 37.383-12.14 45.835-28.94l-24.814-10.081-33.699-8.563s-31.641 1.409-32.074 1.842c-.217.325-13.003 7.37-23.189 12.899 13.22 23.413 40.634 35.661 67.941 32.843z"/>
    <path fill="url(#paint3_radial)" d="M241.422 148.498v-64.06l-7.26-2.927c-8.561 16.91-27.198 26.448-45.836 28.941-27.414 2.927-54.829-9.321-67.832-32.843l-12.461 6.83v64.71c0 6.07 2.709 11.381 8.235 15.933 5.526 4.553 13.22 8.022 23.297 10.515 11.486 2.601 23.189 3.902 34.891 3.685 11.811.108 23.514-1.084 35-3.685 10.077-2.493 17.879-5.962 23.514-10.515 5.526-4.552 8.343-9.863 8.343-15.933.109-.217.109-.434.109-.651z"/>
    <path fill="url(#paint4_radial)" d="M236.22 42.056V74.25l-41.717-11.056-80.294 14.091V42.056l40.743-15.933s37.058-3.577 39.767-2.493c2.601.975 41.501 18.426 41.501 18.426z"/>
    <path fill="#fff" d="M235.679 71.214c3.901 3.469 6.176 8.346 6.176 13.55 0 6.07-2.817 11.38-8.344 15.933-5.526 4.553-13.436 8.021-23.513 10.514-11.486 2.602-23.297 3.902-35.108 3.685-11.703.217-23.514-1.083-34.891-3.685-9.969-2.493-17.771-5.961-23.297-10.514-5.527-4.553-8.236-9.864-8.236-15.934 0-5.203 2.276-10.189 6.177-13.549 4.117-3.902 10.077-7.154 17.77-9.538a35.347 35.347 0 01-13.544-8.455c-3.034-3.143-4.768-7.37-4.768-11.706 0-5.637 2.601-10.623 7.693-14.85 5.093-4.228 12.245-7.48 21.455-9.756 10.403-2.384 21.022-3.577 31.641-3.468 10.727-.109 21.455.975 31.965 3.468 9.211 2.277 16.471 5.528 21.564 9.756 5.092 4.227 7.693 9.105 7.693 14.85 0 4.335-1.734 8.563-4.768 11.706-3.142 3.36-7.801 6.178-13.761 8.455 7.91 2.493 13.87 5.636 18.096 9.538zM196.778 94.41c5.31-2.601 8.019-5.961 8.019-10.297s-2.709-7.696-8.019-10.189c-5.309-2.493-12.569-3.794-21.78-3.794-8.994 0-16.145 1.3-21.455 3.794-5.309 2.493-7.91 5.962-7.91 10.189 0 4.444 2.601 7.804 7.91 10.406 5.31 2.493 12.461 3.793 21.455 3.793 8.994-.108 16.471-1.3 21.78-3.902zm-39.551-60.917c-4.442 2.168-6.609 5.203-6.609 8.997 0 3.794 2.167 6.72 6.501 8.78 4.334 2.168 10.294 3.252 17.879 3.252 7.585 0 13.545-1.084 18.096-3.252 4.551-2.168 6.718-5.095 6.718-8.78 0-3.685-2.275-6.829-6.718-8.997-4.443-2.167-10.511-3.251-18.096-3.251-7.477 0-13.328 1.084-17.771 3.251z"/>
    <path fill="url(#paint5_radial)" d="M241.422 137.876v-1.843c-.109 5.962-2.818 11.165-8.344 15.609-5.526 4.444-13.328 8.021-23.514 10.514-11.486 2.601-23.188 3.902-34.999 3.685-11.703.217-23.514-1.084-34.892-3.685-9.968-2.493-17.77-5.962-23.297-10.514-5.526-4.553-8.235-9.864-8.235-15.934v2.71c0 6.07 2.709 11.381 8.235 15.933 5.527 4.553 13.22 8.022 23.297 10.515 11.486 2.601 23.189 3.902 34.892 3.685 11.811.108 23.513-1.084 34.999-3.685 10.078-2.493 17.879-5.962 23.514-10.515 5.635-4.552 8.344-9.863 8.344-15.933.108-.109 0-.325 0-.542z"/>
    <path fill="url(#paint6_radial)" d="M338.51 106.333c22.539-2.818 46.378-23.954 45.836-48.885L353.03 39.022l-19.504-11.815-41.61 1.842-26.006 27.315c6.827 29.808 42.802 53.655 72.6 49.969z"/>
    <path fill="url(#paint7_radial)" d="M384.454 57.448c.434 24.822-23.405 46.067-45.835 48.885-29.799 3.686-65.774-20.16-72.6-49.86l-7.368 7.696v64.819c0 10.514 2.925 19.619 8.668 27.206 5.851 7.588 13.87 13.441 24.056 17.451 10.185 4.011 21.888 6.07 34.999 6.07 13.112 0 24.814-2.059 35-6.07 10.186-4.01 18.312-9.863 24.055-17.451 5.743-7.587 8.669-16.692 8.561-27.206V63.193l-9.536-5.745z"/>
    <path fill="#fff" d="M291.375 108.935c-10.186-4.011-18.313-9.864-24.056-17.451-5.851-7.588-8.668-16.693-8.668-27.207s2.925-19.62 8.668-27.207c5.851-7.587 13.87-13.44 24.056-17.45 10.294-4.012 21.888-6.07 34.999-6.07 13.112 0 24.814 2.058 35 6.07 10.186 4.01 18.312 9.863 24.055 17.45 5.743 7.588 8.669 16.693 8.669 27.207s-2.926 19.62-8.669 27.207c-5.851 7.587-13.869 13.44-24.055 17.451-10.294 4.01-21.888 6.07-35 6.07-13.219-.109-24.814-2.06-34.999-6.07zm57.646-20.92c5.526-5.094 8.235-13.115 8.235-23.846s-2.709-18.644-8.235-23.847c-5.526-5.094-13.111-7.696-22.647-7.696-9.535 0-17.012 2.602-22.43 7.696-5.526 5.095-8.235 13.116-8.235 23.847 0 10.73 2.709 18.643 8.235 23.846 5.526 5.094 13.003 7.696 22.43 7.696 9.644 0 17.121-2.493 22.647-7.696z"/>
    <path fill="url(#paint8_radial)" d="M361.374 160.205c-10.294 4.01-21.888 6.07-35 6.07-13.111 0-24.814-2.06-34.999-6.07-10.186-4.011-18.313-9.864-24.056-17.452-5.851-7.587-8.668-16.692-8.668-27.206v2.71c0 10.514 2.925 19.619 8.668 27.206 5.851 7.588 13.87 13.441 24.056 17.452 10.294 4.01 21.888 6.07 34.999 6.07 13.112 0 24.814-2.06 35-6.07 10.186-4.011 18.312-9.864 24.055-17.452 5.852-7.587 8.669-16.692 8.669-27.206v-2.71c0 10.514-2.926 19.619-8.669 27.206-5.851 7.696-13.869 13.441-24.055 17.452z"/>
    <path fill="url(#paint9_radial)" d="M464.716 173.862c61.461 0 111.284-26.351 111.284-58.857s-49.823-58.857-111.284-58.857c-61.46 0-111.283 26.35-111.283 58.857 0 32.506 49.823 58.857 111.283 58.857z" opacity=".5"/>
    <path fill="url(#paint10_radial)" d="M433.076 5.42h-13.653l-15.495 11.706v40.972c0 5.312 2.383 9.54 7.151 12.574 4.768 3.035 10.944 4.553 18.421 4.553 7.585 0 13.761-1.518 18.529-4.553 4.768-3.035 7.152-7.262 7.152-12.573V17.126L433.076 5.42z"/>
    <path fill="url(#paint11_radial)" d="M448.029 5.528C443.261 2.385 437.085.868 429.5.868c-4.443-.11-8.994.65-13.22 2.059a22.217 22.217 0 00-9.102 5.961 13.256 13.256 0 00-3.251 9.105c0 5.312 2.384 9.539 7.152 12.574 4.768 3.035 10.944 4.552 18.421 4.552 7.585 0 13.761-1.517 18.529-4.552 4.768-3.035 7.152-7.262 7.152-12.574 0-5.203-2.384-9.43-7.152-12.465zm-12.461 19.186c-3.576 2.818-8.669 2.818-12.136 0-1.625-1.41-2.384-3.686-2.384-6.612 0-2.927.759-5.095 2.384-6.612 3.576-2.819 8.56-2.927 12.136 0 1.517 1.409 2.276 3.685 2.276 6.612 0 2.926-.759 5.203-2.276 6.612z"/>
    <path fill="url(#paint12_radial)" d="M448.029 4.66C443.261 1.518 437.085 0 429.392 0c-4.443-.108-8.994.65-13.22 2.06a22.21 22.21 0 00-9.102 5.961 13.256 13.256 0 00-3.251 9.105c0 5.311 2.384 9.539 7.152 12.574 4.768 3.035 10.944 4.552 18.421 4.66 7.585 0 13.761-1.517 18.529-4.66 4.768-3.035 7.151-7.263 7.151-12.574.109-5.203-2.275-9.322-7.043-12.465zm-12.461 19.186c-3.576 2.819-8.669 2.819-12.136 0-1.625-1.409-2.384-3.685-2.384-6.612 0-2.926.759-5.202 2.384-6.612a9.767 9.767 0 0112.136 0c1.517 1.41 2.276 3.577 2.276 6.612s-.759 5.203-2.276 6.612z"/>
    <path fill="url(#paint13_radial)" d="M506.976 43.466V2.493l-19.83 10.514-64.689 48.343v40.973c.108.759.975 1.409 2.384 1.409h12.677c1.951.108 3.793-.542 5.31-1.734l63.823-57.99c.108-.109.217-.217.325-.542z"/>
    <path fill="url(#paint14_radial)" d="M422.457 102.214v.109c.108.759.975 1.409 2.384 1.409h12.678c1.083 0 2.275-.217 3.359-.542V51.92h-5.852l-12.678 9.43.109 40.864z"/>
    <path fill="url(#paint15_radial)" d="M491.914 1.517H504.7c1.951 0 3.034 1.301 1.951 2.277l-63.931 57.99c-1.517 1.192-3.359 1.843-5.31 1.734h-12.678c-1.842 0-3.034-1.3-1.95-2.276l63.931-57.99c1.409-1.193 3.359-1.735 5.201-1.735z"/>
    <path fill="url(#paint16_radial)" d="M491.914.759H504.7c1.951 0 3.034 1.3 1.951 2.276l-63.823 57.99c-1.517 1.193-3.359 1.843-5.309 1.734h-12.678c-1.842 0-3.034-1.3-1.951-2.276l63.823-57.99c1.409-1.192 3.359-1.734 5.201-1.734z"/>
    <path fill="url(#paint17_radial)" d="M505.892 57.773c7.26-1.842 13.003-7.479 15.821-14.633l-8.344-6.828-19.938-.976-12.569 7.262c1.408 11.707 14.628 18.97 25.03 15.175z"/>
    <path fill="url(#paint18_radial)" d="M521.821 43.249c-2.817 7.154-8.669 12.79-15.82 14.633-10.403 3.685-23.731-3.469-25.031-15.067l-6.501 3.686v40.972c0 5.311 2.383 9.539 7.043 12.574 4.659 3.035 10.836 4.661 18.529 4.661 7.585 0 13.762-1.518 18.529-4.661 4.551-2.927 6.935-6.83 7.152-11.815v-41.84l-3.901-3.143z"/>
    <path fill="url(#paint19_radial)" d="M518.57 34.686c-4.767-3.144-10.944-4.661-18.529-4.661-7.477 0-13.653 1.517-18.421 4.66-4.768 3.144-7.151 7.263-7.151 12.574 0 5.312 2.383 9.539 7.043 12.574 4.659 3.035 10.836 4.552 18.529 4.552 7.585 0 13.762-1.517 18.529-4.552 4.768-3.035 7.152-7.262 7.152-12.574 0-5.203-2.384-9.43-7.152-12.573zM506.109 53.87c-3.576 2.818-8.669 2.818-12.244 0-1.517-1.409-2.276-3.577-2.276-6.612s.759-5.203 2.276-6.612c3.575-2.818 8.668-2.818 12.244 0 1.517 1.41 2.276 3.577 2.276 6.612s-.759 5.203-2.276 6.612z"/>
    <path fill="url(#paint20_radial)" d="M518.57 33.927c-4.767-3.143-10.944-4.661-18.529-4.661-7.477 0-13.653 1.518-18.421 4.66-4.768 3.144-7.151 7.263-7.151 12.575 0 5.31 2.383 9.538 7.043 12.573 4.659 3.035 10.836 4.553 18.529 4.553 7.585 0 13.762-1.518 18.529-4.553 4.768-3.035 7.152-7.262 7.152-12.573 0-5.312-2.384-9.54-7.152-12.574zm-12.461 19.077c-3.576 2.818-8.669 2.818-12.244 0-1.517-1.41-2.276-3.577-2.276-6.612s.759-5.203 2.276-6.612c3.575-2.818 8.668-2.818 12.244 0 1.517 1.41 2.276 3.577 2.276 6.612s-.759 5.203-2.276 6.612z"/>
  </g>
  <defs>
    <radialGradient id="paint0_radial" cx="0" cy="0" r="1" gradientTransform="matrix(175.321 0 0 93.0573 175.225 194.605)" gradientUnits="userSpaceOnUse">
      <stop stop-color="#3A72C9"/>
      <stop offset="1" stop-color="#88C4FF" stop-opacity="0"/>
    </radialGradient>
    <radialGradient id="paint1_radial" cx="0" cy="0" r="1" gradientTransform="matrix(183.539 0 0 92.9911 321.197 194.605)" gradientUnits="userSpaceOnUse">
      <stop stop-color="#3A72C9"/>
      <stop offset="1" stop-color="#88C4FF" stop-opacity="0"/>
    </radialGradient>
    <radialGradient id="paint2_radial" cx="0" cy="0" r="1" gradientTransform="matrix(175.105 0 0 175.161 175.839 1.503)" gradientUnits="userSpaceOnUse">
      <stop stop-color="#88C4FF"/>
      <stop offset="1" stop-color="#3A72C9"/>
    </radialGradient>
    <radialGradient id="paint3_radial" cx="0" cy="0" r="1" gradientTransform="matrix(233.955 0 0 234.03 175.514 55.168)" gradientUnits="userSpaceOnUse">
      <stop stop-color="#88C4FF"/>
      <stop offset="1" stop-color="#3A72C9"/>
    </radialGradient>
    <radialGradient id="paint4_radial" cx="0" cy="0" r="1" gradientTransform="matrix(172.311 0 0 172.367 179.091 -9.977)" gradientUnits="userSpaceOnUse">
      <stop stop-color="#88C4FF"/>
      <stop offset="1" stop-color="#3A72C9"/>
    </radialGradient>
    <radialGradient id="paint5_radial" cx="0" cy="0" r="1" gradientTransform="matrix(128.538 0 0 128.579 46.663 93.992)" gradientUnits="userSpaceOnUse">
      <stop stop-color="#88C4FF"/>
      <stop offset="1" stop-color="#3A72C9"/>
    </radialGradient>
    <radialGradient id="paint6_radial" cx="0" cy="0" r="1" gradientTransform="matrix(241.806 0 0 241.884 327.197 -35.9)" gradientUnits="userSpaceOnUse">
      <stop stop-color="#88C4FF"/>
      <stop offset="1" stop-color="#3A72C9"/>
    </radialGradient>
    <radialGradient id="paint7_radial" cx="0" cy="0" r="1" gradientTransform="matrix(296.068 0 0 296.164 317.274 16.21)" gradientUnits="userSpaceOnUse">
      <stop stop-color="#88C4FF"/>
      <stop offset="1" stop-color="#3A72C9"/>
    </radialGradient>
    <radialGradient id="paint8_radial" cx="0" cy="0" r="1" gradientTransform="matrix(171.456 0 0 171.511 485.864 78.284)" gradientUnits="userSpaceOnUse">
      <stop stop-color="#88C4FF"/>
      <stop offset="1" stop-color="#3A72C9"/>
    </radialGradient>
    <radialGradient id="paint9_radial" cx="0" cy="0" r="1" gradientTransform="matrix(111.523 0 0 58.7945 462.608 114.822)" gradientUnits="userSpaceOnUse">
      <stop stop-color="#3A72C9"/>
      <stop offset="1" stop-color="#88C4FF" stop-opacity="0"/>
    </radialGradient>
    <radialGradient id="paint10_radial" cx="0" cy="0" r="1" gradientTransform="matrix(237.199 0 0 237.276 466.268 190.929)" gradientUnits="userSpaceOnUse">
      <stop stop-color="#FFC476"/>
      <stop offset="1" stop-color="#EF5316"/>
    </radialGradient>
    <radialGradient id="paint11_radial" cx="0" cy="0" r="1" gradientTransform="rotate(-1.146 1927.41 -21492.432) scale(64.7299 16.1942)" gradientUnits="userSpaceOnUse">
      <stop stop-color="#fff"/>
      <stop offset="1" stop-color="#FE751A" stop-opacity="0"/>
    </radialGradient>
    <radialGradient id="paint12_radial" cx="0" cy="0" r="1" gradientTransform="matrix(934.361 0 0 934.662 487.983 215.681)" gradientUnits="userSpaceOnUse">
      <stop stop-color="#FFC476"/>
      <stop offset="1" stop-color="#EF5316"/>
    </radialGradient>
    <radialGradient id="paint13_radial" cx="0" cy="0" r="1" gradientTransform="matrix(237.199 0 0 237.276 466.268 190.929)" gradientUnits="userSpaceOnUse">
      <stop stop-color="#FFC476"/>
      <stop offset="1" stop-color="#EF5316"/>
    </radialGradient>
    <radialGradient id="paint14_radial" cx="0" cy="0" r="1" gradientTransform="matrix(172.132 0 0 172.187 422.154 39.724)" gradientUnits="userSpaceOnUse">
      <stop stop-color="#FFC476"/>
      <stop offset="1" stop-color="#EF5316"/>
    </radialGradient>
    <radialGradient id="paint15_radial" cx="0" cy="0" r="1" gradientTransform="matrix(77.5005 .43298 -.12127 21.70716 435.88 63.946)" gradientUnits="userSpaceOnUse">
      <stop stop-color="#fff"/>
      <stop offset="1" stop-color="#FE751A" stop-opacity="0"/>
    </radialGradient>
    <radialGradient id="paint16_radial" cx="0" cy="0" r="1" gradientTransform="matrix(934.361 0 0 934.662 487.983 215.681)" gradientUnits="userSpaceOnUse">
      <stop stop-color="#FFC476"/>
      <stop offset="1" stop-color="#EF5316"/>
    </radialGradient>
    <radialGradient id="paint17_radial" cx="0" cy="0" r="1" gradientTransform="matrix(160.414 0 0 160.466 473.981 -52.897)" gradientUnits="userSpaceOnUse">
      <stop stop-color="#FFC476"/>
      <stop offset="1" stop-color="#EF5316"/>
    </radialGradient>
    <radialGradient id="paint18_radial" cx="0" cy="0" r="1" gradientTransform="matrix(228.969 0 0 229.042 458.152 148.24)" gradientUnits="userSpaceOnUse">
      <stop stop-color="#FFC476"/>
      <stop offset="1" stop-color="#EF5316"/>
    </radialGradient>
    <radialGradient id="paint19_radial" cx="0" cy="0" r="1" gradientTransform="matrix(89.0353 -.32644 .0653 17.81278 502.713 64.668)" gradientUnits="userSpaceOnUse">
      <stop stop-color="#fff"/>
      <stop offset="1" stop-color="#FE751A" stop-opacity="0"/>
    </radialGradient>
    <radialGradient id="paint20_radial" cx="0" cy="0" r="1" gradientTransform="matrix(934.361 0 0 934.662 487.983 215.681)" gradientUnits="userSpaceOnUse">
      <stop stop-color="#FFC476"/>
      <stop offset="1" stop-color="#EF5316"/>
    </radialGradient>
    <clipPath id="clip0">
      <path fill="#fff" d="M0 0h586v288H0z"/>
    </clipPath>
  </defs>
</svg>
